<svg version="1.1" id="splatter" xmlns="http://www.w3.org/2000/svg" xmlns:xlink="http://www.w3.org/1999/xlink" x="0" y="0"  width="100%" height="319.848px" viewBox="0 0 3039.304 319.848" enable-background="new 0 0 3039.304 319.848" xml:space="preserve">
	<g>
		<path fill="#FFFFFF" fill-rule="evenodd" clip-rule="evenodd" d="M1861.849,287.96c1.313-4.225,3.597-8.17,5.661-12.129
			c1.822-3.496,4.032-6.786,5.886-10.267c2.812-5.275,5.5-10.618,8.15-15.978c0.514-1.039,0.741-2.269,0.879-3.437
			c1.333-11.251,3.043-22.346,6.886-33.153c3.406-9.58,6.682-19.456,8.034-29.468c3.741-27.701,15.643-50.533,37.257-68.318
			c2.614-2.151,4.925-4.735,7.097-7.352c7.571-9.133,22.597-13.455,34.033-9.603c1.022,0.346,2.143,0.743,2.912,1.448
			c5.711,5.241,12.971,6.577,20.123,8.421c19.374,4.992,38.758,5.133,57.722-1.105c29.706-9.775,57.188-24.239,83.194-41.552
			c2.494-1.659,5.012-3.321,7.66-4.712c10.867-5.704,21.743-11.396,32.702-16.921c14.992-7.558,30.093-14.789,46.64-18.568
			c20.442-4.671,39.623-2.511,58.055,8.051c20.479,11.731,38.188,26.94,54.587,43.509c17.271,17.45,34.265,35.175,51.224,52.934
			c0.854-0.054,1.709-0.098,2.564-0.124c10.458-0.313,20.944,0.133,31.396-0.297c8.979-0.369,17.915-1.75,26.894-2.206
			c3.874-0.196,7.617,0.349,9.011-3.96c2.084,1.134,3.994,3.1,5.661,2.912c5.63-0.636,11.173-2.044,16.753-3.138
			c3.409-0.668,6.824-1.306,10.239-1.947c1.057-0.2,2.162-0.239,3.172-0.571c9.718-3.195,19.373-6.587,29.146-9.598
			c4.272-1.317,8.795-2.727,13.172-2.633c12.94,0.279,26.099,0.002,38.744,2.294c21.471,3.891,41.165,13.098,59.786,24.313
			c-1.64-2.737-3.151-5.585-4.54-8.527c-7.117-15.076-12.239-30.894-15.71-47.231c-0.414-1.949-1.312-3.856-2.289-5.614
			c-3.571-6.421-7.335-12.734-10.871-19.174c-0.755-1.376-1.507-3.307-1.104-4.63c0.562-1.846,1.964-4.354,3.467-4.727
			c1.417-0.352,3.605,1.487,5.105,2.771c0.802,0.686,0.743,2.294,1.288,3.378c1.751,3.484,3.335,7.102,5.516,10.305
			c1.272,1.87,3.563,3.049,5.395,4.538c1.465-2.355,3.405-4.546,4.295-7.102c1.743-5.001,2.688-10.276,4.36-15.308
			c1.578-4.75,4.195-6.554,6.803-5.409c2.702,1.188,2.94,4.449,0.515,8.947c-3.812,7.067-3.014,14.055,0.834,20.651
			c4.047,6.939,8.509,13.646,12.974,20.332c11.716,17.546,27.48,29.581,47.914,35.51c18.213,5.286,36.697,6.617,55.5,5.088
			c2.133-0.174,4.318,0.108,6.465,0.33c4.714,0.482,9.418,1.063,14.127,1.603c-6.226-4.13-11.684-8.46-15.223-14.907
			c-0.336-0.61-1.523-0.883-2.368-1.06c-2.525-0.527-5.133-0.735-7.605-1.434c-2.966-0.839-5.777-2.102-7.426,1.997
			c-0.202,0.503-1.59,0.529-2.428,0.775c-0.18-0.732-0.749-1.687-0.478-2.161c2.031-3.561-0.156-5.397-2.528-7.55
			c-2.297-2.086-4.073-4.735-6.224-6.999c-1.948-2.053-3.909-4.18-6.201-5.801c-2.721-1.926-5.802-3.343-8.989-5.13
			c-0.075,0.049-0.524,0.346-0.984,0.626c-2.438,1.486-4.929,1.161-5.652-1.507c-0.419-1.547,0.687-4.386,2.029-5.33
			c2.137-1.502,3.985,0.096,5.102,2.381c0.407,0.835,1.238,1.567,2.044,2.089c6.317,4.089,13.926,6.107,18.8,12.58
			c1.444,1.918,4.495,2.651,6.845,3.856c3.953,2.025,8.354,3.452,11.799,6.121c4.593,3.557,9.033,4.674,14.379,2.444
			c1.756-0.732,3.598-1.329,5.455-1.728c3-0.643,4.769-2.196,5.363-5.342c0.547-2.891,2.252-3.879,5.426-3.131
			c1.987,0.469,4.622,0.187,6.381-0.802c2.952-1.659,5.484-1.778,8.486-0.403c7.707,3.528,13.866,8.241,14.725,17.504
			c0.055,0.607,0.562,1.174,0.973,1.983c1.795-0.763,3.433-1.458,5.164-2.193c-1.615-1.323-3.137-2.146-4.038-3.41
			c-1.382-1.942-1.718-4.176,0.878-5.567c6.367-3.415,7.864-5.555,6.738-12.48c-1.232-7.566-3.439-14.95-8.518-20.967
			c-8.172-9.678-16.627-19.119-24.786-28.806c-9.87-11.717-23.152-17.374-37.326-21.547c-0.64-0.188-1.361-0.333-2.005-0.235
			c-8.748,1.331-17.558,2.389-26.203,4.218c-3.824,0.81-7.805,2.589-10.853,5.012c-5.994,4.766-11.471,9.988-19.952,9.524
			c-1.643-0.089-3.38,1.558-5.022,1.47c-2.12-0.114-4.693-0.638-6.114-1.99c-1.042-0.991-1.377-4.479-0.535-5.273
			c1.168-1.104,3.73-0.823,5.707-0.921c0.538-0.026,1.168,0.658,1.665,1.115c2.977,2.732,5.952,2.456,8.703-0.197
			c2.112-2.037,3.582-5.091,6.027-6.362c7.791-4.05,15.719-7.994,23.954-10.982c6.646-2.413,13.773-3.311,20.77-0.124
			c1.036,0.471,3.061-0.057,4.041-0.848c3.165-2.556,5.877-5.687,9.112-8.134c2.369-1.79,6.367-2.205,7.685-4.404
			c1.577-2.63,1.09-6.506,1.465-9.846c0.244-2.165,0.145-4.423,0.752-6.475c0.4-1.348,1.586-2.958,2.801-3.398
			c0.869-0.315,3.088,0.87,3.413,1.826c0.416,1.223-0.091,3.928-0.845,4.198c-5.778,2.072-5.377,6.843-5.346,11.406
			c0.01,1.579,1.05,3.158,1.028,4.729c-0.032,2.34,1.106,2.823,3.03,2.734c5.747-0.263,11.37-0.68,16.415-4.139
			c1.532-1.049,4.634-1.679,5.952-0.836c4.656,2.976,9.164,6.346,13.156,10.162c9.466,9.053,20.193,15.424,33.423,16.572
			c23.103,2.005,46.239,3.609,69.333,5.702c6.574,0.598,13.051,2.284,19.564,3.51c6.793,1.276,13.557,3.574,20.364,3.699
			c14.579,0.271,29.196-0.256,43.76-1.103c6.418-0.373,13.058-1.508,19.017-3.805c3.781-1.457,7.34-2.206,11.007-2.006
			c-0.771-0.451-1.545-0.896-2.302-1.367c-11.334-7.045-21.801-15.471-32.838-23.014c-3.662-2.501-7.891-4.194-11.924-6.119
			c-4.535-2.162-9.19-4.07-13.707-6.267c-5.017-2.437-9.926-5.095-14.905-7.61c-1.579-0.8-3.315-1.312-4.837-2.201
			c-6.303-3.687-6.921-10.352-1.486-15.283c6.251-5.674,14.744-5.432,21.074,0.317c3.407,3.093,6.843,6.413,10.846,8.536
			c9.727,5.159,18.679,11.241,26.6,18.884c1.118,1.078,2.623,2.052,4.11,2.404c18.331,4.355,33.331,13.71,44.975,28.683
			c2.271,2.918,6.019,5.261,9.563,6.521c18.794,6.676,37.623,13.261,56.557,19.521c-0.316-0.842-0.412-1.167-0.577-1.45
			c-0.204-0.35-0.558-0.615-0.743-0.97c-1.767-3.373,0.308-7.35,3.968-6.845c4.199,0.579,8.329,1.933,12.368,3.307
			c2.553,0.867,4.762,2.828,7.335,3.536c12.313,3.388,24.698,6.514,37.808,9.93c-0.543-1.12-1.12-1.741-1.063-2.298
			c0.188-1.868-0.004-4.615,1.08-5.344c1.418-0.953,4.518-1.133,5.823-0.179c2.996,2.188,5.406,5.172,8.037,7.864
			c8.258-0.461,16.521-0.845,24.762-1.52c4.715-0.387,9.363-1.533,14.068-2.148c3.041-0.397,6.125-0.522,9.195-0.634
			c1.477-0.053,2.99,0.439,4.447,0.29c6.875-0.708,7.598-0.151,7.767,6.806c1.358,0.302,2.78,0.731,4.233,0.922
			c15.815,2.084,31.698,1.271,47.323-0.89c22.571-3.12,43.402,1.722,63.425,11.29c7.962,3.804,15.407,8.739,22.909,13.445
			c7.39,4.637,12.225,13.005,21.564,14.841c2.367,4.458,8.887,1.569,11.11,6.282c9.13,1.962,16.743,1.497,21.035-7.797
			c-3.032-1.936-7.819-1.866-9.051-7.772c12.723,8.031,25.53,6.844,38.723,3.717c-1.124-2.133-2.35-3.838-4.012-4.656
			c-4.492-2.21-9.235-3.902-13.759-6.055c-9.996-4.757-19.96-9.604-28.285-17.118c-0.464-0.419-0.471-1.344-0.689-2.034
			c0.701-0.179,1.631-0.73,2.059-0.467c1.259,0.775,2.244,1.98,3.469,2.828c4.357,3.014,8.396,7.281,13.237,8.642
			c10.448,2.933,19.415,8.372,28.559,13.729c1.307,0.767,3.087,1.025,4.642,1.006c4.485-0.057,9.123-1.215,13.419-0.418
			c9.474,1.756,18.856,2.586,28.444,1.425c11.405-1.381,21.522-5.771,30.839-12.138c-0.466-0.324-0.922-0.698-1.362-1.133
			c-1.06-1.046-1.967-2.272-2.817-3.503c-1.973-2.857-4.305-4.165-7.982-3.149c-9.061,2.506-18.237,4.603-27.3,7.108
			c-5.467,1.512-10.704,1.902-15.869-0.91c-3.443-1.874-4.35-4.623-3.195-8.267c2.143-6.771,7.605-9.925,14.662-8.45
			c1.834,0.384,3.914,1.352,5.504,0.852c3.535-1.113,7.068-2.257,10.57-3.482c0.365-1.125,0.968-2.192,1.272-2.176
			c1.115,0.06,2.271,0.209,3.395,0.477c1.957-0.739,3.9-1.51,5.822-2.326c7.875-3.347,15.948-5.407,24.424-6.457
			c6.325-0.784,12.535-2.474,18.818-3.641c11.376-2.111,22.699-4.798,34.174-6.008c11.642-1.229,23.443-0.885,35.17-1.376
			c11.084-0.466,22.075-0.591,32.791,3.098c3.183,1.095,6.34,2.24,9.473,3.43c1.199-0.008,2.391,0.03,3.574,0.139
			c17.328,1.582,34.738,3.822,51.206,10.281c4.562,1.788,9.335,3.043,14.021,4.512c17.747,5.563,32.095,15.146,41.988,30.104
			c4.766,0.11,9.533,0.078,14.277-0.163c6.063-0.308,12.062-2.127,18.041-3.487c1.191-0.271,2.315-1.385,3.203-2.356
			c2.867-3.142,5.18-6.97,8.506-9.469c4.434-3.331,9.617-5.662,14.699-8.548c-0.891-2.322-1.764-4.602-2.937-7.66
			c5.679,2.128,4.618,6.157,4.401,9.648c2.721,1.306,5.245,2.519,7.816,3.752c2.351-3.06,4.654-6.272,7.203-9.277
			c1.166-1.373,2.663-2.969,4.278-3.361c4.372-1.067,4.958-4.28,5.49-6.833c-2.113-1.739-4.821-2.91-4.924-4.275
			c-0.208-2.782,2.618-2.72,4.833-3.017c1.012-0.134,2.629-1.053,2.729-1.785c0.406-2.987,1.025-6.228,0.275-9.027
			c-1.197-4.46-3.51-8.612-5.162-12.967c-0.416-1.093-0.121-2.456-0.153-3.696c1.55,0.221,4.087-0.023,4.454,0.756
			c0.892,1.89,1.113,4.276,0.977,6.423c-0.174,2.739-1.318,5.509,2.846,6.325c0.461,0.09,0.945,2.133,0.75,3.142
			c-0.69,3.584-3.309,7.019-0.457,10.781c0.25,0.328,0.149,1.065-0.012,1.536c-0.82,2.398-2.041,4.714-2.479,7.171
			c-0.372,2.092-0.457,4.648,0.467,6.4c0.547,1.037,3.465,1.59,5.026,1.198c7.769-1.946,14.214,3.014,21.433,3.73
			c0.012,0.002,0.001,0.24,0.001,0.962c-1.573,0-3.245,0.258-4.802-0.054c-3.201-0.64-6.338-1.598-9.508-2.397
			c-2.997-0.757-5.528-0.385-6.367,2.294c-2.49-0.531-5.394-2.13-6.789-1.271c-4.936,3.033-9.355,6.906-13.972,10.461
			c0.252,0.354,0.505,0.709,0.757,1.064c6.529-0.037,13.041-0.108,18.959-3.624c3.666-2.178,7.543-2.881,11.799-1.831
			c4.344,1.072,8.742,2.016,13.17,2.646c12.975,1.845,25.873,0.406,38.729-1.381c1.584-0.221,3.031-1.43,4.364-2.092
			c1.314,0.344,2.892,1.13,4.452,1.095c3.949-0.088,7.892-0.533,11.834-0.857c3.552-0.295,6.034-1.375,6.682-5.647
			c0.724-4.769,6.504-7.28,9.61-4.201c3.824,3.79,8.142,3.957,12.825,3.515c15.146-1.426,30.113-0.409,45.258,1.3
			c14.46,1.633,29.232,1.001,43.846,0.576c7.42-0.216,14.863-1.385,22.295-2.528c21.893-3.367,42.985,2.025,63.732,8.646
			c1.418,0.453,2.938,0.987,4.057,1.91c4.591,3.788,9.366,7.443,13.418,11.761c2.115,2.254,3.832,5.662,1.33,9.117
			c7.314,2.464,10.629,5.736,10.145,10.431c-0.158,1.534-0.731,3.556-1.836,4.351c-2.284,1.644-5.053,2.613-7.848,3.971
			c-0.039-0.197-0.031,0.224,0.124,0.579c4.565,10.409,1.001,21.577-8.829,27.366c-3.743,2.204-7.721,2.988-11.613,0.482
			c-3.777-2.431-4.867-6.361-4.086-10.428c0.891-4.645,2.474-9.166,3.924-13.688c1.617-5.039,3.852-9.92,5.045-15.05
			c1.725-7.413-3.994-13.971-11.57-14.999c-14.443-1.961-29.117-3.272-43.142-6.96c-14.272-3.753-28.423-6.075-43.133-6.282
			c-5.764-0.081-10.829,1.094-15.539,3.898c-4.786,2.85-9.313,6.154-13.843,9.414c-4.851,3.489-6.707,7.839-4.328,13.868
			c1.628,4.126-0.372,7.557-4,8.357c-3.67,0.808-6.767-1.898-7.171-6.463c-0.187-2.114-0.032-4.258-0.032-6.813
			c-6.818,2.084-12.564,5.525-17.164,10.388c-4.377,4.626-8.188,9.828-11.92,15.013c-3.438,4.776-7.412,7.393-13.553,5.856
			c-4.658-1.167-8.957,0.203-12.704,3.069c-2.379,1.818-4.581,3.873-6.818,5.871c-2.909,2.6-6.253,3.692-10.158,3.399
			c-6.511-0.491-13.09-0.436-19.538-1.339c-13.514-1.896-25.719-0.336-35.893,10.018c-3.292,3.351-7.873,1.687-8.733-2.948
			c-1.229-6.63-5.596-9.562-11.374-10.734c-16.702-3.384-32.327-2.025-44.83,11.389c-0.739,0.792-1.535,1.729-2.494,2.083
			c-2.408,0.889-4.926,1.482-7.398,2.194c-0.498-2.263-0.994-4.525-1.607-7.315c-2.422,0-5.941,0.637-9.132-0.115
			c-11.395-2.686-22.651-5.938-34.006-8.8c-7.391-1.861-14.631-4.064-21.692-6.688c-6.042,0.843-12.062,1.967-18.1,3.45
			c-31.414,7.725-63.209,13.995-90.589,32.744c-0.669,0.458-1.433,0.801-2.186,1.114c-19.845,8.263-38.863,18.5-60.021,23.604
			c-11.575,2.79-22.742,3.89-34.189-0.066c-3.834-1.324-7.948-2.451-11.958-2.536c-10.12-0.211-19.771-2.627-29.175-5.829
			c-5.693-1.939-11.408-4.616-16.231-8.162c-14.742-10.836-31.626-16.046-49.215-18.615c-15.336-2.241-30.943-2.646-46.433-3.824
			c-0.819-0.063-2.198-0.028-2.415,0.407c-1.567,3.159-2.717,2.771-3.957-0.179c-0.213-0.504-0.916-1.077-1.442-1.132
			c-5.562-0.574-11.135-1.051-15.46-1.443c-0.365,3.439,0.291,6.908-1.146,8.63c-2.478,2.968-5.731,0.534-8.484-0.912
			c-1.085-0.569-2.04-1.521-3.18-1.824c-2.717-0.723-5.731-2.117-8.229-1.537c-7.523,1.747-15.764,2.87-22.078,6.85
			c-13.104,8.258-25.723,17.296-39.366,24.724c-0.474,0.258-0.853,0.683-1.306,0.985c-12.909,8.582-26.475,15.148-42.589,14.043
			c-3.69-0.253-6.744,0.406-9.027,4.105c-2.76,4.473-8.001,3.864-10.44-0.817c-0.622-1.193-1.063-2.525-1.342-3.845
			c-1.165-5.524-4.741-9.211-9.421-11.758c-4.599-2.501-9.619-4.24-14.152-6.843c-1.717-0.987-3.475-3.398-3.578-5.251
			c-0.089-1.618,2-3.471,3.372-5.001c0.528-0.59,1.729-0.577,3.442-1.08c-4.32-5.616-7.807-11.079-12.195-15.679
			c-0.474-0.495-0.953-0.984-1.427-1.479c-1.386,0.611-2.944,0.789-4.767,0.297c-4.156-1.123-6.192-4.245-6.906-8.301
			c-0.265-1.505-0.292-3.073-0.505-4.581c-4.276-4.379-8.573-8.74-12.884-13.085c-19.208,0.16-38.42,0.302-57.616,0.919
			c-2.686,0.087-5.675,2.377-7.796,4.407c-1.51,1.445-1.842,4.151-2.623,6.322c-1.358,3.765-3.57,6.472-7.945,6.46
			c-6.32-0.017-9.678-4.984-7.31-11.359c2.237-6.023,2.655-11.913-1.218-17.177c-5.897-8.015-12.218-15.721-18.487-23.454
			c-0.7-0.863-2.237-1.482-3.386-1.481c-17.971,0.023-32.846,7.641-45.238,19.925c-11.506,11.404-22.512,23.355-33.174,35.558
			c-10.916,12.491-20.078,26.748-37.559,31.535c-1.99,0.544-4.268,4.259-4.412,6.624c-0.943,15.455-0.662,30.791,5.927,45.377
			c2.586,5.728,4.107,11.937,6.455,18.94c-6.167-5.06-10.358-10.297-12.011-16.921c-2.373-9.506-4.196-19.153-6.038-28.783
			c-0.97-5.067-1.338-10.248-2.241-15.331c-0.681-3.837-3.162-5.754-7.002-7.046c-4.814-1.619-9.904-3.632-13.676-6.873
			c-6.898-5.929-14.221-7.018-22.482-4.64c-7.85,2.258-15.618,4.79-23.473,7.023c-5.604,1.592-10.895,2.009-15.18-3.485
			c-1.139-1.461-4.178-2.145-6.283-2.03c-11.134,0.601-21.396-1.957-30.921-7.645c-2.866-1.713-5.802-3.035-8.817-3.895
			c-2.867,3.15-5.619,6.412-8.19,9.859c-14.943,20.03-34.854,32.142-59.168,37.437c-5.568,1.213-10.894,3.512-16.44,4.855
			c-3.62,0.876-7.884,2.204-11.076,1.089c-6.734-2.353-13.063-5.986-19.314-9.526c-1.685-0.953-2.477-3.468-3.705-5.247
			c-2.381-3.442-4.301-7.374-7.267-10.209c-7.491-7.162-15.438-13.851-23.254-20.669c-1.002-0.874-2.233-1.711-3.494-2.029
			c-11.57-2.933-23.144-5.865-34.776-8.535c-4.514-1.035-6.564,1.458-5.773,6.104c0.203,1.187-0.063,2.516-0.417,3.687
			c-0.081,0.268-1.967,0.423-2.093,0.168c-0.621-1.252-1.55-2.835-1.227-3.977c0.794-2.801,2.217-5.424,3.515-8.411
			c-1.535-0.477-3.046-1.096-4.616-1.403c-4.238-0.831-8.547-1.341-12.743-2.33c-4.255-1.005-8.401-2.463-12.617-3.641
			c-0.571-0.16-1.403-0.054-1.891,0.269c-1.637,1.089-3.173,2.329-4.747,3.511c-0.44-0.251-0.88-0.5-1.32-0.752
			c0.109,2.24,0.459,4.506,0.213,6.708c-0.107,0.959-1.438,1.783-2.212,2.669c-0.472-1.002-1.34-2.016-1.314-3.003
			c0.033-1.303,0.795-2.58,1.203-3.88c2.246-7.152,2.241-7.153-5.143-8.872c-8.168-1.902-8.138-1.897-9.361,6.455
			c-0.144,0.983-0.793,1.922-1.351,2.789c-0.088,0.136-1.359-0.193-1.369-0.351c-0.07-1.12-0.229-2.358,0.16-3.355
			c0.913-2.348,2.118-4.583,3.711-7.925c-14.352-2.312-27.828-4.482-41.306-6.653c-0.257,0.429-0.513,0.857-0.769,1.284
			c2.201,4.412,4.459,8.795,6.553,13.256c0.384,0.817,0.349,2.038,0.027,2.893c-0.157,0.418-1.641,0.806-2.126,0.523
			c-0.799-0.465-1.617-1.404-1.828-2.286c-0.771-3.222-1.184-6.529-1.982-9.742c-0.21-0.839-1.295-1.973-2.044-2.027
			c-0.825-0.06-2.113,0.77-2.531,1.562c-1.807,3.435-2.917,6.955-0.727,10.795c0.408,0.716-0.088,2.389-0.735,3.108
			c-0.421,0.467-2.447,0.358-2.734-0.114c-0.504-0.828-0.473-2.198-0.204-3.219c0.252-0.951,1.616-1.75,1.606-2.606
			c-0.058-5.05,0.956-9.604,5.569-12.853c-0.207-0.373-0.412-0.746-0.619-1.119c-18.606,0-37.211,0-55.864,0
			c-0.599,1.782,1.691,5.333-2.523,5.141c-0.655-0.031-1.159-3.347-1.686-4.992c-4.059,0-8.697,0.102-13.328-0.028
			c-4.805-0.134-8.987,1.224-13.029,3.885c-7.403,4.874-14.764,9.946-22.66,13.902c-2.446,1.226-4.905,2.47-7.384,3.684
			c1.767,1.838,3.53,3.679,5.3,5.514c1.536,1.594,3.922,2.645,6.106,3.288c8.756,2.578,17.903,4.103,26.333,7.458
			c25.098,9.988,46.053,25.253,59.219,49.641c0.315,0.582,0.739,1.148,1.235,1.584c4.057,3.566,8.249,6.984,12.184,10.679
			c2.853,2.675,4.2,5.993,2.592,10.034c-1.216,0.057-2.352,0.11-3.501,0.165c2.045,2.898,4.416,5.4,5.744,8.37
			c1.491,3.334,0.708,7.062-2.326,9.217c-1.719,1.223-5.308,2.124-6.563,1.182c-2.226-1.672-4.736-4.956-4.566-7.387
			c0.308-4.382-1.429-6.866-4.371-9.299c-1.149-0.949-2.185-2.082-3.089-3.27c-7.759-10.199-18.212-15.251-30.797-16.502
			c-7.613-0.757-14.897-3.067-20.641-8.154c-5.574-4.939-10.743-10.45-15.458-16.226c-7.242-8.873-14.025-18.124-20.829-27.346
			c-2.243-3.04-4.846-3.271-8.217-2.709c-1.737,0.291-3.96-0.125-5.461-1.042c-3.458-2.115-6.643-2.985-10.632-1.241
			c-5.392,2.354-10.688,2.289-15.943-1.242c-0.559-0.376-1.158-0.705-1.777-1.007c-13.988,2.882-28.146,5.08-42.203,7.673
			c-10.758,1.984-21.519,3.675-32.502,1.499c-24.494-4.853-48.058-12.267-70.271-23.926c-13.157-6.905-27.425-10.044-42.326-9.229
			c-14.104,0.771-28.015,4.664-41.539,2.217c-8.094,11.606-14.223,23.843-27.277,30.225c1.372,2.412,2.604,4.576,3.929,6.901
			c-4.288-0.232-5.165-1.62-5.515-8.312c-2.92-0.922-5.555-1.756-8.14-2.573c-1.887,3.234-3.665,6.458-5.626,9.565
			c-0.978,1.548-2.021,3.658-3.498,4.168c-4.408,1.52-4.898,4.82-5.113,7.646c2.324,1.523,4.084,2.677,5.843,3.829
			c-1.631,1.146-3.278,2.271-4.887,3.448c-0.821,0.602-2.267,1.321-2.243,1.94c0.126,3.272-0.045,6.808,1.154,9.732
			c1.999,4.873,4.96,9.352,7.707,14.345c-2.165,3.034-4.407,3.102-6.275-0.782c-0.697-1.45-0.564-3.363-0.575-5.064
			c-0.015-2.492,0.422-5.005-3.291-5.355c-0.663-0.063-1.5-1.744-1.655-2.769c-0.172-1.131,0.164-2.441,0.604-3.545
			c1.782-4.475-2.845-8.399-0.908-13.021c0.832-1.988,0.581-4.511,0.502-6.78c-0.108-3.104-2.753-5.31-5.224-3.862
			c-3.999,2.342-7.817,1.336-11.825,0.874c-3.094-0.355-6.228-0.333-9.334-0.591c-0.638-0.053-1.233-0.604-1.849-0.925
			c0.042-0.365,0.085-0.73,0.128-1.096c1.625-0.085,3.263-0.343,4.871-0.218c3.125,0.243,6.234,0.695,9.35,1.07
			c3.197,0.385,5.797-0.279,6.588-3.939c3.729,2.324,5.667,2.754,8.604,0.023c4.207-3.915,7.764-8.53,11.598-12.846
			c-0.313-0.52-0.625-1.039-0.937-1.559c-2.851,0.616-5.702,1.23-8.384,1.81c0.219-2.368,1.152-4.901,0.392-5.608
			c-2.618-2.43-5.937-4.085-8.774-6.306c-1.758-1.376-3.639-3-4.57-4.942c-2.08-4.325-4.779-7.961-9.213-9.845
			c-4.844-2.06-9.742-4.696-14.829-5.296c-6.002-0.71-12.23,0.486-18.359,0.873c-0.538,0.034-1.157,0.06-1.589,0.33
			c-4.283,2.675-10.361,1.596-13.617,6.709c-0.515,0.81-3.206,0.348-4.871,0.215c-0.313-0.025-0.877-1.787-0.731-1.889
			c1.348-0.933,2.754-1.903,4.292-2.403c1.193-0.388,3.156,0.438,3.828-0.229c6.145-6.115,15.107-4.942,22.131-8.735
			c1.117-0.604,2.935-0.145,4.372,0.124c8.013,1.496,15.962,4.044,24.018,4.418c12.083,0.561,24.238-0.311,36.354-0.792
			c1.225-0.049,2.869-1.348,3.501-2.511c0.596-1.098,0.99-2.173,1.22-3.231c-24.895,1.73-49.507,0.256-73.657-5.285
			c-4.848,0.061-9.694,0.11-14.542,0.144c-1.525,0.01-3.057-0.848-4.585-1.303c0.058-0.495,0.115-0.989,0.173-1.484
			c2.41-0.127,4.822-0.373,7.23-0.381c-2.809-0.806-5.613-1.649-8.407-2.571c-1.991-0.656-4.714-0.799-6.545,0.032
			c-16.249,7.374-30.24,17.74-41.659,32.623c8.648,5.92,17.973,3.121,25.521,3.581c2.286-1.979,3.721-4.106,5.578-4.578
			c1.814-0.463,3.035-0.687,3.981-2.474c0.378-0.714,2.15-1.154,3.117-0.941c0.767,0.17,1.81,1.561,1.759,2.346
			c-0.066,1.014-0.875,2.332-1.76,2.873c-2.369,1.449-4.947,2.555-8.011,4.08c3.123,2.091,5.304,3.549,7.014,4.694
			c-2.728,0-6.395,1.104-8.683-0.205c-7.25-4.143-14.943-3.872-22.694-3.723c-5.84,0.111-11.53,1.642-15.647,5.837
			c-8.778,8.943-17.421,18.057-25.559,27.579c-6.875,8.045-6.524,8.345-0.466,16.72c3.065,4.238,1.284,8.97-3.941,9.799
			c-2.514,0.396-5.17-0.215-7.738-0.042c-3.88,0.261-8.194-0.153-11.521,1.418c-8.838,4.175-17.33,9.111-25.798,14.022
			c-7.157,4.151-9.912,11.216-11.616,18.875c-0.797,3.578-1.733,7.147-2.93,10.608c-2.092,6.04-4.157,12.117-6.777,17.935
			c-1.57,3.49-3.699,7.015-6.437,9.619c-3.036,2.89-7.202,3.141-11.054,0.889C1862.41,296.42,1860.501,292.288,1861.849,287.96z"/>
		<path fill="#FFFFFF" fill-rule="evenodd" clip-rule="evenodd" d="M2085.349-30.504c-1.313,4.225-3.597,8.17-5.661,12.129
			c-1.822,3.496-4.032,6.786-5.886,10.267c-2.812,5.275-5.5,10.618-8.15,15.978c-0.514,1.039-0.741,2.269-0.879,3.437
			c-1.333,11.251-3.043,22.346-6.886,33.153c-3.406,9.58-6.682,19.456-8.034,29.468c-3.741,27.701-15.643,50.533-37.257,68.318
			c-2.614,2.151-4.925,4.735-7.097,7.352c-7.571,9.133-22.597,13.455-34.033,9.603c-1.022-0.346-2.143-0.743-2.912-1.448
			c-5.711-5.241-12.971-6.577-20.123-8.421c-19.374-4.992-38.758-5.133-57.722,1.105c-29.706,9.775-57.188,24.239-83.194,41.552
			c-2.494,1.659-5.012,3.321-7.66,4.712c-10.867,5.704-21.743,11.396-32.702,16.921c-14.992,7.558-30.093,14.789-46.64,18.568
			c-20.442,4.671-39.623,2.511-58.055-8.051c-20.479-11.731-38.188-26.94-54.587-43.509c-17.271-17.45-34.265-35.175-51.224-52.934
			c-0.854,0.054-1.709,0.098-2.564,0.124c-10.458,0.313-20.944-0.133-31.396,0.297c-8.979,0.369-17.915,1.75-26.894,2.206
			c-3.874,0.196-7.617-0.349-9.012,3.96c-2.084-1.134-3.994-3.1-5.661-2.912c-5.63,0.636-11.173,2.044-16.753,3.138
			c-3.409,0.668-6.824,1.306-10.239,1.947c-1.057,0.2-2.162,0.239-3.172,0.571c-9.718,3.195-19.373,6.587-29.146,9.598
			c-4.272,1.317-8.795,2.727-13.172,2.633c-12.94-0.279-26.099-0.002-38.744-2.294c-21.471-3.891-41.165-13.098-59.786-24.313
			c1.64,2.737,3.151,5.585,4.54,8.527c7.117,15.076,12.239,30.894,15.71,47.231c0.414,1.949,1.312,3.856,2.289,5.614
			c3.571,6.421,7.335,12.734,10.871,19.174c0.755,1.376,1.507,3.307,1.104,4.63c-0.562,1.846-1.964,4.354-3.467,4.727
			c-1.417,0.352-3.605-1.487-5.105-2.771c-0.802-0.686-0.743-2.294-1.288-3.378c-1.751-3.484-3.335-7.102-5.516-10.305
			c-1.272-1.87-3.563-3.049-5.395-4.538c-1.465,2.355-3.405,4.546-4.295,7.102c-1.743,5.001-2.688,10.276-4.36,15.308
			c-1.578,4.75-4.195,6.554-6.803,5.409c-2.702-1.188-2.94-4.449-0.515-8.947c3.812-7.067,3.014-14.055-0.834-20.651
			c-4.047-6.939-8.509-13.646-12.974-20.332c-11.716-17.546-27.48-29.581-47.914-35.51c-18.213-5.286-36.697-6.617-55.5-5.088
			c-2.133,0.174-4.318-0.108-6.465-0.33c-4.714-0.482-9.418-1.063-14.127-1.603c6.226,4.13,11.684,8.46,15.223,14.907
			c0.336,0.61,1.523,0.883,2.368,1.06c2.525,0.527,5.133,0.735,7.605,1.434c2.966,0.839,5.777,2.102,7.426-1.997
			c0.202-0.503,1.59-0.529,2.428-0.775c0.18,0.732,0.749,1.687,0.478,2.161c-2.031,3.561,0.156,5.397,2.528,7.55
			c2.297,2.086,4.073,4.735,6.224,6.999c1.948,2.053,3.909,4.18,6.201,5.801c2.721,1.926,5.802,3.343,8.989,5.13
			c0.075-0.049,0.524-0.346,0.984-0.626c2.438-1.486,4.929-1.161,5.652,1.507c0.419,1.547-0.687,4.386-2.029,5.33
			c-2.137,1.502-3.985-0.096-5.102-2.381c-0.407-0.835-1.238-1.567-2.044-2.089c-6.317-4.089-13.926-6.107-18.8-12.58
			c-1.444-1.918-4.495-2.651-6.845-3.856c-3.953-2.025-8.354-3.452-11.799-6.121c-4.593-3.557-9.033-4.674-14.379-2.444
			c-1.756,0.732-3.598,1.329-5.455,1.728c-3,0.643-4.769,2.196-5.363,5.342c-0.547,2.891-2.252,3.879-5.426,3.131
			c-1.987-0.469-4.622-0.187-6.381,0.802c-2.952,1.659-5.484,1.778-8.486,0.403c-7.707-3.528-13.866-8.241-14.725-17.504
			c-0.055-0.607-0.562-1.174-0.973-1.983c-1.795,0.763-3.433,1.458-5.164,2.193c1.615,1.323,3.137,2.146,4.038,3.41
			c1.382,1.942,1.718,4.176-0.878,5.567c-6.367,3.415-7.864,5.555-6.738,12.48c1.232,7.566,3.439,14.95,8.518,20.967
			c8.172,9.678,16.627,19.119,24.786,28.806c9.87,11.717,23.152,17.374,37.326,21.547c0.64,0.188,1.361,0.333,2.005,0.235
			c8.748-1.331,17.558-2.389,26.203-4.218c3.824-0.81,7.805-2.589,10.853-5.012c5.994-4.766,11.471-9.988,19.952-9.524
			c1.643,0.089,3.38-1.558,5.022-1.47c2.12,0.114,4.693,0.638,6.114,1.99c1.042,0.991,1.377,4.479,0.535,5.273
			c-1.168,1.104-3.73,0.823-5.707,0.921c-0.538,0.026-1.168-0.658-1.665-1.115c-2.977-2.732-5.952-2.456-8.703,0.197
			c-2.112,2.037-3.582,5.091-6.027,6.362c-7.791,4.05-15.719,7.994-23.954,10.982c-6.646,2.413-13.773,3.311-20.77,0.124
			c-1.036-0.471-3.061,0.057-4.041,0.848c-3.165,2.556-5.877,5.687-9.112,8.134c-2.369,1.79-6.367,2.205-7.685,4.404
			c-1.577,2.63-1.09,6.506-1.465,9.846c-0.244,2.165-0.145,4.423-0.752,6.475c-0.4,1.348-1.586,2.958-2.801,3.398
			c-0.869,0.315-3.088-0.87-3.413-1.826c-0.416-1.223,0.091-3.928,0.845-4.198c5.778-2.072,5.377-6.843,5.346-11.406
			c-0.01-1.579-1.05-3.158-1.028-4.729c0.032-2.34-1.106-2.823-3.03-2.734c-5.747,0.263-11.37,0.68-16.415,4.139
			c-1.532,1.049-4.634,1.679-5.952,0.836c-4.656-2.976-9.164-6.346-13.156-10.162c-9.466-9.053-20.193-15.424-33.423-16.572
			c-23.103-2.005-46.239-3.609-69.333-5.702c-6.574-0.598-13.051-2.284-19.564-3.51c-6.793-1.276-13.557-3.574-20.364-3.699
			c-14.579-0.271-29.196,0.256-43.76,1.103c-6.418,0.373-13.058,1.508-19.017,3.805c-3.781,1.457-7.34,2.206-11.007,2.006
			c0.771,0.451,1.545,0.896,2.302,1.367c11.334,7.045,21.801,15.471,32.838,23.014c3.662,2.501,7.891,4.194,11.924,6.119
			c4.535,2.162,9.19,4.07,13.707,6.267c5.017,2.437,9.926,5.095,14.905,7.61c1.579,0.8,3.315,1.312,4.837,2.201
			c6.303,3.687,6.921,10.352,1.486,15.283c-6.251,5.674-14.744,5.432-21.074-0.317c-3.407-3.093-6.843-6.413-10.846-8.536
			c-9.727-5.159-18.679-11.241-26.6-18.884c-1.118-1.078-2.623-2.052-4.11-2.404c-18.331-4.355-33.331-13.71-44.975-28.683
			c-2.271-2.918-6.019-5.261-9.563-6.521c-18.794-6.676-37.623-13.261-56.557-19.521c0.316,0.842,0.412,1.167,0.577,1.45
			c0.204,0.35,0.558,0.615,0.743,0.97c1.767,3.373-0.308,7.35-3.968,6.845c-4.199-0.579-8.329-1.933-12.368-3.307
			c-2.553-0.867-4.762-2.828-7.335-3.536c-12.313-3.388-24.698-6.514-37.808-9.93c0.543,1.12,1.12,1.741,1.063,2.298
			c-0.188,1.868,0.004,4.615-1.08,5.344c-1.418,0.953-4.518,1.133-5.823,0.179c-2.996-2.188-5.406-5.172-8.037-7.864
			c-8.258,0.461-16.521,0.845-24.762,1.52c-4.715,0.387-9.363,1.533-14.068,2.148c-3.041,0.397-6.125,0.522-9.195,0.634
			c-1.477,0.053-2.99-0.439-4.447-0.29c-6.875,0.708-7.598,0.151-7.767-6.806c-1.358-0.302-2.78-0.731-4.233-0.922
			c-15.815-2.084-31.698-1.271-47.323,0.89c-22.571,3.12-43.402-1.722-63.424-11.29c-7.962-3.804-15.407-8.739-22.909-13.445
			c-7.39-4.637-12.225-13.005-21.564-14.841c-2.367-4.458-8.887-1.569-11.11-6.282c-9.13-1.962-16.743-1.497-21.035,7.797
			c3.032,1.936,7.819,1.866,9.051,7.772c-12.723-8.031-25.53-6.844-38.723-3.717c1.124,2.133,2.35,3.838,4.012,4.656
			c4.492,2.21,9.235,3.902,13.759,6.055c9.996,4.757,19.96,9.604,28.285,17.118c0.464,0.419,0.471,1.344,0.689,2.034
			c-0.701,0.179-1.631,0.73-2.059,0.467c-1.259-0.775-2.244-1.98-3.469-2.828c-4.357-3.014-8.396-7.281-13.237-8.642
			c-10.448-2.933-19.415-8.372-28.559-13.729c-1.307-0.767-3.087-1.025-4.642-1.006c-4.485,0.057-9.124,1.215-13.419,0.418
			c-9.475-1.756-18.857-2.586-28.445-1.425c-11.404,1.381-21.521,5.771-30.838,12.138c0.465,0.324,0.922,0.698,1.361,1.133
			c1.061,1.046,1.967,2.272,2.816,3.503c1.975,2.857,4.307,4.165,7.982,3.149c9.063-2.506,18.238-4.603,27.301-7.108
			c5.467-1.512,10.705-1.902,15.869,0.91c3.443,1.874,4.35,4.623,3.195,8.267c-2.143,6.771-7.605,9.925-14.662,8.45
			c-1.834-0.384-3.914-1.352-5.504-0.852c-3.535,1.113-7.068,2.257-10.57,3.482c-0.365,1.125-0.969,2.192-1.273,2.176
			c-1.113-0.06-2.271-0.209-3.393-0.477c-1.957,0.739-3.9,1.51-5.824,2.326c-7.873,3.347-15.947,5.407-24.422,6.457
			c-6.326,0.784-12.535,2.474-18.818,3.641c-11.377,2.111-22.699,4.798-34.176,6.008c-11.641,1.229-23.443,0.885-35.17,1.376
			c-11.082,0.466-22.074,0.591-32.789-3.098c-3.184-1.095-6.34-2.24-9.475-3.43c-1.197,0.008-2.391-0.03-3.572-0.139
			c-17.33-1.582-34.738-3.822-51.207-10.281c-4.561-1.788-9.334-3.043-14.02-4.512c-17.748-5.563-32.096-15.146-41.988-30.104
			c-4.768-0.11-9.533-0.078-14.279,0.163c-6.061,0.308-12.061,2.127-18.039,3.487c-1.191,0.271-2.316,1.385-3.203,2.356
			c-2.867,3.142-5.182,6.97-8.506,9.469c-4.436,3.331-9.619,5.662-14.699,8.548c0.891,2.322,1.764,4.602,2.936,7.66
			c-5.678-2.128-4.617-6.157-4.402-9.648c-2.721-1.306-5.244-2.519-7.814-3.752c-2.352,3.06-4.654,6.272-7.203,9.277
			c-1.166,1.373-2.664,2.969-4.279,3.361c-4.371,1.067-4.957,4.28-5.49,6.833c2.113,1.739,4.822,2.91,4.924,4.275
			c0.209,2.782-2.617,2.72-4.832,3.017c-1.014,0.134-2.629,1.053-2.729,1.785c-0.406,2.987-1.027,6.228-0.275,9.027
			c1.197,4.46,3.508,8.612,5.162,12.967c0.416,1.093,0.121,2.456,0.152,3.696c-1.551-0.221-4.086,0.023-4.453-0.756
			c-0.893-1.89-1.113-4.276-0.977-6.423c0.172-2.739,1.316-5.509-2.846-6.325c-0.463-0.09-0.945-2.133-0.752-3.142
			c0.691-3.584,3.311-7.019,0.457-10.781c-0.248-0.328-0.148-1.065,0.014-1.536c0.818-2.398,2.041-4.714,2.479-7.171
			c0.371-2.092,0.457-4.648-0.467-6.4c-0.547-1.037-3.465-1.59-5.027-1.198c-7.77,1.946-14.215-3.014-21.432-3.73
			c-0.014-0.002-0.002-0.24-0.002-0.962c1.574,0,3.246-0.258,4.803,0.054c3.201,0.64,6.338,1.598,9.508,2.397
			c2.996,0.757,5.527,0.385,6.365-2.294c2.49,0.531,5.395,2.13,6.789,1.271c4.938-3.033,9.357-6.906,13.973-10.461
			c-0.252-0.354-0.504-0.709-0.756-1.064c-6.531,0.037-13.043,0.108-18.961,3.624c-3.664,2.178-7.541,2.881-11.797,1.831
			c-4.346-1.072-8.744-2.016-13.17-2.646c-12.975-1.845-25.875-0.406-38.729,1.381c-1.586,0.221-3.031,1.43-4.365,2.092
			c-1.314-0.344-2.893-1.13-4.451-1.095c-3.949,0.088-7.893,0.533-11.836,0.857c-3.551,0.295-6.033,1.375-6.682,5.647
			c-0.723,4.769-6.502,7.28-9.609,4.201c-3.824-3.79-8.143-3.957-12.824-3.515c-15.146,1.426-30.115,0.409-45.258-1.3
			c-14.461-1.633-29.234-1.001-43.848-0.576c-7.418,0.216-14.861,1.385-22.293,2.528c-21.893,3.367-42.986-2.025-63.732-8.646
			c-1.418-0.453-2.938-0.987-4.059-1.91c-4.59-3.788-9.365-7.443-13.416-11.761c-2.117-2.254-3.832-5.662-1.33-9.117
			c-7.314-2.464-10.631-5.736-10.146-10.431c0.16-1.534,0.732-3.556,1.838-4.351c2.283-1.644,5.053-2.613,7.848-3.971
			c0.037,0.197,0.031-0.224-0.125-0.579c-4.564-10.409-1-21.577,8.83-27.366c3.742-2.204,7.721-2.988,11.613-0.482
			c3.777,2.431,4.867,6.361,4.086,10.428c-0.893,4.645-2.475,9.166-3.924,13.688c-1.617,5.039-3.852,9.92-5.045,15.05
			c-1.725,7.413,3.994,13.971,11.57,14.999c14.443,1.961,29.117,3.272,43.141,6.96c14.273,3.753,28.424,6.075,43.133,6.282
			c5.764,0.081,10.83-1.094,15.539-3.898c4.787-2.85,9.314-6.154,13.844-9.414c4.85-3.489,6.707-7.839,4.328-13.868
			c-1.629-4.126,0.371-7.557,4-8.357c3.67-0.808,6.766,1.898,7.17,6.463c0.188,2.114,0.031,4.258,0.031,6.813
			c6.82-2.084,12.564-5.525,17.166-10.388c4.377-4.626,8.188-9.828,11.918-15.013c3.439-4.776,7.412-7.393,13.553-5.856
			c4.66,1.167,8.959-0.203,12.705-3.069c2.379-1.818,4.582-3.873,6.818-5.871c2.908-2.6,6.252-3.692,10.158-3.399
			c6.512,0.491,13.09,0.436,19.539,1.339c13.512,1.896,25.717,0.336,35.893-10.018c3.291-3.351,7.871-1.687,8.732,2.948
			c1.23,6.63,5.596,9.562,11.375,10.734c16.701,3.384,32.326,2.025,44.83-11.389c0.738-0.792,1.533-1.729,2.492-2.083
			c2.408-0.889,4.926-1.482,7.4-2.194c0.496,2.263,0.994,4.525,1.607,7.315c2.422,0,5.939-0.637,9.131,0.115
			c11.395,2.686,22.652,5.938,34.006,8.8c7.391,1.861,14.631,4.064,21.693,6.688c6.041-0.843,12.061-1.967,18.1-3.45
			c31.414-7.725,63.209-13.995,90.588-32.744c0.67-0.458,1.432-0.801,2.186-1.114c19.846-8.263,38.863-18.5,60.021-23.604
			c11.574-2.79,22.74-3.89,34.189,0.066c3.834,1.324,7.947,2.451,11.957,2.536c10.121,0.211,19.77,2.627,29.176,5.829
			c5.693,1.939,11.408,4.616,16.23,8.162c14.742,10.836,31.627,16.046,49.216,18.615c15.336,2.241,30.943,2.646,46.433,3.824
			c0.819,0.063,2.198,0.028,2.415-0.407c1.567-3.159,2.717-2.771,3.957,0.179c0.213,0.504,0.916,1.077,1.442,1.132
			c5.562,0.574,11.135,1.051,15.46,1.443c0.365-3.439-0.291-6.908,1.146-8.63c2.478-2.968,5.731-0.534,8.484,0.912
			c1.085,0.569,2.04,1.521,3.18,1.824c2.717,0.723,5.731,2.117,8.229,1.537c7.523-1.747,15.764-2.87,22.078-6.85
			c13.104-8.258,25.722-17.296,39.366-24.724c0.474-0.258,0.853-0.683,1.306-0.985c12.91-8.582,26.475-15.148,42.589-14.043
			c3.69,0.253,6.744-0.406,9.027-4.105c2.76-4.473,8.001-3.864,10.44,0.817c0.622,1.193,1.063,2.525,1.342,3.845
			c1.165,5.524,4.741,9.211,9.421,11.758c4.599,2.501,9.619,4.24,14.152,6.843c1.717,0.987,3.475,3.398,3.578,5.251
			c0.089,1.618-2,3.471-3.372,5.001c-0.528,0.59-1.729,0.577-3.442,1.08c4.32,5.616,7.807,11.079,12.195,15.679
			c0.474,0.495,0.953,0.984,1.427,1.479c1.386-0.611,2.944-0.789,4.767-0.297c4.156,1.123,6.192,4.245,6.906,8.301
			c0.265,1.505,0.292,3.073,0.505,4.581c4.276,4.379,8.573,8.74,12.884,13.085c19.208-0.16,38.42-0.302,57.616-0.919
			c2.686-0.087,5.675-2.377,7.796-4.407c1.51-1.445,1.842-4.151,2.623-6.322c1.358-3.765,3.57-6.472,7.945-6.46
			c6.32,0.017,9.677,4.984,7.309,11.359c-2.237,6.023-2.655,11.913,1.218,17.177c5.897,8.015,12.218,15.721,18.487,23.454
			c0.7,0.863,2.237,1.482,3.386,1.481c17.971-0.023,32.846-7.641,45.238-19.925c11.506-11.404,22.512-23.355,33.174-35.558
			c10.916-12.491,20.078-26.748,37.559-31.535c1.99-0.544,4.268-4.259,4.412-6.624c0.943-15.455,0.662-30.791-5.927-45.377
			c-2.586-5.728-4.107-11.937-6.455-18.94c6.167,5.06,10.358,10.297,12.011,16.921c2.373,9.506,4.196,19.153,6.038,28.783
			c0.97,5.067,1.338,10.248,2.241,15.331c0.681,3.837,3.162,5.754,7.002,7.046c4.814,1.619,9.904,3.632,13.676,6.873
			c6.898,5.929,14.221,7.018,22.482,4.64c7.85-2.258,15.618-4.79,23.473-7.023c5.604-1.592,10.895-2.009,15.179,3.485
			c1.139,1.461,4.178,2.145,6.283,2.03c11.134-0.601,21.396,1.957,30.921,7.645c2.866,1.713,5.802,3.035,8.817,3.895
			c2.867-3.15,5.619-6.412,8.19-9.859c14.943-20.03,34.854-32.142,59.168-37.437c5.568-1.213,10.894-3.512,16.44-4.855
			c3.62-0.876,7.884-2.204,11.076-1.089c6.734,2.353,13.063,5.986,19.314,9.526c1.685,0.953,2.477,3.468,3.705,5.247
			c2.381,3.442,4.301,7.374,7.267,10.209c7.491,7.162,15.438,13.851,23.254,20.669c1.002,0.874,2.233,1.711,3.494,2.029
			c11.57,2.933,23.144,5.865,34.776,8.535c4.514,1.035,6.564-1.458,5.773-6.104c-0.203-1.187,0.063-2.516,0.417-3.687
			c0.081-0.268,1.967-0.423,2.093-0.168c0.621,1.252,1.55,2.835,1.227,3.977c-0.794,2.801-2.217,5.424-3.515,8.411
			c1.535,0.477,3.046,1.096,4.616,1.403c4.238,0.831,8.547,1.341,12.743,2.33c4.255,1.005,8.401,2.463,12.617,3.641
			c0.571,0.16,1.403,0.054,1.891-0.269c1.637-1.089,3.173-2.329,4.747-3.511c0.44,0.251,0.88,0.5,1.32,0.752
			c-0.109-2.24-0.459-4.506-0.213-6.708c0.107-0.959,1.438-1.783,2.212-2.669c0.472,1.002,1.34,2.016,1.314,3.003
			c-0.033,1.303-0.795,2.58-1.203,3.88c-2.246,7.152-2.241,7.153,5.143,8.872c8.168,1.902,8.138,1.897,9.361-6.455
			c0.144-0.983,0.793-1.922,1.351-2.789c0.088-0.136,1.359,0.193,1.369,0.351c0.07,1.12,0.229,2.358-0.16,3.355
			c-0.913,2.348-2.118,4.583-3.711,7.925c14.352,2.312,27.828,4.482,41.306,6.653c0.257-0.429,0.513-0.857,0.769-1.284
			c-2.201-4.412-4.459-8.795-6.553-13.256c-0.384-0.817-0.349-2.038-0.027-2.893c0.157-0.418,1.641-0.806,2.126-0.523
			c0.799,0.465,1.617,1.404,1.828,2.286c0.771,3.222,1.184,6.529,1.982,9.742c0.21,0.839,1.295,1.973,2.044,2.027
			c0.825,0.06,2.113-0.77,2.531-1.562c1.807-3.435,2.917-6.955,0.727-10.795c-0.408-0.716,0.088-2.389,0.735-3.108
			c0.421-0.467,2.447-0.358,2.734,0.114c0.504,0.828,0.473,2.198,0.204,3.219c-0.252,0.951-1.616,1.75-1.606,2.606
			c0.058,5.05-0.956,9.604-5.569,12.853c0.207,0.373,0.412,0.746,0.619,1.119c18.606,0,37.211,0,55.864,0
			c0.599-1.782-1.691-5.333,2.523-5.141c0.655,0.031,1.159,3.347,1.686,4.992c4.059,0,8.697-0.102,13.328,0.028
			c4.805,0.134,8.988-1.224,13.03-3.885c7.403-4.874,14.764-9.946,22.66-13.902c2.446-1.226,4.905-2.47,7.384-3.684
			c-1.767-1.838-3.53-3.679-5.3-5.514c-1.536-1.594-3.922-2.645-6.106-3.288c-8.756-2.578-17.903-4.103-26.334-7.458
			c-25.098-9.988-46.053-25.253-59.219-49.641c-0.315-0.582-0.739-1.148-1.235-1.584c-4.057-3.566-8.249-6.984-12.184-10.679
			c-2.853-2.675-4.2-5.993-2.592-10.034c1.216-0.057,2.352-0.11,3.501-0.165c-2.045-2.898-4.416-5.4-5.744-8.37
			c-1.491-3.334-0.708-7.062,2.326-9.217c1.719-1.223,5.308-2.124,6.563-1.182c2.226,1.672,4.736,4.956,4.566,7.387
			c-0.308,4.382,1.429,6.866,4.371,9.299c1.149,0.949,2.185,2.082,3.089,3.27c7.759,10.199,18.212,15.251,30.797,16.502
			c7.613,0.757,14.897,3.067,20.641,8.154c5.574,4.939,10.744,10.45,15.459,16.226c7.242,8.873,14.025,18.124,20.829,27.346
			c2.243,3.04,4.846,3.271,8.217,2.709c1.737-0.291,3.96,0.125,5.461,1.042c3.458,2.115,6.643,2.985,10.632,1.241
			c5.392-2.354,10.688-2.289,15.943,1.242c0.559,0.376,1.158,0.705,1.777,1.007c13.988-2.882,28.146-5.08,42.203-7.673
			c10.758-1.984,21.519-3.675,32.502-1.499c24.494,4.853,48.058,12.267,70.271,23.926c13.157,6.905,27.425,10.044,42.326,9.229
			c14.104-0.771,28.015-4.664,41.539-2.217c8.094-11.606,14.223-23.843,27.277-30.225c-1.372-2.412-2.604-4.576-3.929-6.901
			c4.288,0.232,5.165,1.62,5.515,8.312c2.92,0.922,5.555,1.756,8.14,2.573c1.887-3.234,3.665-6.458,5.626-9.565
			c0.978-1.548,2.021-3.658,3.498-4.168c4.408-1.52,4.898-4.82,5.113-7.646c-2.324-1.523-4.084-2.677-5.843-3.829
			c1.631-1.146,3.278-2.271,4.887-3.448c0.821-0.602,2.267-1.321,2.243-1.94c-0.126-3.272,0.045-6.808-1.154-9.732
			c-1.999-4.873-4.96-9.352-7.707-14.345c2.165-3.034,4.407-3.102,6.275,0.782c0.697,1.45,0.564,3.363,0.575,5.064
			c0.015,2.492-0.422,5.005,3.291,5.355c0.663,0.063,1.5,1.744,1.655,2.769c0.172,1.131-0.164,2.441-0.604,3.545
			c-1.782,4.475,2.845,8.399,0.908,13.021c-0.832,1.988-0.581,4.511-0.502,6.78c0.108,3.104,2.753,5.31,5.224,3.862
			c3.999-2.342,7.817-1.336,11.825-0.874c3.094,0.355,6.228,0.333,9.334,0.591c0.638,0.053,1.233,0.604,1.849,0.925
			c-0.042,0.365-0.085,0.73-0.128,1.096c-1.625,0.085-3.263,0.343-4.871,0.218c-3.125-0.243-6.234-0.695-9.35-1.07
			c-3.197-0.385-5.797,0.279-6.588,3.939c-3.729-2.324-5.667-2.754-8.604-0.023c-4.207,3.915-7.764,8.53-11.598,12.846
			c0.313,0.52,0.625,1.039,0.937,1.559c2.851-0.616,5.702-1.23,8.384-1.81c-0.219,2.368-1.152,4.901-0.392,5.608
			c2.618,2.43,5.937,4.085,8.774,6.306c1.758,1.376,3.639,3,4.57,4.942c2.08,4.325,4.779,7.961,9.213,9.845
			c4.844,2.06,9.742,4.696,14.829,5.296c6.002,0.71,12.23-0.486,18.359-0.873c0.538-0.034,1.157-0.06,1.589-0.33
			c4.283-2.675,10.361-1.596,13.617-6.709c0.515-0.81,3.206-0.348,4.871-0.215c0.313,0.025,0.877,1.787,0.731,1.889
			c-1.348,0.933-2.754,1.903-4.292,2.403c-1.193,0.388-3.156-0.438-3.828,0.229c-6.145,6.115-15.107,4.942-22.131,8.735
			c-1.117,0.604-2.935,0.145-4.372-0.124c-8.013-1.496-15.962-4.044-24.018-4.418c-12.083-0.561-24.238,0.311-36.354,0.792
			c-1.225,0.049-2.869,1.348-3.501,2.511c-0.596,1.098-0.99,2.173-1.22,3.231c24.895-1.73,49.507-0.256,73.657,5.285
			c4.848-0.061,9.694-0.11,14.542-0.144c1.525-0.01,3.057,0.848,4.585,1.303c-0.058,0.495-0.115,0.989-0.173,1.484
			c-2.41,0.127-4.822,0.373-7.23,0.381c2.809,0.806,5.613,1.649,8.407,2.571c1.991,0.656,4.714,0.799,6.545-0.032
			c16.249-7.374,30.24-17.74,41.659-32.623c-8.648-5.92-17.973-3.121-25.521-3.581c-2.286,1.979-3.721,4.106-5.578,4.578
			c-1.814,0.463-3.035,0.687-3.981,2.474c-0.378,0.714-2.15,1.154-3.117,0.941c-0.767-0.17-1.81-1.561-1.759-2.346
			c0.066-1.014,0.875-2.332,1.76-2.873c2.369-1.449,4.947-2.555,8.011-4.08c-3.123-2.091-5.304-3.549-7.014-4.694
			c2.728,0,6.395-1.104,8.683,0.205c7.25,4.143,14.943,3.872,22.694,3.723c5.84-0.111,11.53-1.642,15.647-5.837
			c8.778-8.943,17.421-18.057,25.559-27.579c6.875-8.045,6.524-8.345,0.466-16.72c-3.065-4.238-1.284-8.97,3.941-9.799
			c2.514-0.396,5.17,0.215,7.738,0.042c3.88-0.261,8.194,0.153,11.521-1.418c8.838-4.175,17.33-9.111,25.798-14.022
			c7.157-4.151,9.912-11.216,11.616-18.875c0.797-3.578,1.733-7.147,2.93-10.608c2.092-6.04,4.157-12.117,6.777-17.935
			c1.57-3.49,3.699-7.015,6.437-9.619c3.036-2.89,7.202-3.141,11.054-0.889C2084.789-38.964,2086.697-34.832,2085.349-30.504z"/>
		<path fill="#FFFFFF" fill-rule="evenodd" clip-rule="evenodd" d="M1406.191,38.465c0.949-0.935,2.347-1.733,2.685-2.853
			c0.219-0.724-1.114-1.916-2.214-3.612c-1.448,1.636-3.007,2.628-3.015,3.629C1403.641,36.568,1405.278,37.519,1406.191,38.465z"/>
		<path fill="#FFFFFF" fill-rule="evenodd" clip-rule="evenodd" d="M1329.27,188.938c0.825,0.876,1.6,2.395,2.489,2.465
			c1.109,0.088,2.313-1.019,4.402-2.08c-1.87-1.487-2.953-3.011-3.925-2.942C1331.193,186.453,1330.254,188.021,1329.27,188.938z"/>
		<path fill="#FFFFFF" fill-rule="evenodd" clip-rule="evenodd" d="M1354.261,196.911c-1.018,0.033-2.667,1.549-2.772,2.552
			c-0.097,0.919,1.359,2.615,2.389,2.854c0.892,0.207,2.146-1.152,3.944-2.249C1356.183,198.526,1355.194,196.88,1354.261,196.911z"/>
		<rect x="-183.02" y="-386.36" fill="#FFFFFF" fill-rule="evenodd" clip-rule="evenodd" width="3390.339" height="516.884"/>
	</g>
</svg>
