<svg xmlns="http://www.w3.org/2000/svg" width="1316.802" height="319.848"><g fill="#fff"><path d="M793.48 233.7c.52-1.66 1.42-3.2 2.23-4.77.72-1.37 1.6-2.67 2.32-4.04 1.1-2.08 2.17-4.18 3.2-6.3.2-.4.3-.88.35-1.34.53-4.43 1.2-8.8 2.7-13.04 1.35-3.77 2.64-7.65 3.17-11.6 1.47-10.88 6.15-19.86 14.65-26.85 1.02-.85 1.93-1.86 2.78-2.9 2.98-3.6 8.9-5.3 13.4-3.77.4.14.83.3 1.13.57 2.26 2.06 5.1 2.58 7.93 3.3 7.6 1.97 15.24 2.03 22.7-.43 11.68-3.84 22.48-9.53 32.7-16.33 1-.65 1.98-1.3 3.02-1.85 4.27-2.24 8.55-4.48 12.86-6.65 5.9-2.97 11.84-5.82 18.35-7.3 8.04-1.84 15.58-1 22.83 3.16 8.05 4.62 15.02 10.6 21.47 17.1 6.8 6.87 13.47 13.84 20.14 20.83.33-.03.66-.05 1-.06 4.1-.12 8.23.05 12.34-.12 3.54-.14 7.05-.7 10.58-.86 1.52-.08 3 .13 3.54-1.56.82.44 1.57 1.22 2.23 1.14 2.2-.25 4.38-.8 6.58-1.23 1.34-.25 2.68-.5 4.02-.76.42-.07.85-.1 1.25-.22 3.82-1.26 7.62-2.6 11.46-3.78 1.7-.5 3.47-1.07 5.2-1.03 5.08.12 10.25 0 15.23.9 8.44 1.54 16.2 5.16 23.5 9.57-.64-1.07-1.23-2.2-1.78-3.35-2.8-5.93-4.8-12.15-6.18-18.57-.16-.77-.5-1.52-.9-2.2-1.4-2.54-2.88-5.02-4.27-7.55-.3-.54-.6-1.3-.43-1.82.22-.73.77-1.7 1.36-1.86.56-.14 1.42.58 2 1.1.32.26.3.9.5 1.32.7 1.37 1.32 2.8 2.18 4.05.5.72 1.4 1.2 2.13 1.77.58-.92 1.34-1.78 1.7-2.8.68-1.96 1.05-4.03 1.7-6 .63-1.88 1.66-2.6 2.68-2.14 1.07.47 1.17 1.75.2 3.52-1.48 2.78-1.17 5.53.34 8.12 1.6 2.73 3.35 5.37 5.1 8 4.6 6.9 10.8 11.63 18.85 13.96 7.15 2.08 14.42 2.6 21.8 2 .85-.06 1.7.05 2.55.13 1.86.2 3.7.42 5.56.64-2.44-1.63-4.6-3.33-5.98-5.87-.13-.24-.6-.35-.93-.4-1-.22-2.03-.3-3-.58-1.17-.33-2.27-.82-2.92.8-.08.18-.63.2-.96.3-.07-.3-.3-.67-.18-.86.8-1.4-.07-2.13-1-2.98-.9-.82-1.6-1.86-2.45-2.75-.77-.8-1.54-1.64-2.44-2.28-1.07-.77-2.3-1.32-3.54-2.03-.03.02-.2.14-.4.25-.94.58-1.92.46-2.2-.6-.17-.6.26-1.72.8-2.1.83-.58 1.56.05 2 .95.15.32.48.6.8.82 2.48 1.6 5.48 2.4 7.4 4.93.56.76 1.76 1.05 2.68 1.52 1.56.8 3.3 1.36 4.64 2.4 1.8 1.4 3.56 1.84 5.66.97.7-.3 1.4-.52 2.14-.68 1.18-.25 1.88-.86 2.1-2.1.23-1.14.9-1.53 2.15-1.23.77.2 1.8.08 2.5-.3 1.16-.66 2.15-.7 3.33-.17 3.03 1.4 5.46 3.24 5.8 6.9 0 .23.2.45.37.76.7-.3 1.35-.58 2.04-.87-.64-.52-1.24-.84-1.6-1.34-.54-.77-.67-1.65.35-2.2 2.5-1.34 3.1-2.18 2.64-4.9-.48-2.98-1.35-5.88-3.35-8.25-3.22-3.8-6.55-7.52-9.75-11.33-3.9-4.6-9.1-6.83-14.68-8.47-.25-.07-.54-.13-.8-.1-3.43.53-6.9.95-10.3 1.67-1.5.3-3.06 1-4.26 1.97-2.35 1.86-4.5 3.9-7.84 3.73-.64-.03-1.33.6-1.97.58-.85-.03-1.86-.24-2.42-.77-.4-.4-.54-1.76-.2-2.07.45-.44 1.46-.33 2.24-.37.2-.02.46.25.65.43 1.17 1.08 2.34.97 3.42-.08.82-.8 1.4-2 2.36-2.5 3.07-1.6 6.18-3.14 9.42-4.32 2.62-.95 5.42-1.3 8.17-.05.4.2 1.2-.02 1.6-.33 1.23-1 2.3-2.23 3.57-3.2.94-.7 2.5-.86 3.03-1.73.62-1.03.42-2.56.57-3.87.1-.85.06-1.74.3-2.55.15-.53.62-1.16 1.1-1.33.34-.13 1.2.34 1.34.72.16.47-.04 1.53-.33 1.64-2.27.8-2.12 2.7-2.1 4.48 0 .62.4 1.24.4 1.86 0 .92.44 1.1 1.2 1.08 2.25-.1 4.46-.27 6.45-1.63.6-.4 1.82-.66 2.34-.33 1.83 1.17 3.6 2.5 5.17 4 3.7 3.56 7.93 6.06 13.13 6.5 9.1.8 18.2 1.43 27.27 2.26 2.58.23 5.13.9 7.7 1.38 2.66.5 5.32 1.4 8 1.45 5.73.1 11.48-.1 17.2-.44 2.53-.15 5.14-.6 7.5-1.5 1.47-.57 2.87-.87 4.32-.8-.3-.16-.6-.34-.9-.53-4.47-2.77-8.58-6.08-12.92-9.05-1.44-.98-3.1-1.64-4.7-2.4-1.77-.85-3.6-1.6-5.38-2.47-1.97-.95-3.9-2-5.86-2.98-.62-.3-1.3-.52-1.9-.87-2.48-1.45-2.73-4.07-.6-6 2.47-2.24 5.8-2.14 8.3.12 1.34 1.22 2.7 2.52 4.26 3.36 3.83 2.02 7.35 4.42 10.46 7.42.44.43 1.03.8 1.62.95 7.2 1.7 13.1 5.4 17.68 11.28.9 1.14 2.37 2.06 3.77 2.56 7.4 2.63 14.8 5.2 22.24 7.68-.14-.33-.18-.46-.24-.57-.08-.14-.22-.24-.3-.38-.7-1.33.13-2.9 1.57-2.7 1.65.23 3.27.76 4.86 1.3 1 .35 1.86 1.12 2.88 1.4 4.84 1.33 9.7 2.56 14.86 3.9-.2-.44-.44-.68-.4-.9.06-.74 0-1.82.4-2.1.57-.38 1.8-.45 2.3-.07 1.18.86 2.13 2.03 3.16 3.1 3.25-.2 6.5-.34 9.74-.6 1.85-.16 3.68-.6 5.53-.85 1.2-.16 2.4-.2 3.62-.25.57-.03 1.16.17 1.74.1 2.7-.27 2.98-.05 3.05 2.7.53.1 1.08.27 1.66.35 6.22.82 12.46.5 18.6-.35 8.88-1.23 17.07.68 24.95 4.44 3.14 1.5 6.07 3.43 9.02 5.3 2.9 1.8 4.8 5.1 8.48 5.82.93 1.75 3.5.62 4.36 2.47 3.6.77 6.6.6 8.28-3.06-1.2-.76-3.08-.74-3.56-3.06 5 3.17 10.04 2.7 15.22 1.47-.44-.84-.92-1.5-1.57-1.83-1.77-.87-3.64-1.53-5.4-2.38-3.94-1.87-7.86-3.78-11.14-6.73-.2-.16-.2-.53-.28-.8.28-.07.64-.3.8-.18.5.3.9.77 1.38 1.1 1.7 1.2 3.3 2.87 5.2 3.4 4.1 1.16 7.64 3.3 11.23 5.4.5.3 1.22.4 1.83.4 1.76-.02 3.58-.48 5.27-.16 3.73.68 7.42 1 11.2.55 4.47-.55 8.45-2.27 12.12-4.78-.2-.12-.37-.27-.54-.44-.4-.4-.76-.9-1.1-1.38-.77-1.12-1.7-1.64-3.14-1.24-3.56 1-7.17 1.82-10.73 2.8-2.15.6-4.2.75-6.24-.35-1.37-.74-1.72-1.82-1.27-3.25.84-2.67 3-3.9 5.77-3.33.72.16 1.54.54 2.16.34 1.4-.43 2.78-.88 4.16-1.36.14-.44.38-.86.5-.85.44 0 .9.07 1.33.17.77-.3 1.54-.6 2.3-.9 3.1-1.33 6.26-2.14 9.6-2.55 2.48-.3 4.93-.97 7.4-1.43 4.47-.84 8.92-1.9 13.43-2.37 4.58-.5 9.22-.35 13.84-.55 4.35-.18 8.67-.23 12.9 1.22 1.24.43 2.48.88 3.72 1.35.47 0 .94 0 1.4.06 6.8.63 13.66 1.5 20.14 4.05 1.8.7 3.67 1.2 5.5 1.77 7 2.2 12.63 5.96 16.52 11.84 1.88.04 3.75.03 5.62-.06 2.38-.12 4.74-.84 7.1-1.37.46-.1.9-.55 1.25-.93 1.13-1.24 2.04-2.74 3.35-3.72 1.74-1.3 3.78-2.23 5.78-3.37-.35-.9-.7-1.8-1.16-3 2.23.84 1.82 2.42 1.73 3.8 1.07.5 2.06 1 3.08 1.47.92-1.2 1.83-2.46 2.83-3.65.46-.54 1.05-1.16 1.68-1.32 1.72-.42 1.95-1.68 2.16-2.68-.83-.7-1.9-1.15-1.94-1.7-.08-1.08 1.03-1.05 1.9-1.17.4-.05 1.04-.42 1.08-.7.16-1.18.4-2.45.1-3.55-.47-1.76-1.38-3.4-2.03-5.1-.16-.43-.04-.97-.06-1.46.6.1 1.6 0 1.76.3.35.74.43 1.68.38 2.53-.06 1.07-.5 2.16 1.13 2.48.18.04.37.84.3 1.24-.28 1.4-1.3 2.75-.2 4.23.1.13.07.42 0 .6-.3.95-.8 1.86-.97 2.82-.14.82-.18 1.83.2 2.52.2.4 1.35.62 1.96.47 3.06-.76 5.6 1.2 8.43 1.47 0 0 0 .1 0 .4-.62 0-1.27.1-1.9-.04-1.24-.25-2.48-.62-3.72-.94-1.18-.3-2.18-.15-2.5.9-1-.2-2.13-.83-2.68-.5-1.94 1.2-3.68 2.72-5.5 4.12.1.14.2.28.3.4 2.57 0 5.13-.03 7.46-1.4 1.45-.87 2.98-1.14 4.65-.73 1.7.43 3.44.8 5.18 1.05 5.1.73 10.18.16 15.23-.54.62-.08 1.2-.56 1.72-.82.5.14 1.13.45 1.75.44 1.55-.04 3.1-.2 4.65-.34 1.4-.12 2.37-.54 2.63-2.22.3-1.88 2.57-2.87 3.8-1.65 1.5 1.5 3.2 1.56 5.03 1.4 5.96-.57 11.84-.17 17.8.5 5.68.64 11.5.4 17.24.23 2.92-.1 5.85-.55 8.77-1 8.6-1.32 16.9.8 25.06 3.4.56.18 1.16.4 1.6.75 1.8 1.5 3.68 2.93 5.27 4.63.83.9 1.5 2.23.52 3.6 2.87.96 4.17 2.25 3.98 4.1-.06.6-.28 1.4-.72 1.7-.9.65-2 1.03-3.1 1.57 0-.08 0 .1.06.23 1.8 4.1.4 8.48-3.47 10.76-1.47.86-3.04 1.17-4.56.2-1.5-.97-1.93-2.5-1.62-4.1.35-1.84.97-3.62 1.54-5.4.64-1.98 1.52-3.9 1.98-5.92.68-2.9-1.56-5.5-4.54-5.9-5.68-.76-11.45-1.28-16.97-2.73-5.62-1.47-11.2-2.38-16.97-2.46-2.27-.03-4.26.43-6.1 1.53-1.9 1.12-3.67 2.42-5.46 3.7-1.9 1.38-2.63 3.1-1.7 5.46.64 1.62-.14 2.97-1.57 3.28-1.44.33-2.66-.73-2.82-2.53-.07-.83 0-1.67 0-2.68-2.7.8-4.95 2.17-6.76 4.08-1.72 1.82-3.22 3.86-4.7 5.9-1.34 1.88-2.9 2.9-5.32 2.3-1.83-.45-3.52.08-5 1.2-.93.73-1.8 1.54-2.68 2.32-1.14 1.02-2.46 1.45-4 1.34-2.55-.2-5.14-.17-7.67-.53-5.32-.73-10.12-.12-14.12 3.95-1.3 1.32-3.1.66-3.43-1.16-.5-2.62-2.2-3.77-4.48-4.23-6.56-1.33-12.7-.8-17.63 4.48-.3.3-.6.68-1 .82-.93.35-1.92.58-2.9.86-.2-.9-.4-1.78-.63-2.88-.95 0-2.33.25-3.6-.04-4.47-1.05-8.9-2.33-13.36-3.45-2.9-.73-5.74-1.6-8.52-2.63-2.38.33-4.74.77-7.12 1.35-12.35 3.04-24.85 5.5-35.62 12.88-.26.18-.56.3-.86.44-7.8 3.24-15.28 7.26-23.6 9.27-4.56 1.1-8.95 1.53-13.45-.03-1.5-.52-3.12-.96-4.7-1-3.98-.07-7.78-1.02-11.47-2.28-2.24-.77-4.5-1.82-6.4-3.2-5.78-4.28-12.42-6.32-19.34-7.33-6.03-.9-12.17-1.05-18.26-1.5-.32-.03-.86-.02-.95.15-.6 1.25-1.06 1.1-1.55-.07-.08-.2-.36-.4-.56-.43-2.2-.23-4.4-.42-6.1-.57-.14 1.35.12 2.72-.44 3.4-.98 1.16-2.26.2-3.34-.36-.43-.23-.8-.6-1.25-.72-1.07-.3-2.25-.83-3.23-.6-2.96.68-6.2 1.12-8.7 2.7-5.14 3.24-10.1 6.8-15.47 9.7-.18.1-.33.28-.5.4-5.1 3.37-10.42 5.96-16.76 5.52-1.44-.1-2.64.16-3.54 1.6-1.08 1.77-3.14 1.53-4.1-.3-.25-.48-.42-1-.53-1.52-.46-2.17-1.86-3.62-3.7-4.62-1.8-1-3.8-1.67-5.57-2.7-.68-.38-1.37-1.33-1.4-2.06-.04-.63.78-1.36 1.32-1.96.2-.24.68-.23 1.35-.43-1.7-2.2-3.07-4.36-4.8-6.17-.18-.2-.37-.38-.56-.58-.54.24-1.15.3-1.87.12-1.63-.44-2.43-1.67-2.72-3.27-.1-.6-.1-1.2-.2-1.8-1.68-1.72-3.37-3.43-5.06-5.14-7.55.07-15.1.13-22.66.37-1.05.03-2.23.93-3.06 1.73-.6.57-.73 1.63-1.03 2.5-.54 1.47-1.4 2.53-3.13 2.53-2.48 0-3.8-1.96-2.87-4.47.88-2.37 1.04-4.68-.48-6.76-2.33-3.15-4.82-6.18-7.28-9.22-.28-.34-.88-.58-1.33-.58-7.08 0-12.93 3-17.8 7.83-4.53 4.5-8.86 9.2-13.05 14-4.3 4.9-7.9 10.5-14.77 12.4-.78.2-1.68 1.66-1.74 2.6-.37 6.07-.26 12.1 2.34 17.84 1 2.25 1.6 4.7 2.53 7.44-2.4-1.98-4.06-4.04-4.7-6.64-.94-3.74-1.66-7.53-2.38-11.32-.38-2-.53-4.03-.88-6.03-.27-1.5-1.25-2.25-2.76-2.76-1.9-.64-3.9-1.43-5.38-2.7-2.7-2.33-5.6-2.76-8.84-1.83-3.08.9-6.14 1.9-9.23 2.78-2.2.62-4.28.8-5.97-1.37-.44-.57-1.64-.84-2.47-.8-4.38.25-8.42-.76-12.17-3-1.12-.67-2.28-1.2-3.46-1.53-1.13 1.24-2.2 2.52-3.22 3.88-5.88 7.87-13.7 12.64-23.27 14.72-2.2.48-4.28 1.38-6.47 1.9-1.4.35-3.1.88-4.34.44-2.65-.92-5.14-2.35-7.6-3.74-.66-.37-.97-1.36-1.45-2.06-.93-1.36-1.68-2.9-2.85-4.02-2.95-2.8-6.07-5.44-9.14-8.12-.4-.35-.87-.68-1.37-.8-4.55-1.16-9.1-2.3-13.67-3.36-1.78-.4-2.58.57-2.27 2.4.07.47-.04 1-.18 1.45-.03.1-.77.17-.82.07-.24-.5-.6-1.12-.48-1.57.3-1.1.87-2.13 1.38-3.3-.6-.2-1.2-.44-1.82-.56-1.66-.33-3.36-.53-5-.92-1.68-.4-3.3-.97-4.97-1.44-.2-.06-.54-.02-.73.1-.65.44-1.25.93-1.87 1.4-.17-.1-.34-.2-.52-.3.05.88.18 1.77.1 2.63-.06.38-.58.7-.88 1.05-.2-.4-.53-.8-.52-1.18 0-.5.3-1 .47-1.52.9-2.82.88-2.82-2.02-3.5-3.2-.74-3.2-.74-3.68 2.55-.06.38-.3.75-.53 1.1-.04.05-.54-.08-.54-.14-.03-.45-.1-.93.06-1.32.36-.92.83-1.8 1.46-3.1-5.64-.92-10.94-1.77-16.24-2.63-.1.17-.2.34-.3.5.86 1.74 1.75 3.47 2.57 5.22.15.3.14.8 0 1.13-.05.16-.63.32-.82.2-.3-.18-.63-.55-.7-.9-.3-1.26-.48-2.56-.8-3.82-.07-.32-.5-.77-.8-.8-.32-.02-.83.3-1 .62-.7 1.35-1.14 2.74-.28 4.25.16.28-.03.94-.3 1.22-.15.17-.95.13-1.06-.06-.2-.32-.2-.86-.08-1.26.1-.37.63-.7.63-1.03 0-1.98.4-3.77 2.2-5.05-.08-.15-.16-.3-.24-.44-7.32 0-14.64 0-21.97 0-.25.7.65 2.1-1 2.02-.26 0-.46-1.3-.67-1.96-1.6 0-3.42.04-5.24 0-1.9-.07-3.54.47-5.13 1.5-2.9 1.93-5.8 3.92-8.9 5.48-.97.48-1.94.97-2.92 1.45.7.72 1.4 1.45 2.1 2.17.6.62 1.53 1.04 2.4 1.3 3.43 1 7.03 1.6 10.34 2.92 9.87 3.93 18.1 9.93 23.28 19.52.13.23.3.46.5.63 1.58 1.4 3.23 2.73 4.78 4.2 1.12 1.04 1.65 2.34 1.02 3.93-.48.02-.93.05-1.38.07.8 1.14 1.74 2.12 2.26 3.3.6 1.3.28 2.77-.9 3.6-.7.5-2.1.85-2.6.48-.87-.66-1.86-1.95-1.8-2.9.13-1.73-.55-2.7-1.7-3.66-.46-.38-.87-.82-1.23-1.3-3.05-4-7.16-6-12.1-6.48-3-.3-5.86-1.2-8.12-3.2-2.18-1.95-4.22-4.1-6.07-6.4-2.85-3.47-5.52-7.1-8.2-10.74-.88-1.2-1.9-1.3-3.22-1.06-.68.1-1.55-.05-2.14-.4-1.36-.85-2.6-1.2-4.18-.5-2.12.92-4.2.9-6.27-.5-.2-.14-.45-.27-.7-.4-5.5 1.15-11.06 2-16.6 3.03-4.22.78-8.45 1.45-12.77.6-9.63-1.92-18.9-4.83-27.63-9.42-5.18-2.7-10.8-3.95-16.64-3.63-5.55.3-11.02 1.84-16.34.88-3.18 4.56-5.6 9.37-10.73 11.88.53.95 1.02 1.8 1.54 2.72-1.7-.1-2.03-.64-2.17-3.27-1.15-.37-2.18-.7-3.2-1-.74 1.26-1.44 2.52-2.2 3.75-.4.6-.8 1.43-1.4 1.64-1.72.6-1.92 1.9-2 3 .9.6 1.6 1.05 2.3 1.5-.64.46-1.3.9-1.92 1.36-.33.24-.9.52-.9.77.06 1.28 0 2.67.47 3.82.78 1.92 1.95 3.68 3.03 5.64-.85 1.2-1.73 1.24-2.47-.3-.27-.56-.22-1.3-.23-1.98 0-.98.17-1.97-1.3-2.1-.25-.03-.58-.7-.64-1.1-.06-.44.07-.96.25-1.4.7-1.75-1.12-3.3-.36-5.1.32-.8.22-1.8.2-2.68-.05-1.22-1.1-2.1-2.07-1.52-1.57.92-3.07.53-4.65.35-1.2-.14-2.45-.14-3.67-.24-.24-.02-.47-.23-.7-.36 0-.14.02-.3.04-.43.64-.03 1.28-.14 1.9-.1 1.24.1 2.46.3 3.7.43 1.25.16 2.27-.1 2.58-1.55 1.47.92 2.23 1.1 3.38 0 1.66-1.53 3.06-3.34 4.56-5.04-.12-.2-.24-.4-.36-.6-1.13.23-2.25.47-3.3.7.1-.93.45-1.93.15-2.2-1.03-.96-2.33-1.6-3.45-2.48-.7-.54-1.43-1.18-1.8-1.95-.8-1.7-1.87-3.13-3.62-3.87-1.9-.8-3.83-1.84-5.83-2.08-2.36-.28-4.8.2-7.22.34-.2.02-.45.03-.62.13-1.68 1.06-4.07.63-5.35 2.64-.2.33-1.26.15-1.9.1-.14 0-.36-.7-.3-.75.53-.36 1.08-.74 1.7-.94.46-.14 1.23.18 1.5-.08 2.4-2.4 5.93-1.94 8.7-3.44.43-.23 1.15-.05 1.7.05 3.16.6 6.3 1.6 9.46 1.74 4.76.22 9.54-.12 14.3-.3.48-.03 1.13-.54 1.38-1 .23-.43.4-.85.48-1.27-9.8.68-19.47.1-28.97-2.08-1.9.03-3.82.04-5.73.06-.6 0-1.2-.33-1.8-.5.02-.2.05-.4.07-.6.95-.05 1.9-.14 2.84-.15-1.1-.3-2.2-.65-3.3-1-.8-.27-1.86-.32-2.58 0-6.4 2.9-11.9 6.98-16.38 12.83 3.4 2.33 7.07 1.23 10.04 1.4.9-.77 1.46-1.6 2.2-1.8.7-.17 1.2-.26 1.56-.96.15-.28.84-.46 1.22-.37.3.06.72.6.7.92-.03.4-.35.92-.7 1.13-.93.57-1.94 1-3.15 1.6 1.22.83 2.08 1.4 2.75 1.85-1.07 0-2.5.44-3.4-.08-2.87-1.63-5.9-1.52-8.94-1.46-2.28.03-4.52.63-6.14 2.28-3.45 3.52-6.85 7.1-10.05 10.85-2.7 3.16-2.56 3.28-.17 6.57 1.2 1.67.5 3.53-1.55 3.86-1 .15-2.04-.1-3.05-.02-1.52.1-3.22-.06-4.53.56-3.47 1.64-6.8 3.58-10.14 5.5-2.82 1.64-3.9 4.42-4.57 7.43-.32 1.4-.7 2.8-1.16 4.18-.83 2.38-1.64 4.77-2.67 7.06-.62 1.37-1.45 2.76-2.53 3.78-1.2 1.14-2.83 1.24-4.35.35-1.3-.77-2.05-2.4-1.52-4.1zM881.37 108.47c-.52 1.66-1.4 3.2-2.23 4.77-.7 1.37-1.58 2.67-2.3 4.04-1.12 2.07-2.17 4.17-3.22 6.28-.2.4-.3.9-.34 1.35-.53 4.44-1.2 8.8-2.7 13.05-1.35 3.77-2.64 7.65-3.17 11.6-1.46 10.88-6.14 19.86-14.64 26.85-1.03.85-1.94 1.86-2.8 2.9-2.97 3.58-8.88 5.28-13.37 3.77-.42-.14-.86-.3-1.16-.57-2.25-2.06-5.1-2.6-7.9-3.3-7.63-1.98-15.25-2.03-22.7.42-11.7 3.85-22.5 9.53-32.73 16.34-.97.65-1.96 1.3-3 1.86-4.27 2.24-8.55 4.48-12.86 6.65-5.9 2.97-11.83 5.8-18.34 7.3-8.04 1.84-15.58 1-22.83-3.17-8.05-4.6-15.02-10.6-21.46-17.1-6.8-6.87-13.47-13.84-20.14-20.82-.33.02-.67.04-1 .05-4.12.12-8.24-.05-12.35.1-3.52.16-7.04.7-10.57.88-1.52.1-3-.12-3.54 1.57-.83-.45-1.58-1.22-2.24-1.15-2.2.25-4.4.8-6.6 1.24-1.33.26-2.67.5-4 .76-.43.08-.86.1-1.26.23-3.82 1.26-7.62 2.6-11.46 3.77-1.68.52-3.46 1.07-5.18 1.04-5.1-.1-10.26 0-15.23-.9-8.45-1.53-16.2-5.15-23.5-9.57.63 1.07 1.22 2.2 1.77 3.35 2.8 5.93 4.8 12.15 6.18 18.57.16.77.5 1.52.9 2.2 1.4 2.53 2.88 5.02 4.27 7.55.3.54.6 1.3.44 1.82-.23.7-.8 1.7-1.38 1.85-.55.14-1.4-.6-2-1.1-.32-.26-.3-.9-.5-1.32-.7-1.37-1.32-2.8-2.18-4.05-.5-.74-1.4-1.2-2.12-1.8-.58.94-1.34 1.8-1.7 2.8-.67 1.97-1.05 4.05-1.7 6.03-.63 1.87-1.65 2.58-2.68 2.13-1.06-.47-1.16-1.75-.2-3.52 1.5-2.77 1.18-5.5-.33-8.1-1.58-2.74-3.34-5.37-5.1-8-4.6-6.9-10.8-11.63-18.83-13.97-7.16-2.08-14.43-2.6-21.83-2-.84.07-1.7-.04-2.54-.13-1.85-.2-3.7-.42-5.55-.63 2.44 1.63 4.6 3.33 5.98 5.86.13.24.6.35.93.42 1 .2 2.02.3 3 .56 1.16.34 2.27.84 2.9-.77.1-.2.64-.2.97-.3.07.28.3.66.2.84-.8 1.4.05 2.13.98 2.97.9.82 1.6 1.87 2.46 2.76.77.8 1.54 1.64 2.44 2.28 1.07.75 2.28 1.3 3.53 2 .03 0 .2-.12.4-.23.95-.6 1.93-.46 2.2.6.18.6-.26 1.7-.8 2.1-.83.58-1.55-.05-2-.95-.15-.33-.48-.62-.8-.82-2.48-1.6-5.47-2.4-7.4-4.95-.56-.75-1.76-1.04-2.68-1.5-1.56-.8-3.3-1.37-4.64-2.42-1.8-1.4-3.54-1.83-5.65-.95-.7.3-1.4.52-2.14.68-1.17.25-1.87.86-2.1 2.1-.2 1.14-.9 1.52-2.13 1.23-.8-.2-1.82-.07-2.5.3-1.17.67-2.17.7-3.35.17-3.03-1.4-5.45-3.24-5.8-6.88 0-.24-.2-.46-.37-.78-.7.3-1.35.57-2.03.86.63.52 1.23.85 1.58 1.34.55.77.68 1.65-.34 2.2-2.5 1.33-3.1 2.18-2.65 4.9.5 2.97 1.36 5.88 3.36 8.24 3.2 3.82 6.54 7.53 9.75 11.34 3.9 4.6 9.1 6.83 14.68 8.47.26.1.54.15.8.1 3.43-.52 6.9-.93 10.3-1.65 1.5-.32 3.07-1.02 4.26-1.97 2.36-1.88 4.52-3.93 7.85-3.75.64.04 1.32-.6 1.97-.58.83.05 1.84.25 2.4.8.4.38.54 1.75.2 2.06-.45.44-1.46.33-2.23.37-.22 0-.46-.26-.66-.44-1.17-1.07-2.34-.96-3.42.08-.83.8-1.4 2-2.37 2.5-3.08 1.6-6.2 3.16-9.43 4.33-2.6.95-5.42 1.3-8.17.05-.4-.2-1.2.02-1.6.33-1.23 1.02-2.3 2.25-3.57 3.2-.93.72-2.5.88-3.02 1.74-.6 1.04-.42 2.56-.57 3.88-.1.85-.06 1.73-.3 2.54-.15.53-.62 1.16-1.1 1.34-.34.12-1.2-.34-1.34-.72-.17-.48.03-1.55.32-1.65 2.28-.8 2.12-2.7 2.1-4.48 0-.63-.4-1.25-.4-1.86.02-.94-.43-1.12-1.2-1.1-2.25.1-4.46.28-6.44 1.64-.6.4-1.83.66-2.34.33-1.84-1.17-3.6-2.5-5.18-4-3.72-3.56-7.94-6.07-13.14-6.52-9.1-.8-18.18-1.42-27.27-2.24-2.58-.22-5.13-.9-7.7-1.37-2.66-.5-5.32-1.4-8-1.45-5.73-.1-11.48.1-17.2.43-2.53.16-5.14.6-7.48 1.5-1.5.58-2.9.87-4.33.8.3.17.6.35.9.53 4.46 2.77 8.58 6.1 12.92 9.05 1.44 1 3.1 1.65 4.68 2.4 1.8.86 3.62 1.6 5.4 2.47 1.97.96 3.9 2 5.86 3 .62.3 1.3.5 1.9.86 2.48 1.46 2.72 4.08.58 6.02-2.46 2.23-5.8 2.14-8.28-.12-1.34-1.22-2.7-2.52-4.27-3.36-3.83-2.03-7.35-4.42-10.46-7.42-.44-.43-1.03-.8-1.62-.95-7.2-1.7-13.1-5.4-17.68-11.28-.9-1.15-2.37-2.08-3.76-2.57-7.38-2.63-14.8-5.22-22.23-7.68.12.33.16.46.22.57.07.14.2.24.3.38.68 1.33-.14 2.9-1.57 2.7-1.66-.24-3.28-.77-4.87-1.3-1-.35-1.87-1.12-2.88-1.4-4.84-1.33-9.7-2.56-14.87-3.9.22.44.45.68.43.9-.08.73 0 1.82-.43 2.1-.55.38-1.77.45-2.3.07-1.17-.86-2.1-2.03-3.15-3.1-3.25.2-6.5.34-9.74.6-1.84.16-3.67.6-5.52.85-1.2.16-2.4.2-3.6.25-.6.02-1.2-.17-1.76-.1-2.7.27-3 .05-3.06-2.7-.53-.1-1.1-.27-1.66-.35-6.22-.82-12.47-.5-18.6.35-8.9 1.23-17.08-.68-24.95-4.44-3.13-1.5-6.06-3.44-9-5.3-2.92-1.8-4.82-5.1-8.5-5.82-.92-1.75-3.5-.6-4.36-2.46-3.6-.77-6.6-.6-8.28 3.06 1.2.76 3.07.74 3.56 3.06-5-3.16-10.04-2.7-15.23-1.46.44.84.92 1.5 1.58 1.83 1.76.87 3.63 1.53 5.4 2.38 3.94 1.88 7.86 3.8 11.13 6.74.2.16.2.53.27.8-.27.07-.64.3-.8.2-.5-.32-.9-.8-1.37-1.13-1.7-1.17-3.3-2.85-5.2-3.38-4.1-1.16-7.64-3.3-11.24-5.4-.5-.3-1.2-.4-1.82-.4-1.76.02-3.6.48-5.28.16-3.72-.7-7.4-1-11.18-.56-4.5.55-8.47 2.27-12.13 4.78.2.12.37.27.55.44.4.4.77.9 1.1 1.38.78 1.12 1.7 1.64 3.14 1.24 3.55-1 7.16-1.8 10.73-2.8 2.15-.6 4.2-.75 6.24.36 1.35.74 1.7 1.82 1.25 3.25-.84 2.66-3 3.9-5.76 3.32-.72-.16-1.54-.54-2.17-.34-1.4.44-2.8.9-4.16 1.37-.15.44-.4.86-.5.85-.44-.02-.9-.08-1.34-.2-.77.3-1.53.6-2.3.93-3.1 1.33-6.26 2.14-9.6 2.55-2.48.3-4.92.97-7.4 1.43-4.47.83-8.92 1.9-13.43 2.36-4.58.5-9.22.35-13.83.54-4.36.2-8.68.24-12.9-1.2-1.25-.44-2.5-.9-3.72-1.36-.47 0-.94-.02-1.4-.06-6.82-.62-13.67-1.5-20.14-4.04-1.8-.7-3.67-1.2-5.52-1.77-6.98-2.2-12.62-5.96-16.5-11.84-1.88-.04-3.76-.02-5.62.07-2.4.12-4.75.84-7.1 1.37-.47.1-.9.55-1.26.93-1.12 1.23-2.03 2.74-3.34 3.72-1.75 1.3-3.78 2.22-5.78 3.35.35.92.7 1.8 1.15 3.02-2.22-.84-1.8-2.42-1.72-3.8-1.07-.5-2.06-1-3.07-1.47-.92 1.2-1.82 2.46-2.82 3.65-.46.53-1.05 1.16-1.7 1.32-1.7.4-1.94 1.68-2.15 2.68.84.7 1.9 1.15 1.94 1.68.08 1.1-1.03 1.07-1.9 1.2-.4.04-1.03.4-1.07.7-.16 1.17-.4 2.44-.1 3.54.46 1.76 1.37 3.4 2.02 5.1.16.43.05.97.06 1.46-.6-.1-1.6 0-1.75-.3-.35-.74-.44-1.68-.4-2.53.08-1.07.53-2.16-1.1-2.48-.2-.04-.38-.84-.3-1.24.27-1.4 1.3-2.76.18-4.24-.1-.13-.05-.42 0-.6.34-.94.82-1.86 1-2.82.14-.82.17-1.83-.2-2.52-.2-.4-1.36-.62-1.97-.47-3.06.77-5.6-1.2-8.43-1.47 0 0 0-.1 0-.37.62 0 1.28-.12 1.9 0 1.25.26 2.48.63 3.73.95 1.18.3 2.17.15 2.5-.9.98.2 2.12.84 2.67.5 1.94-1.2 3.68-2.72 5.5-4.12-.1-.14-.2-.27-.3-.4-2.57 0-5.13.03-7.46 1.4-1.44.87-2.96 1.14-4.64.73-1.7-.42-3.44-.8-5.18-1.04-5.1-.73-10.17-.16-15.23.54-.63.1-1.2.57-1.72.83-.52-.15-1.14-.46-1.75-.45-1.56.04-3.1.2-4.66.34-1.4.1-2.37.53-2.63 2.2-.28 1.9-2.55 2.88-3.77 1.66-1.5-1.48-3.2-1.55-5.05-1.38-5.95.56-11.84.16-17.8-.5-5.68-.65-11.5-.4-17.24-.24-2.9.1-5.84.55-8.76 1-8.6 1.32-16.9-.8-25.07-3.4-.55-.18-1.15-.4-1.6-.75-1.8-1.5-3.67-2.94-5.27-4.64-.83-.88-1.5-2.22-.52-3.58-2.88-.97-4.18-2.26-4-4.1.07-.6.3-1.4.73-1.72.9-.64 1.98-1.02 3.08-1.56 0 .08 0-.1-.05-.23-1.8-4.1-.4-8.48 3.47-10.76 1.47-.85 3.04-1.16 4.57-.18 1.48.96 1.9 2.5 1.6 4.1-.35 1.83-.97 3.6-1.54 5.4-.63 1.97-1.5 3.9-1.98 5.9-.68 2.92 1.57 5.5 4.55 5.9 5.68.77 11.45 1.3 16.96 2.74 5.62 1.48 11.18 2.4 16.96 2.47 2.27.03 4.26-.43 6.12-1.53 1.88-1.12 3.66-2.42 5.44-3.7 1.9-1.38 2.64-3.1 1.7-5.46-.64-1.62.15-2.97 1.58-3.28 1.44-.32 2.66.74 2.8 2.54.1.83.03 1.67.03 2.68 2.67-.82 4.93-2.17 6.74-4.1 1.72-1.8 3.22-3.85 4.68-5.9 1.36-1.87 2.92-2.9 5.33-2.3 1.84.46 3.53-.07 5-1.2.93-.72 1.8-1.52 2.68-2.3 1.14-1.03 2.46-1.46 4-1.35 2.56.2 5.14.17 7.68.53 5.32.74 10.12.13 14.12-3.94 1.3-1.32 3.1-.66 3.44 1.16.48 2.6 2.2 3.76 4.47 4.22 6.57 1.33 12.7.8 17.63-4.48.3-.3.6-.68.98-.82.94-.35 1.93-.58 2.9-.86.2.9.4 1.78.64 2.88.95 0 2.33-.25 3.6.04 4.47 1.06 8.9 2.34 13.36 3.46 2.9.73 5.76 1.6 8.53 2.63 2.38-.33 4.75-.77 7.12-1.35 12.34-3.04 24.85-5.5 35.6-12.88.28-.18.58-.3.87-.44 7.8-3.25 15.3-7.27 23.6-9.28 4.56-1.1 8.95-1.53 13.45.03 1.5.52 3.13.96 4.7 1 3.98.08 7.78 1.03 11.48 2.3 2.23.75 4.48 1.8 6.38 3.2 5.8 4.26 12.43 6.3 19.35 7.32 6.03.88 12.17 1.04 18.26 1.5.3.03.86 0 .94-.16.62-1.25 1.07-1.1 1.56.06.08.2.36.42.56.45 2.2.23 4.38.42 6.08.57.15-1.35-.1-2.7.45-3.4.97-1.16 2.25-.2 3.33.37.43.22.8.6 1.25.72 1.07.28 2.25.83 3.24.6 2.95-.7 6.2-1.13 8.68-2.7 5.15-3.24 10.1-6.8 15.48-9.72.18-.1.33-.26.5-.38 5.1-3.38 10.42-5.96 16.76-5.53 1.45.1 2.65-.16 3.55-1.6 1.07-1.77 3.13-1.53 4.1.3.24.48.4 1 .52 1.52.46 2.18 1.87 3.63 3.7 4.63 1.82.98 3.8 1.66 5.57 2.7.67.37 1.36 1.32 1.4 2.05.03.64-.8 1.37-1.33 1.97-.2.23-.68.23-1.35.42 1.7 2.2 3.07 4.36 4.8 6.17.18.18.37.38.56.57.54-.24 1.15-.3 1.87-.12 1.64.45 2.44 1.67 2.72 3.27.1.6.1 1.2.2 1.8 1.68 1.72 3.37 3.44 5.06 5.15 7.56-.07 15.1-.12 22.66-.36 1.04-.03 2.22-.93 3.05-1.73.6-.56.73-1.63 1.04-2.48.52-1.5 1.4-2.56 3.1-2.55 2.5 0 3.8 1.96 2.88 4.46-.87 2.38-1.04 4.7.48 6.77 2.32 3.15 4.8 6.18 7.27 9.22.28.33.88.57 1.34.57 7.06 0 12.9-3 17.78-7.83 4.53-4.5 8.86-9.2 13.05-13.98 4.3-4.92 7.9-10.52 14.77-12.4.78-.22 1.68-1.68 1.73-2.6.38-6.1.27-12.12-2.33-17.85-1-2.24-1.6-4.7-2.53-7.44 2.42 2 4.07 4.05 4.72 6.65.93 3.75 1.65 7.54 2.37 11.33.38 2 .53 4.03.88 6.03.28 1.5 1.26 2.26 2.77 2.77 1.9.64 3.9 1.43 5.37 2.7 2.72 2.34 5.6 2.76 8.85 1.83 3.07-.9 6.13-1.9 9.22-2.76 2.2-.63 4.28-.8 5.96 1.37.45.57 1.65.84 2.48.8 4.37-.24 8.4.77 12.15 3 1.14.68 2.3 1.2 3.48 1.53 1.13-1.23 2.2-2.52 3.22-3.87 5.88-7.88 13.7-12.64 23.27-14.72 2.2-.47 4.28-1.38 6.46-1.9 1.43-.35 3.1-.87 4.36-.43 2.64.92 5.13 2.35 7.6 3.74.65.4.96 1.38 1.44 2.08.94 1.35 1.7 2.9 2.86 4 2.95 2.83 6.07 5.46 9.14 8.14.4.34.88.67 1.38.8 4.55 1.15 9.1 2.3 13.67 3.35 1.77.4 2.57-.57 2.26-2.4-.08-.46.03-.98.17-1.45.03-.1.77-.16.82-.06.24.5.6 1.1.48 1.56-.3 1.1-.87 2.14-1.38 3.3.6.2 1.2.44 1.8.56 1.68.33 3.38.53 5.03.92 1.67.4 3.3.97 4.96 1.43.22.06.55.02.74-.1.65-.43 1.25-.92 1.87-1.4.17.1.34.2.52.3-.05-.87-.18-1.76-.1-2.63.06-.38.58-.7.88-1.05.2.4.53.8.52 1.18 0 .5-.3 1.02-.47 1.53-.9 2.8-.88 2.8 2.02 3.5 3.2.73 3.2.73 3.68-2.55.06-.38.3-.75.53-1.1.04-.04.54.1.54.15.03.44.1.93-.06 1.32-.35.92-.82 1.8-1.45 3.1 5.64.92 10.94 1.78 16.24 2.63.1-.17.2-.34.3-.5-.87-1.74-1.76-3.46-2.58-5.22-.15-.32-.14-.8 0-1.13.05-.17.63-.32.82-.2.32.17.64.54.72.9.3 1.25.47 2.55.78 3.82.08.33.5.77.8.8.33.02.84-.3 1-.62.7-1.35 1.15-2.73.3-4.24-.17-.27.02-.93.28-1.22.16-.18.96-.14 1.07.05.2.32.18.86.07 1.26-.1.37-.63.68-.63 1.02.02 1.98-.38 3.78-2.2 5.05.1.15.17.3.26.44 7.3 0 14.63 0 21.96 0 .24-.7-.66-2.08 1-2 .25 0 .45 1.3.66 1.96 1.6 0 3.42-.04 5.24 0 1.9.06 3.53-.47 5.12-1.52 2.9-1.92 5.8-3.9 8.9-5.47.97-.48 1.94-.97 2.92-1.45-.7-.72-1.4-1.44-2.1-2.16-.6-.63-1.53-1.04-2.4-1.3-3.43-1-7.03-1.6-10.34-2.93-9.87-3.93-18.1-9.93-23.3-19.52-.12-.22-.28-.44-.48-.6-1.6-1.42-3.24-2.76-4.8-4.2-1.1-1.06-1.64-2.37-1-3.96.47-.02.92-.04 1.37-.06-.8-1.14-1.74-2.13-2.26-3.3-.6-1.3-.3-2.77.9-3.62.68-.48 2.1-.83 2.6-.46.86.65 1.85 1.95 1.78 2.9-.12 1.72.57 2.7 1.72 3.66.45.37.86.82 1.22 1.28 3.05 4 7.16 6 12.1 6.5 3 .3 5.87 1.2 8.12 3.2 2.2 1.94 4.23 4.1 6.08 6.38 2.85 3.5 5.52 7.13 8.2 10.75.88 1.2 1.9 1.3 3.23 1.07.68-.12 1.55.05 2.14.4 1.35.84 2.6 1.18 4.17.5 2.12-.93 4.2-.9 6.27.48.22.15.46.28.7.4 5.5-1.13 11.07-2 16.6-3.02 4.23-.78 8.46-1.44 12.78-.6 9.63 1.92 18.9 4.84 27.63 9.42 5.18 2.72 10.8 3.95 16.65 3.63 5.54-.3 11-1.83 16.33-.87 3.18-4.56 5.6-9.38 10.73-11.9-.54-.93-1.03-1.8-1.55-2.7 1.7.1 2.04.64 2.18 3.27 1.15.36 2.2.7 3.2 1 .74-1.26 1.44-2.53 2.22-3.75.38-.6.8-1.44 1.37-1.64 1.73-.6 1.93-1.9 2-3-.9-.6-1.6-1.06-2.3-1.5.65-.46 1.3-.9 1.93-1.37.33-.25.9-.53.9-.77-.06-1.3 0-2.68-.47-3.83-.78-1.92-1.95-3.68-3.03-5.64.85-1.2 1.73-1.22 2.47.3.27.58.22 1.33.23 2 0 .98-.17 1.97 1.3 2.1.25.03.58.7.64 1.1.07.44-.06.95-.24 1.4-.7 1.75 1.12 3.3.36 5.1-.33.8-.23 1.78-.2 2.68.05 1.22 1.1 2.08 2.06 1.52 1.57-.93 3.07-.53 4.65-.35 1.2.15 2.45.14 3.67.24.25.02.48.24.73.37-.02.15-.04.3-.05.44-.64.03-1.3.13-1.92.08-1.23-.1-2.45-.27-3.68-.42-1.26-.15-2.28.1-2.6 1.55-1.45-.9-2.22-1.08-3.37 0-1.66 1.53-3.05 3.35-4.56 5.04.1.2.23.4.36.6 1.12-.23 2.24-.48 3.3-.7-.1.93-.46 1.92-.16 2.2 1.03.96 2.33 1.6 3.45 2.48.7.54 1.43 1.18 1.8 1.94.8 1.7 1.87 3.14 3.62 3.87 1.9.8 3.83 1.84 5.83 2.08 2.36.28 4.8-.2 7.22-.35.2 0 .45-.02.62-.12 1.7-1.05 4.08-.62 5.36-2.63.2-.32 1.26-.14 1.9-.1.14.02.36.7.3.75-.53.37-1.08.75-1.68.95-.47.15-1.25-.17-1.5.1-2.43 2.4-5.95 1.93-8.7 3.42-.45.23-1.17.05-1.73-.05-3.16-.6-6.3-1.6-9.46-1.74-4.75-.2-9.53.13-14.3.32-.47.02-1.12.53-1.37 1-.23.42-.4.84-.48 1.26 9.78-.68 19.46-.1 28.96 2.08 1.9-.03 3.8-.05 5.72-.06.6 0 1.2.33 1.8.5-.02.2-.05.4-.07.6-.94.05-1.9.14-2.83.15 1.1.3 2.2.64 3.3 1 .8.27 1.86.32 2.58 0 6.4-2.9 11.9-6.98 16.38-12.84-3.4-2.3-7.07-1.2-10.04-1.4-.9.8-1.47 1.62-2.2 1.8-.72.2-1.2.28-1.57.98-.14.28-.84.45-1.22.37-.3-.07-.7-.6-.68-.92.02-.4.34-.92.7-1.13.92-.57 1.93-1 3.14-1.6-1.23-.83-2.1-1.4-2.76-1.85 1.07 0 2.52-.44 3.4.08 2.87 1.63 5.9 1.52 8.94 1.46 2.3-.05 4.53-.65 6.15-2.3 3.44-3.52 6.84-7.1 10.04-10.85 2.7-3.16 2.57-3.28.18-6.57-1.2-1.67-.5-3.53 1.56-3.86.98-.15 2.03.1 3.04.02 1.52-.1 3.22.06 4.53-.56 3.47-1.64 6.8-3.58 10.14-5.5 2.8-1.65 3.9-4.42 4.56-7.44.3-1.4.68-2.8 1.15-4.17.84-2.37 1.65-4.76 2.68-7.05.62-1.37 1.45-2.76 2.53-3.78 1.2-1.14 2.84-1.24 4.36-.35 1.3.74 2.04 2.37 1.5 4.07zM614.3 135.6c.37-.38.92-.7 1.06-1.13.08-.3-.44-.76-.88-1.42-.56.64-1.18 1.03-1.18 1.42 0 .37.64.75 1 1.12zM584.05 194.76c.33.35.63.94.98.97.44.04.9-.4 1.73-.82-.73-.57-1.16-1.17-1.54-1.14-.4.02-.78.64-1.17 1zM593.88 197.9c-.4 0-1.05.6-1.1 1-.03.36.54 1.03.95 1.12.35.08.84-.45 1.55-.88-.65-.6-1.03-1.26-1.4-1.24zM-10.64-31.47h1333.22V171.8H-10.64z"/></g></svg>