<svg xmlns="http://www.w3.org/2000/svg" width="319.848" height="1000" viewBox="340.076 -340.076 319.848 1000" enable-background="new 340.076 -340.076 319.848 1000"><g fill="#fff"><path d="M518.34 59.84c-1.4-.43-2.7-1.18-4-1.86-1.14-.6-2.23-1.33-3.37-1.94-1.74-.92-3.5-1.8-5.26-2.68-.33-.17-.74-.24-1.12-.3-3.7-.43-7.35-1-10.9-2.25-3.16-1.1-6.4-2.2-9.7-2.64-9.12-1.23-16.63-5.14-22.48-12.26-.7-.86-1.56-1.62-2.42-2.33-3-2.5-4.43-7.44-3.16-11.2.1-.34.24-.7.48-.96 1.72-1.87 2.16-4.25 2.77-6.6 1.64-6.38 1.7-12.76-.37-19-3.2-9.77-7.97-18.82-13.67-27.37-.54-.82-1.1-1.65-1.55-2.52-1.88-3.57-3.75-7.15-5.57-10.75-2.47-4.94-4.85-9.9-6.1-15.35-1.53-6.72-.82-13.04 2.65-19.1 3.86-6.74 8.87-12.57 14.32-17.96 5.74-5.68 11.57-11.27 17.42-16.85-.03-.3-.05-.58-.06-.86-.1-3.44.05-6.9-.1-10.33-.1-2.94-.57-5.88-.72-8.84-.06-1.27.12-2.5-1.3-2.96.37-.7 1.02-1.32.96-1.87-.2-1.85-.68-3.67-1.04-5.5-.22-1.13-.43-2.25-.64-3.38-.06-.34-.08-.7-.2-1.04-1.04-3.2-2.15-6.36-3.14-9.58-.44-1.4-.9-2.9-.87-4.33.08-4.27 0-8.6.75-12.76 1.28-7.07 4.3-13.55 8-19.67-.9.54-1.84 1.03-2.8 1.5-4.97 2.33-10.18 4.02-15.55 5.16-.64.14-1.27.43-1.85.75-2.1 1.18-4.2 2.42-6.3 3.58-.46.25-1.1.5-1.53.36-.6-.18-1.43-.64-1.56-1.14-.1-.46.5-1.18.92-1.68.22-.26.75-.24 1.1-.42 1.15-.58 2.34-1.1 3.4-1.82.6-.4 1-1.17 1.5-1.77-.78-.5-1.5-1.13-2.35-1.42-1.64-.58-3.38-.9-5.03-1.44-1.57-.52-2.16-1.38-1.78-2.24.4-.9 1.46-.96 2.94-.17 2.33 1.26 4.63 1 6.8-.27 2.28-1.33 4.5-2.8 6.7-4.27 5.76-3.86 9.72-9.05 11.67-15.78 1.74-6 2.18-12.07 1.67-18.26-.05-.7.04-1.42.1-2.12.17-1.55.36-3.1.54-4.65-1.36 2.04-2.78 3.83-4.9 5-.2.1-.3.5-.35.78-.2.83-.26 1.7-.5 2.5-.26.98-.68 1.9.67 2.44.17.07.17.52.26.8-.25.06-.56.25-.72.16-1.16-.67-1.76.05-2.47.83-.7.77-1.56 1.35-2.3 2.06-.68.64-1.38 1.28-1.9 2.04-.65.9-1.1 1.9-1.7 2.96.02.02.1.17.2.32.5.8.4 1.62-.5 1.86-.5.14-1.43-.23-1.74-.67-.5-.7.02-1.3.77-1.68.27-.14.52-.42.7-.68 1.33-2.08 2-4.58 4.13-6.2.63-.46.87-1.47 1.27-2.24.66-1.3 1.13-2.75 2-3.88 1.18-1.5 1.55-2.97.82-4.73-.26-.58-.45-1.2-.58-1.8-.2-.98-.73-1.56-1.76-1.76-.95-.17-1.28-.73-1.03-1.78.15-.65.06-1.52-.26-2.1-.55-.97-.6-1.8-.14-2.8 1.16-2.52 2.7-4.55 5.76-4.83.2-.03.38-.2.64-.33-.25-.6-.48-1.13-.72-1.7-.43.53-.7 1.03-1.12 1.33-.64.45-1.37.56-1.83-.3-1.13-2.1-1.83-2.58-4.1-2.2-2.5.4-4.93 1.12-6.9 2.8-3.2 2.68-6.3 5.46-9.48 8.15-3.87 3.25-5.73 7.62-7.1 12.28-.07.2-.1.45-.08.66.44 2.87.8 5.77 1.4 8.6.25 1.27.84 2.58 1.64 3.58 1.56 1.97 3.28 3.77 3.13 6.56-.04.54.5 1.12.47 1.66-.03.7-.2 1.54-.65 2-.33.35-1.48.46-1.74.18-.36-.38-.27-1.22-.3-1.87 0-.17.22-.38.37-.54.9-.98.8-1.96-.07-2.87-.67-.7-1.67-1.18-2.1-2-1.32-2.55-2.62-5.16-3.6-7.87-.8-2.2-1.1-4.53-.04-6.83.15-.34-.02-1-.28-1.33-.84-1.04-1.87-1.94-2.68-3-.6-.78-.73-2.1-1.45-2.53-.86-.52-2.14-.36-3.24-.48-.72-.08-1.46-.05-2.14-.25-.44-.12-.97-.5-1.12-.9-.1-.3.3-1.03.6-1.13.4-.14 1.3.03 1.4.28.67 1.9 2.24 1.76 3.74 1.75.52 0 1.04-.34 1.56-.33.77 0 .93-.37.9-1-.1-1.9-.23-3.74-1.37-5.4-.34-.5-.55-1.53-.27-1.96.98-1.52 2.1-3 3.34-4.32 2.98-3.1 5.08-6.64 5.46-11 .65-7.6 1.18-15.2 1.87-22.8.2-2.17.75-4.3 1.16-6.45.42-2.23 1.17-4.46 1.2-6.7.1-4.8-.07-9.6-.35-14.4-.12-2.1-.5-4.3-1.25-6.25-.48-1.24-.73-2.42-.66-3.62-.15.25-.3.5-.45.76-2.32 3.73-5.1 7.17-7.57 10.8-.83 1.2-1.38 2.6-2.02 3.92-.7 1.5-1.34 3.03-2.06 4.5-.8 1.66-1.68 3.28-2.5 4.92-.27.52-.43 1.1-.73 1.6-1.2 2.06-3.4 2.27-5.03.48-1.85-2.06-1.77-4.85.12-6.94 1.02-1.12 2.1-2.25 2.8-3.56 1.7-3.2 3.7-6.15 6.22-8.76.35-.36.68-.86.8-1.35 1.42-6.03 4.5-10.97 9.43-14.8.96-.74 1.73-1.98 2.15-3.14 2.2-6.2 4.36-12.4 6.42-18.62-.28.1-.4.13-.48.2-.1.06-.2.17-.32.23-1.1.6-2.42-.1-2.25-1.3.18-1.37.63-2.73 1.08-4.06.28-.84.93-1.57 1.16-2.42 1.12-4.05 2.15-8.12 3.27-12.43-.36.16-.56.35-.75.34-.6-.07-1.52 0-1.76-.36-.32-.47-.38-1.5-.06-1.92.72-.98 1.7-1.77 2.58-2.64-.15-2.72-.28-5.44-.5-8.15-.12-1.55-.5-3.08-.7-4.63-.13-1-.18-2-.2-3.02-.03-.5.13-.98.08-1.46-.23-2.27-.05-2.5 2.24-2.56.1-.45.24-.9.3-1.4.7-5.2.42-10.42-.3-15.56-1-7.43.58-14.28 3.73-20.87 1.25-2.62 2.87-5.07 4.42-7.54 1.52-2.43 4.27-4.02 4.87-7.1 1.47-.77.52-2.92 2.07-3.65.65-3 .5-5.5-2.56-6.92-.64 1-.62 2.57-2.56 2.98 2.64-4.2 2.25-8.4 1.22-12.74-.7.37-1.26.77-1.53 1.32-.72 1.48-1.27 3.04-1.98 4.52-1.57 3.3-3.16 6.57-5.64 9.3-.13.16-.44.17-.66.24-.06-.23-.24-.54-.16-.68.26-.4.65-.74.93-1.14 1-1.44 2.4-2.76 2.84-4.36.96-3.43 2.75-6.38 4.52-9.4.25-.42.33-1 .33-1.52-.03-1.48-.4-3-.15-4.4.58-3.13.85-6.22.47-9.37-.46-3.75-1.9-7.07-4-10.14-.1.15-.23.3-.37.45-.34.36-.75.66-1.15.94-.94.64-1.37 1.4-1.04 2.62.83 2.98 1.52 6 2.34 8.98.5 1.8.63 3.53-.3 5.23-.6 1.13-1.52 1.43-2.72 1.05-2.23-.7-3.26-2.5-2.78-4.83.13-.6.45-1.3.28-1.82-.36-1.16-.74-2.32-1.14-3.48-.37-.12-.72-.3-.72-.42.02-.36.07-.74.16-1.1-.25-.66-.5-1.3-.77-1.93-1.1-2.6-1.77-5.24-2.1-8.03-.27-2.08-.83-4.13-1.2-6.2-.7-3.74-1.6-7.46-2-11.24-.4-3.83-.28-7.7-.44-11.57-.15-3.64-.2-7.25 1.02-10.78.36-1.05.74-2.1 1.13-3.12 0-.4.02-.78.05-1.17.53-5.7 1.26-11.43 3.4-16.85.57-1.5 1-3.07 1.47-4.6 1.83-5.85 4.98-10.57 9.9-13.83.04-1.57.03-3.13-.05-4.7-.1-2-.7-3.96-1.15-5.93-.08-.4-.45-.76-.77-1.06-1.03-.94-2.3-1.7-3.12-2.8-1.1-1.45-1.86-3.16-2.8-4.83-.77.3-1.52.58-2.53.97.7-1.87 2.03-1.52 3.18-1.45.43-.9.82-1.73 1.23-2.57-1-.78-2.05-1.53-3.04-2.37-.45-.38-.98-.87-1.1-1.4-.36-1.44-1.42-1.63-2.26-1.8-.57.7-.95 1.58-1.4 1.6-.92.08-.9-.85-1-1.58-.04-.33-.34-.86-.58-.9-.98-.13-2.05-.33-2.97-.1-1.47.4-2.84 1.17-4.27 1.7-.36.15-.8.05-1.22.06.08-.5 0-1.34.25-1.46.63-.3 1.42-.37 2.13-.32.9.05 1.8.43 2.08-.94.04-.15.7-.3 1.04-.25 1.18.24 2.3 1.1 3.55.16.1-.08.34-.05.5 0 .78.28 1.54.68 2.35.82.7.12 1.53.15 2.1-.15.35-.18.53-1.14.4-1.65-.64-2.56 1-4.68 1.23-7.06 0 0 .08 0 .32 0 0 .52.08 1.07-.02 1.58-.2 1.06-.53 2.1-.8 3.13-.24 1-.12 1.82.76 2.1-.17.82-.7 1.77-.4 2.23.98 1.62 2.26 3.08 3.43 4.6.1-.1.23-.17.35-.25 0-2.14-.04-4.28-1.2-6.23-.7-1.2-.94-2.48-.6-3.88.36-1.44.67-2.9.87-4.34.6-4.27.13-8.52-.46-12.75-.07-.5-.47-.98-.7-1.42.12-.44.38-.96.37-1.47-.02-1.3-.16-2.6-.27-3.88-.1-1.17-.45-2-1.86-2.2-1.57-.24-2.4-2.14-1.38-3.16 1.24-1.26 1.3-2.68 1.15-4.22-.47-5-.14-9.9.42-14.9.54-4.75.33-9.6.2-14.42-.08-2.44-.46-4.9-.84-7.34-1.1-7.2.67-14.14 2.85-20.97.14-.45.32-.95.62-1.32 1.25-1.5 2.45-3.08 3.87-4.42.75-.7 1.87-1.26 3-.43.8-2.4 1.9-3.5 3.44-3.34.5.04 1.18.23 1.44.6.54.74.86 1.66 1.3 2.58-.06 0 .08 0 .2-.05 3.42-1.5 7.1-.33 9 2.9.72 1.24.98 2.55.16 3.83-.8 1.24-2.1 1.6-3.43 1.34-1.53-.3-3.02-.8-4.5-1.3-1.67-.52-3.27-1.25-4.96-1.65-2.43-.56-4.6 1.32-4.92 3.8-.65 4.76-1.08 9.6-2.3 14.2-1.23 4.7-2 9.36-2.06 14.2-.03 1.9.36 3.56 1.28 5.1.94 1.58 2.03 3.07 3.1 4.56 1.15 1.6 2.58 2.22 4.56 1.44 1.36-.54 2.5.12 2.75 1.3.28 1.22-.6 2.24-2.1 2.37-.7.07-1.42.02-2.26.02.7 2.25 1.82 4.14 3.42 5.65 1.52 1.44 3.24 2.7 4.94 3.92 1.57 1.12 2.43 2.43 1.93 4.45-.4 1.53.06 2.95 1 4.18.6.78 1.28 1.5 1.94 2.24.86.96 1.22 2.06 1.12 3.35-.17 2.14-.16 4.3-.45 6.43-.63 4.44-.1 8.46 3.3 11.8 1.1 1.1.55 2.6-.98 2.88-2.18.4-3.14 1.84-3.53 3.74-1.1 5.5-.66 10.64 3.75 14.75.25.24.56.5.68.82.3.8.48 1.62.72 2.44-.75.16-1.5.32-2.4.52 0 .8.2 1.96-.05 3-.88 3.76-1.95 7.46-2.9 11.2-.6 2.43-1.33 4.8-2.2 7.14.28 1.98.65 3.96 1.14 5.95 2.53 10.33 4.6 20.8 10.77 29.8.15.22.26.47.36.72 2.72 6.53 6.1 12.78 7.77 19.74.92 3.8 1.28 7.5-.02 11.25-.44 1.28-.8 2.63-.84 3.95-.07 3.33-.86 6.5-1.9 9.6-.65 1.87-1.53 3.75-2.7 5.34-3.57 4.84-5.28 10.4-6.13 16.18-.72 5.05-.86 10.18-1.24 15.28-.02.27 0 .72.13.8 1.03.5.9.9-.07 1.3-.16.06-.35.3-.37.47-.2 1.83-.35 3.66-.48 5.1 1.14.1 2.28-.1 2.84.36.98.8.18 1.88-.3 2.8-.18.34-.5.66-.6 1.03-.24.9-.7 1.9-.5 2.7.57 2.48.94 5.2 2.25 7.27 2.72 4.32 5.7 8.47 8.14 12.96.1.15.23.28.33.43 2.82 4.23 4.98 8.7 4.62 14-.08 1.2.13 2.22 1.35 2.97 1.47.9 1.27 2.63-.27 3.43-.4.2-.83.35-1.26.45-1.82.38-3.03 1.56-3.87 3.1-.83 1.5-1.4 3.16-2.25 4.65-.33.57-1.12 1.15-1.73 1.18-.53.03-1.14-.66-1.65-1.1-.2-.18-.2-.58-.35-1.14-1.85 1.42-3.65 2.57-5.16 4-.16.17-.33.32-.5.48.2.46.27.97.1 1.57-.36 1.36-1.4 2.03-2.72 2.26-.5.1-1 .1-1.5.17-1.45 1.4-2.88 2.82-4.3 4.23.04 6.32.1 12.65.3 18.96.02.9.77 1.87 1.44 2.57.47.48 1.36.6 2.08.85 1.24.45 2.13 1.17 2.12 2.6 0 2.1-1.64 3.2-3.73 2.42-1.98-.74-3.92-.88-5.65.4-2.64 1.94-5.18 4.02-7.72 6.08-.28.23-.5.74-.5 1.1.02 5.93 2.53 10.82 6.57 14.9 3.75 3.78 7.68 7.4 11.7 10.9 4.1 3.6 8.8 6.62 10.37 12.37.18.66 1.4 1.4 2.18 1.45 5.1.3 10.13.22 14.93-1.95 1.9-.85 3.93-1.35 6.23-2.12-1.66 2.03-3.38 3.4-5.56 3.95-3.13.78-6.3 1.38-9.47 2-1.67.3-3.37.43-5.05.72-1.26.23-1.9 1.05-2.32 2.3-.53 1.6-1.2 3.27-2.26 4.5-1.95 2.28-2.3 4.7-1.52 7.4.74 2.6 1.57 5.14 2.3 7.73.53 1.84.67 3.58-1.14 5-.48.37-.7 1.37-.67 2.06.2 3.66-.64 7.04-2.5 10.17-.58.95-1 1.9-1.3 2.9 1.04.95 2.12 1.85 3.25 2.7 6.6 4.92 10.58 11.47 12.32 19.47.4 1.83 1.15 3.58 1.6 5.4.28 1.2.72 2.6.35 3.65-.78 2.22-1.98 4.3-3.14 6.35-.3.56-1.14.82-1.73 1.22-1.13.8-2.42 1.42-3.36 2.4-2.35 2.46-4.55 5.07-6.8 7.65-.28.33-.56.73-.67 1.14-.96 3.82-1.93 7.63-2.8 11.46-.34 1.48.48 2.16 2 1.9.4-.07.83.02 1.22.13.1.02.14.64.05.68-.4.2-.93.5-1.3.4-.93-.26-1.8-.72-2.77-1.15-.16.5-.36 1-.46 1.52-.28 1.4-.45 2.8-.77 4.2-.33 1.4-.8 2.75-1.2 4.14-.05.18-.02.45.1.6.35.55.76 1.06 1.14 1.58-.07.14-.15.28-.23.43.73-.03 1.48-.14 2.2-.06.32.04.6.47.88.73-.33.15-.66.44-1 .43-.4 0-.84-.26-1.26-.4-2.37-.73-2.37-.73-2.93 1.7-.63 2.7-.63 2.68 2.12 3.08.32.05.63.26.9.44.06.03-.05.45-.1.45-.37.02-.78.08-1.1-.05-.78-.3-1.52-.7-2.62-1.22-.76 4.72-1.47 9.15-2.2 13.6.16.07.3.16.44.24 1.45-.72 2.9-1.47 4.36-2.15.27-.14.67-.13.95-.02.14.05.27.54.17.7-.15.26-.46.53-.75.6-1.06.25-2.15.4-3.2.65-.28.07-.65.43-.67.67-.02.27.25.7.5.84 1.14.6 2.3.95 3.56.23.24-.13.8.03 1.03.25.15.13.1.8-.04.9-.27.16-.72.15-1.06.06-.3-.08-.58-.53-.86-.53-1.65.02-3.15-.3-4.22-1.83-.12.07-.24.14-.36.2 0 6.13 0 12.25 0 18.4.58.18 1.75-.57 1.7.82-.02.2-1.12.38-1.66.55 0 1.33.04 2.85 0 4.38-.05 1.58.4 2.95 1.27 4.28 1.6 2.44 3.27 4.86 4.58 7.46.4.8.82 1.6 1.22 2.43.6-.58 1.2-1.16 1.8-1.75.54-.5.88-1.3 1.1-2 .84-2.9 1.34-5.9 2.45-8.67 3.28-8.26 8.3-15.15 16.33-19.48.2-.1.38-.25.52-.4 1.17-1.34 2.3-2.72 3.52-4.02.88-.94 1.97-1.38 3.3-.85.02.4.03.77.05 1.15.94-.67 1.77-1.45 2.75-1.9 1.1-.48 2.32-.22 3.03.78.4.57.7 1.75.4 2.16-.56.74-1.64 1.56-2.44 1.5-1.45-.1-2.26.48-3.06 1.45-.32.38-.7.72-1.08 1.02-3.35 2.56-5.02 6-5.43 10.14-.25 2.5-1 4.9-2.68 6.8-1.64 1.82-3.45 3.52-5.35 5.07-2.92 2.4-5.96 4.62-9 6.86-1 .72-1.07 1.58-.9 2.7.1.56-.03 1.3-.33 1.8-.7 1.13-1 2.17-.4 3.5.76 1.76.74 3.5-.42 5.23-.12.2-.23.38-.33.6.95 4.6 1.67 9.25 2.52 13.87.65 3.54 1.2 7.08.5 10.7-1.6 8.05-4.05 15.8-7.9 23.12-2.26 4.32-3.3 9.02-3.02 13.92.25 4.64 1.53 9.22.73 13.67 3.82 2.67 7.85 4.7 9.95 8.98.8-.45 1.5-.85 2.27-1.3-.07 1.42-.53 1.7-2.73 1.83-.32.97-.6 1.83-.86 2.68 1.06.63 2.12 1.2 3.15 1.86.5.32 1.2.66 1.36 1.15.5 1.44 1.58 1.6 2.5 1.67.52-.77.9-1.34 1.27-1.92.38.53.75 1.08 1.14 1.6.2.27.43.75.64.74 1.08-.05 2.25 0 3.2-.4 1.6-.65 3.1-1.62 4.73-2.52 1 .7 1.02 1.45-.26 2.06-.48.23-1.1.2-1.66.2-.8 0-1.64-.15-1.76 1.07-.02.23-.57.5-.9.56-.38.05-.8-.06-1.17-.2-1.48-.6-2.77.93-4.3.3-.64-.28-1.47-.2-2.22-.17-1.02.03-1.74.9-1.27 1.7.77 1.33.44 2.58.3 3.9-.13 1.02-.12 2.05-.2 3.07-.02.2-.2.4-.3.6-.13 0-.25-.02-.37-.03-.02-.54-.1-1.07-.06-1.6.08-1.03.23-2.06.35-3.08.12-1.05-.1-1.9-1.3-2.17.76-1.24.9-1.87 0-2.84-1.3-1.38-2.8-2.55-4.22-3.8-.18.1-.35.2-.52.3.2.93.4 1.87.6 2.75-.78-.06-1.6-.37-1.85-.12-.8.86-1.33 1.96-2.06 2.9-.45.57-1 1.2-1.63 1.5-1.4.68-2.6 1.57-3.23 3.03-.67 1.6-1.54 3.2-1.74 4.88-.23 1.98.16 4.03.3 6.05 0 .17 0 .38.1.52.88 1.4.52 3.4 2.2 4.48.27.17.12 1.05.07 1.6 0 .1-.58.3-.62.24-.3-.44-.62-.9-.8-1.4-.12-.4.16-1.05-.06-1.27-2.02-2.02-1.63-4.97-2.88-7.28-.2-.37-.04-.97.04-1.44.5-2.64 1.33-5.25 1.46-7.9.18-3.98-.1-7.98-.26-11.96-.02-.4-.45-.95-.83-1.16-.36-.2-.7-.32-1.06-.4.56 8.2.07 16.3-1.75 24.24.02 1.6.04 3.2.05 4.78 0 .5-.28 1-.43 1.5-.16 0-.33-.03-.5-.05-.03-.8-.1-1.58-.12-2.37-.26.92-.54 1.84-.84 2.76-.2.66-.25 1.55.02 2.15 2.43 5.35 5.84 9.95 10.73 13.7 1.95-2.83 1.03-5.9 1.18-8.4-.65-.74-1.35-1.2-1.5-1.82-.16-.6-.23-1-.82-1.3-.22-.14-.37-.72-.3-1.04.06-.24.5-.58.77-.56.34.02.77.28.95.57.47.8.84 1.64 1.34 2.65.7-1.03 1.17-1.74 1.54-2.3 0 .9.37 2.1-.06 2.85-1.37 2.38-1.28 4.92-1.23 7.47.05 1.92.55 3.8 1.93 5.14 2.94 2.9 5.94 5.75 9.08 8.42 2.65 2.27 2.75 2.15 5.5.16 1.4-1 2.96-.43 3.23 1.3.13.82-.07 1.7 0 2.54.07 1.28-.06 2.7.45 3.8 1.38 2.9 3 5.7 4.62 8.48 1.36 2.35 3.7 3.26 6.2 3.82 1.2.26 2.36.57 3.5.96 2 .7 3.98 1.37 5.9 2.23 1.15.53 2.3 1.23 3.16 2.13.95 1 1.04 2.37.3 3.64-.64 1.1-2 1.7-3.42 1.27zM413.56-13.7c1.4.44 2.68 1.2 4 1.87 1.13.6 2.22 1.32 3.36 1.93 1.74.93 3.5 1.8 5.26 2.7.34.15.75.23 1.13.27 3.7.44 7.36 1 10.92 2.27 3.15 1.12 6.4 2.2 9.7 2.64C457-.8 464.53 3.13 470.4 10.24c.7.86 1.55 1.62 2.4 2.34 3.02 2.5 4.44 7.43 3.17 11.2-.1.33-.24.7-.48.95-1.73 1.88-2.17 4.27-2.78 6.62-1.64 6.38-1.68 12.76.37 19 3.2 9.77 7.96 18.8 13.66 27.37.54.82 1.1 1.65 1.55 2.52 1.9 3.58 3.76 7.15 5.58 10.76 2.48 4.93 4.86 9.9 6.1 15.34 1.54 6.73.83 13.04-2.64 19.1-3.86 6.75-8.87 12.57-14.32 17.97-5.74 5.7-11.57 11.28-17.4 16.86 0 .28.02.56.03.85.1 3.45-.05 6.9.1 10.33.12 2.96.57 5.9.72 8.85.06 1.28-.1 2.5 1.3 2.97-.37.7-1.02 1.3-.95 1.86.2 1.87.67 3.7 1.03 5.52.22 1.13.43 2.25.64 3.37.05.34.07.7.18 1.04 1.05 3.2 2.16 6.37 3.15 9.6.44 1.4.9 2.88.87 4.32-.1 4.26 0 8.6-.76 12.75-1.27 7.07-4.3 13.55-8 19.68.9-.54 1.84-1.04 2.8-1.5 4.97-2.34 10.18-4.02 15.55-5.16.63-.14 1.26-.43 1.84-.76 2.1-1.17 4.2-2.4 6.3-3.57.46-.26 1.1-.5 1.53-.38.6.2 1.43.65 1.56 1.15.1.46-.5 1.18-.92 1.68-.2.26-.74.24-1.1.42-1.14.58-2.33 1.1-3.4 1.8-.6.43-1 1.2-1.48 1.8.77.47 1.5 1.1 2.34 1.4 1.64.57 3.38.9 5.03 1.44 1.56.53 2.15 1.4 1.77 2.24-.4.9-1.46.97-2.94.17-2.33-1.24-4.63-.98-6.8.3-2.28 1.32-4.5 2.8-6.68 4.26-5.78 3.85-9.74 9.04-11.7 15.76-1.73 6-2.17 12.08-1.66 18.26.04.7-.05 1.42-.12 2.13-.16 1.56-.35 3.1-.53 4.66 1.36-2.05 2.8-3.85 4.9-5 .2-.12.3-.5.36-.8.18-.82.25-1.68.48-2.5.27-.97.7-1.9-.66-2.43-.16-.07-.17-.53-.25-.8.24-.06.55-.25.7-.16 1.18.67 1.78-.05 2.5-.83.68-.76 1.55-1.34 2.3-2.05.67-.65 1.37-1.3 1.9-2.05.64-.9 1.1-1.9 1.7-2.96-.03-.03-.12-.18-.22-.33-.5-.8-.38-1.62.5-1.86.5-.13 1.44.24 1.75.68.5.7-.03 1.3-.78 1.68-.27.13-.52.4-.7.67-1.33 2.08-2 4.58-4.13 6.18-.64.5-.88 1.5-1.28 2.27-.66 1.3-1.13 2.75-2 3.88-1.18 1.5-1.55 2.97-.82 4.73.25.58.44 1.18.57 1.8.2.98.73 1.56 1.76 1.76.95.18 1.28.74 1.03 1.78-.15.66-.06 1.53.26 2.1.55.98.6 1.8.14 2.8-1.16 2.53-2.7 4.56-5.76 4.84-.2.02-.4.2-.65.32.25.6.48 1.13.72 1.7.43-.53.7-1.03 1.12-1.33.63-.45 1.36-.56 1.82.3 1.12 2.1 1.83 2.58 4.1 2.2 2.5-.4 4.93-1.12 6.9-2.8 3.2-2.68 6.3-5.47 9.48-8.15 3.86-3.25 5.72-7.62 7.1-12.28.06-.2.1-.45.07-.66-.44-2.88-.8-5.78-1.4-8.62-.25-1.26-.84-2.57-1.64-3.57-1.56-1.97-3.28-3.78-3.13-6.57.03-.54-.5-1.1-.48-1.65.03-.7.2-1.54.65-2 .33-.35 1.48-.46 1.74-.2.37.4.28 1.24.3 1.9.02.17-.2.38-.36.54-.9.97-.8 1.95.07 2.85.68.7 1.68 1.18 2.1 1.98 1.33 2.57 2.63 5.18 3.6 7.9.8 2.17 1.1 4.52.05 6.82-.15.34.02 1 .28 1.33.84 1.04 1.87 1.93 2.68 3 .6.78.73 2.1 1.46 2.53.86.53 2.14.36 3.24.5.7.07 1.45.04 2.13.23.44.14.97.53 1.12.93.1.28-.3 1-.6 1.12-.4.14-1.3-.03-1.4-.28-.67-1.9-2.24-1.77-3.74-1.76-.5 0-1.03.35-1.55.34-.77 0-.93.36-.9 1 .1 1.9.23 3.74 1.37 5.4.34.5.55 1.52.27 1.96-1 1.53-2.1 3-3.35 4.33-2.98 3.1-5.08 6.64-5.46 11-.66 7.6-1.2 15.2-1.88 22.8-.2 2.17-.75 4.3-1.16 6.44-.42 2.25-1.17 4.47-1.2 6.7-.1 4.8.07 9.62.35 14.4.13 2.12.5 4.3 1.26 6.27.48 1.24.73 2.4.66 3.62.15-.27.3-.52.45-.77 2.32-3.73 5.1-7.17 7.57-10.8.83-1.2 1.38-2.6 2.02-3.93.7-1.5 1.34-3.02 2.06-4.5.8-1.66 1.68-3.27 2.5-4.9.27-.53.43-1.1.73-1.6 1.2-2.08 3.4-2.28 5.03-.5 1.86 2.07 1.78 4.86-.1 6.94-1.03 1.12-2.12 2.25-2.82 3.57-1.7 3.2-3.7 6.16-6.2 8.76-.37.37-.7.87-.8 1.36-1.44 6.03-4.5 10.96-9.44 14.8-.96.74-1.73 1.97-2.15 3.14-2.2 6.18-4.36 12.38-6.42 18.6.28-.1.4-.13.48-.18.1-.07.2-.2.32-.25 1.1-.58 2.42.1 2.25 1.3-.2 1.4-.64 2.75-1.1 4.08-.27.85-.92 1.57-1.15 2.42-1.12 4.05-2.15 8.13-3.27 12.44.37-.18.57-.37.76-.35.6.07 1.52 0 1.76.37.3.46.37 1.48.05 1.9-.72 1-1.7 1.8-2.58 2.66.15 2.7.27 5.43.5 8.14.12 1.55.5 3.08.7 4.63.13 1 .18 2.02.2 3.03.03.48-.13.98-.08 1.46.22 2.25.04 2.5-2.25 2.55-.1.44-.24.9-.3 1.4-.7 5.2-.42 10.42.3 15.56 1 7.44-.58 14.3-3.73 20.88-1.25 2.62-2.87 5.07-4.42 7.53-1.53 2.45-4.28 4.04-4.88 7.1-1.47.8-.52 2.93-2.07 3.67-.65 3-.5 5.5 2.56 6.92.65-1 .63-2.6 2.57-3-2.64 4.2-2.25 8.4-1.22 12.75.7-.37 1.26-.77 1.53-1.32.73-1.48 1.28-3.04 2-4.53 1.56-3.3 3.15-6.56 5.62-9.3.14-.16.45-.16.67-.23.06.23.24.53.16.68-.26.4-.65.73-.93 1.14-1 1.42-2.4 2.75-2.85 4.34-.96 3.44-2.75 6.4-4.52 9.4-.25.43-.33 1-.33 1.53.02 1.47.4 3 .14 4.4-.58 3.13-.85 6.2-.47 9.37.46 3.75 1.9 7.08 4 10.15.1-.17.22-.32.37-.46.34-.35.75-.65 1.15-.93.93-.64 1.36-1.4 1.03-2.62-.83-2.98-1.52-6-2.34-8.98-.5-1.8-.64-3.52.3-5.22.6-1.13 1.5-1.43 2.7-1.05 2.24.7 3.27 2.5 2.8 4.82-.14.6-.46 1.3-.3 1.8.37 1.18.75 2.34 1.15 3.5.37.1.73.3.72.4-.02.38-.07.76-.16 1.13.26.64.5 1.28.78 1.9 1.1 2.6 1.78 5.26 2.12 8.05.26 2.08.82 4.12 1.2 6.2.7 3.73 1.58 7.46 1.98 11.24.4 3.83.3 7.7.45 11.57.15 3.64.2 7.26-1.02 10.78-.35 1.05-.73 2.1-1.12 3.12 0 .4 0 .8-.04 1.18-.52 5.7-1.26 11.43-3.4 16.85-.57 1.5-1 3.07-1.47 4.6-1.83 5.85-4.98 10.57-9.9 13.82-.04 1.56-.03 3.13.05 4.7.1 2 .7 3.96 1.15 5.93.1.4.45.76.77 1.05 1.03.94 2.3 1.7 3.12 2.8 1.1 1.46 1.86 3.16 2.8 4.84.77-.3 1.52-.58 2.53-.97-.7 1.87-2.04 1.52-3.18 1.45-.43.9-.83 1.72-1.24 2.57 1 .77 2.06 1.53 3.05 2.37.46.38.98.88 1.1 1.4.36 1.44 1.42 1.64 2.26 1.8.56-.68.94-1.57 1.4-1.6.9-.08.9.85 1 1.58.03.34.33.87.57.9 1 .13 2.05.34 2.97.1 1.47-.4 2.84-1.16 4.27-1.7.37-.14.82-.05 1.23-.06-.07.5 0 1.35-.25 1.47-.62.3-1.4.36-2.1.32-.9-.06-1.83-.43-2.1.94-.02.14-.7.3-1.03.23-1.18-.22-2.3-1.1-3.55-.15-.1.1-.35.05-.5 0-.8-.27-1.55-.67-2.36-.82-.7-.12-1.53-.15-2.1.16-.35.18-.53 1.14-.4 1.65.64 2.56-1 4.68-1.23 7.05 0 0-.07 0-.3 0 0-.52-.1-1.06 0-1.58.22-1.05.54-2.08.8-3.13.25-.97.13-1.8-.75-2.08.17-.82.7-1.77.42-2.23-1-1.64-2.28-3.1-3.45-4.6-.1.07-.23.15-.35.24.02 2.15.04 4.3 1.2 6.24.7 1.2.94 2.48.6 3.88-.35 1.43-.66 2.87-.87 4.33-.6 4.26-.14 8.5.45 12.73.08.52.47 1 .7 1.44-.12.43-.38.95-.37 1.46.03 1.3.18 2.6.28 3.9.1 1.17.45 1.98 1.86 2.2 1.57.24 2.4 2.14 1.38 3.16-1.24 1.25-1.3 2.67-1.15 4.2.47 5 .13 9.92-.43 14.9-.54 4.76-.33 9.62-.2 14.43.08 2.44.46 4.9.84 7.33 1.1 7.2-.67 14.15-2.84 20.97-.15.47-.33.97-.63 1.34-1.26 1.5-2.46 3.08-3.88 4.4-.74.7-1.86 1.27-3 .45-.8 2.4-1.9 3.5-3.43 3.34-.52-.05-1.18-.24-1.45-.6-.54-.76-.86-1.67-1.3-2.6.06 0-.08 0-.2.05-3.42 1.5-7.1.34-9-2.9-.72-1.22-.98-2.53-.16-3.8.8-1.26 2.1-1.6 3.43-1.36 1.52.3 3 .82 4.5 1.3 1.66.53 3.26 1.26 4.95 1.65 2.44.56 4.6-1.32 4.94-3.8.64-4.77 1.07-9.6 2.3-14.2 1.22-4.7 2-9.36 2.05-14.2.03-1.9-.36-3.56-1.28-5.1-.95-1.6-2.03-3.08-3.1-4.57-1.15-1.6-2.6-2.2-4.57-1.42-1.36.54-2.5-.1-2.75-1.3-.27-1.2.62-2.23 2.13-2.37.7-.06 1.4 0 2.25 0-.7-2.25-1.82-4.14-3.42-5.65-1.52-1.44-3.23-2.7-4.94-3.93-1.58-1.13-2.44-2.43-1.94-4.45.4-1.54-.06-2.95-1-4.18-.6-.8-1.28-1.5-1.94-2.25-.85-.95-1.2-2.06-1.12-3.34.16-2.14.15-4.3.44-6.43.63-4.44.1-8.46-3.3-11.8-1.1-1.1-.55-2.6.98-2.88 2.18-.4 3.14-1.84 3.53-3.74 1.1-5.5.66-10.64-3.75-14.76-.26-.24-.57-.5-.7-.8-.28-.8-.47-1.64-.7-2.45.74-.16 1.48-.33 2.4-.53 0-.8-.2-1.95.04-3 .88-3.75 1.95-7.46 2.9-11.2.6-2.42 1.33-4.8 2.2-7.13-.28-1.98-.65-3.96-1.14-5.94-2.54-10.34-4.6-20.8-10.78-29.8-.15-.23-.26-.48-.36-.73-2.72-6.53-6.1-12.8-7.77-19.75-.93-3.8-1.3-7.48 0-11.25.45-1.26.82-2.6.85-3.93.07-3.33.86-6.5 1.92-9.6.63-1.87 1.5-3.75 2.68-5.34 3.57-4.85 5.28-10.4 6.13-16.2.73-5.04.87-10.18 1.26-15.27.02-.28 0-.73-.14-.8-1.04-.52-.9-.9.06-1.3.17-.08.35-.3.37-.48.2-1.83.35-3.67.48-5.1-1.12-.1-2.27.1-2.83-.37-.98-.8-.18-1.88.3-2.8.2-.34.5-.66.6-1.03.24-.9.7-1.9.5-2.7-.57-2.5-.94-5.2-2.25-7.28-2.72-4.3-5.7-8.46-8.13-12.95-.1-.16-.24-.3-.34-.44-2.82-4.25-4.98-8.7-4.62-14 .08-1.23-.13-2.23-1.35-2.98-1.48-.9-1.28-2.63.26-3.44.4-.2.83-.35 1.26-.44 1.82-.38 3.04-1.56 3.87-3.1.82-1.5 1.4-3.16 2.24-4.65.33-.57 1.12-1.15 1.73-1.18.54-.03 1.15.66 1.65 1.1.2.18.2.58.35 1.14 1.85-1.4 3.65-2.56 5.16-4 .17-.16.33-.32.5-.47-.2-.46-.27-.97-.1-1.57.36-1.37 1.4-2.04 2.72-2.27.5-.1 1-.1 1.5-.18 1.45-1.4 2.88-2.82 4.3-4.24-.04-6.32-.1-12.64-.3-18.96-.02-.88-.77-1.86-1.44-2.56-.46-.5-1.35-.6-2.07-.86-1.24-.45-2.13-1.18-2.12-2.62 0-2.08 1.65-3.18 3.74-2.4 1.98.73 3.92.87 5.65-.4 2.63-1.94 5.17-4.02 7.7-6.08.3-.23.5-.74.5-1.12 0-5.9-2.52-10.8-6.56-14.88-3.75-3.8-7.68-7.4-11.7-10.92-4.1-3.6-8.8-6.6-10.37-12.35-.18-.66-1.4-1.4-2.18-1.46-5.1-.3-10.14-.2-14.94 1.95-1.9.86-3.93 1.36-6.23 2.13 1.66-2.03 3.4-3.4 5.56-3.95 3.12-.78 6.3-1.38 9.47-2 1.66-.3 3.37-.43 5.04-.73 1.27-.22 1.9-1.04 2.33-2.3.53-1.6 1.2-3.26 2.26-4.5 1.94-2.27 2.3-4.68 1.5-7.4-.73-2.58-1.56-5.14-2.3-7.72-.52-1.85-.66-3.6 1.15-5 .48-.37.7-1.37.67-2.06-.2-3.68.64-7.05 2.5-10.2.58-.93 1-1.9 1.3-2.9-1.04-.93-2.1-1.84-3.25-2.68-6.6-4.92-10.57-11.47-12.32-19.47-.4-1.83-1.15-3.58-1.6-5.4-.28-1.2-.72-2.6-.35-3.65.77-2.22 1.97-4.3 3.13-6.36.32-.55 1.14-.8 1.73-1.22 1.13-.78 2.43-1.4 3.36-2.4 2.35-2.45 4.56-5.07 6.8-7.64.3-.33.56-.73.67-1.15.95-3.8 1.92-7.6 2.8-11.44.34-1.5-.48-2.17-2-1.9-.4.06-.84-.03-1.23-.15-.1-.02-.14-.64-.05-.68.4-.2.93-.5 1.3-.4.93.25 1.8.72 2.77 1.15.15-.5.35-1 .46-1.52.27-1.4.44-2.8.76-4.2.33-1.4.8-2.76 1.2-4.14.05-.2.02-.46-.1-.63-.35-.53-.75-1.04-1.14-1.56.08-.14.16-.3.24-.43-.73.03-1.48.15-2.2.07-.32-.03-.6-.47-.88-.72.33-.16.66-.44 1-.43.42 0 .84.26 1.26.4 2.36.73 2.36.73 2.92-1.7.63-2.7.63-2.68-2.12-3.08-.32-.05-.63-.26-.92-.44-.04-.03.06-.45.12-.45.36-.03.77-.08 1.1.05.77.3 1.5.7 2.6 1.22.77-4.72 1.48-9.15 2.2-13.6-.15-.07-.3-.16-.43-.24-1.45.73-2.9 1.47-4.36 2.16-.26.13-.66.12-.94 0-.14-.04-.27-.53-.17-.7.14-.25.45-.52.74-.6 1.06-.24 2.15-.38 3.2-.64.28-.07.65-.43.67-.67.03-.27-.24-.7-.5-.84-1.13-.58-2.3-.95-3.55-.23-.24.14-.8-.02-1.03-.24-.15-.14-.1-.8.04-.9.27-.16.72-.15 1.06-.06.3.08.58.53.86.53 1.66-.02 3.16.3 4.23 1.83.13-.07.25-.14.37-.2 0-6.13 0-12.25 0-18.4-.58-.18-1.75.57-1.7-.82.02-.2 1.1-.37 1.66-.54 0-1.34-.04-2.86 0-4.4.05-1.57-.4-2.94-1.27-4.27-1.6-2.45-3.28-4.87-4.58-7.47-.4-.8-.8-1.6-1.2-2.43-.6.58-1.22 1.16-1.82 1.74-.53.5-.87 1.3-1.08 2-.85 2.9-1.36 5.9-2.46 8.68-3.28 8.26-8.3 15.15-16.33 19.48-.2.1-.4.24-.53.4-1.18 1.34-2.3 2.72-3.52 4.02-.88.93-1.97 1.38-3.3.85-.02-.4-.03-.77-.05-1.15-.96.67-1.78 1.45-2.76 1.9-1.1.48-2.32.22-3.03-.78-.4-.56-.7-1.74-.38-2.16.55-.73 1.63-1.55 2.43-1.5 1.44.1 2.26-.47 3.06-1.44.33-.37.7-.72 1.1-1 3.34-2.57 5-6 5.42-10.15.25-2.5 1-4.9 2.68-6.8 1.63-1.83 3.44-3.53 5.34-5.08 2.92-2.4 5.96-4.62 9-6.86 1-.74 1.07-1.6.9-2.7-.1-.57.03-1.3.33-1.8.7-1.14.98-2.18.4-3.5-.76-1.77-.74-3.5.42-5.24.1-.2.22-.38.32-.6-.95-4.6-1.67-9.25-2.52-13.87-.66-3.54-1.2-7.08-.5-10.7 1.6-8.06 4.04-15.8 7.88-23.12 2.27-4.33 3.3-9.02 3.03-13.92-.24-4.63-1.52-9.2-.72-13.66-3.82-2.66-7.84-4.68-9.94-8.98-.8.46-1.5.86-2.27 1.3.07-1.4.53-1.7 2.73-1.82.3-.96.58-1.82.85-2.68-1.06-.62-2.13-1.2-3.15-1.85-.5-.3-1.2-.65-1.37-1.14-.5-1.45-1.6-1.6-2.52-1.68-.5.77-.87 1.34-1.25 1.92-.37-.53-.74-1.08-1.13-1.6-.2-.28-.44-.75-.64-.74-1.08.04-2.24-.02-3.2.38-1.6.65-3.08 1.63-4.72 2.53-1-.7-1.02-1.45.26-2.06.47-.22 1.1-.18 1.66-.18.82 0 1.65.14 1.77-1.08.02-.22.57-.5.9-.55.38-.06.8.05 1.17.2 1.48.58 2.77-.95 4.3-.3.64.27 1.47.18 2.22.16 1.02-.04 1.74-.9 1.27-1.72-.76-1.32-.43-2.57-.28-3.9.12-1 .1-2.04.2-3.06 0-.2.2-.4.3-.6.12 0 .24.02.36.03.03.55.1 1.08.07 1.6-.08 1.04-.23 2.07-.35 3.1-.13 1.04.1 1.9 1.3 2.16-.77 1.22-.9 1.86 0 2.83 1.27 1.37 2.8 2.54 4.2 3.8.2-.1.36-.2.53-.3-.2-.94-.4-1.88-.6-2.76.78.07 1.6.38 1.85.13.8-.87 1.34-1.96 2.07-2.9.45-.57 1-1.2 1.63-1.5 1.42-.68 2.62-1.57 3.24-3.03.67-1.6 1.54-3.2 1.74-4.88.23-1.97-.16-4.02-.3-6.04 0-.17 0-.38-.1-.52-.88-1.4-.52-3.4-2.2-4.48-.27-.17-.12-1.05-.07-1.6 0-.1.57-.3.6-.24.3.44.63.9.8 1.4.13.4-.15 1.05.07 1.27 2.02 2.02 1.63 4.97 2.88 7.28.2.37.04.97-.04 1.44-.5 2.64-1.32 5.25-1.45 7.9-.18 3.98.1 7.98.26 11.96.03.4.46.95.84 1.15.36.2.7.33 1.06.4-.57-8.18-.08-16.28 1.74-24.23-.02-1.6-.03-3.2-.05-4.78 0-.5.27-1 .42-1.5.17 0 .33.03.5.05.03.8.1 1.58.12 2.37.26-.93.54-1.85.84-2.77.22-.66.27-1.55 0-2.16-2.43-5.34-5.85-9.94-10.74-13.7-1.95 2.84-1.03 5.9-1.18 8.4.65.75 1.35 1.22 1.5 1.83.16.6.23 1 .82 1.3.23.13.38.72.3 1.04-.05.25-.5.6-.76.57-.34 0-.77-.27-.95-.57-.47-.77-.84-1.62-1.34-2.63-.7 1.03-1.17 1.74-1.54 2.3 0-.9-.38-2.1.05-2.85 1.37-2.4 1.28-4.92 1.23-7.47-.04-1.92-.54-3.8-1.92-5.14-2.94-2.9-5.94-5.74-9.08-8.4-2.64-2.28-2.74-2.16-5.5-.17-1.4 1-2.95.43-3.22-1.3-.13-.82.07-1.7 0-2.54-.07-1.28.06-2.7-.45-3.8-1.37-2.9-3-5.7-4.6-8.48-1.37-2.35-3.7-3.26-6.22-3.82-1.18-.26-2.35-.57-3.5-.96-1.97-.7-3.97-1.37-5.9-2.23-1.14-.52-2.3-1.22-3.15-2.12-.95-1-1.04-2.37-.3-3.64.64-1.1 2-1.72 3.43-1.28zM436.25 209.76c-.3-.3-.57-.77-.94-.88-.23-.07-.62.37-1.18.73.54.5.87 1 1.2 1 .3 0 .62-.53.93-.84zM485.76 235.07c.28-.27.78-.52.8-.8.04-.38-.33-.78-.68-1.46-.5.62-1 .98-.97 1.3.04.34.55.65.86.97zM488.38 226.85c0 .34.5.88.84.9.3.04.86-.43.94-.77.07-.3-.38-.7-.74-1.3-.5.54-1.05.86-1.04 1.17zM296.47-382.85h170.07v1115.5H296.47z"/></g></svg>