<svg xmlns="http://www.w3.org/2000/svg" width="319.848" height="1000" viewBox="340.076 -340.076 319.848 1000" enable-background="new 340.076 -340.076 319.848 1000"><g fill="#fff"><path d="M456.97 58.57c-.75-1.26-.66-2.63.3-3.63.85-.9 2-1.6 3.15-2.12 1.92-.86 3.92-1.54 5.9-2.23 1.14-.4 2.32-.7 3.5-.98 2.52-.56 4.84-1.46 6.2-3.82 1.62-2.78 3.24-5.58 4.62-8.48.5-1.1.38-2.52.46-3.8.06-.84-.14-1.72 0-2.54.26-1.72 1.82-2.3 3.2-1.3 2.77 2 2.87 2.1 5.52-.15 3.13-2.68 6.13-5.52 9.07-8.4 1.37-1.36 1.87-3.24 1.9-5.16.06-2.55.15-5.08-1.22-7.47-.43-.75-.06-1.95-.06-2.85.37.56.85 1.28 1.54 2.3.5-1 .87-1.85 1.34-2.63.18-.3.62-.56.95-.58.26-.02.72.33.77.58.07.32-.07.9-.3 1.03-.6.3-.67.7-.82 1.3-.16.62-.86 1.1-1.5 1.84.14 2.47-.78 5.54 1.17 8.4 4.9-3.77 8.3-8.37 10.73-13.72.28-.6.23-1.5 0-2.15-.3-.92-.57-1.85-.83-2.77 0 .8-.1 1.6-.13 2.38-.16.02-.32.04-.5.06-.14-.5-.42-1-.4-1.5 0-1.6 0-3.2.03-4.8-1.82-7.94-2.3-16.04-1.73-24.23-.35.07-.7.2-1.07.4-.38.2-.8.75-.82 1.15-.16 4-.45 8-.26 11.96.1 2.65.95 5.27 1.44 7.9.1.48.24 1.08.04 1.44-1.25 2.32-.86 5.26-2.87 7.3-.2.2.06.85-.07 1.24-.16.5-.48.97-.8 1.42-.02.05-.6-.14-.6-.24-.06-.55-.2-1.44.06-1.6 1.67-1.08 1.32-3.08 2.2-4.5.08-.13.1-.33.1-.5.13-2.03.53-4.07.3-6.05-.2-1.68-1.07-3.3-1.75-4.9-.62-1.45-1.82-2.34-3.24-3.02-.63-.3-1.16-.93-1.62-1.5-.73-.94-1.27-2.03-2.07-2.9-.22-.24-1.06.07-1.84.14.2-.88.4-1.82.6-2.76-.17-.1-.34-.2-.5-.3-1.43 1.25-2.95 2.42-4.24 3.8-.9.97-.76 1.6 0 2.84-1.2.26-1.42 1.1-1.3 2.17.13 1.02.28 2.04.36 3.07.05.53-.04 1.07-.07 1.6-.1.02-.23.03-.35.05-.1-.22-.28-.4-.3-.62-.1-1.02-.08-2.06-.2-3.07-.15-1.3-.48-2.57.3-3.88.47-.82-.26-1.7-1.28-1.72-.75-.03-1.58-.1-2.23.16-1.52.64-2.8-.88-4.28-.3-.37.15-.8.26-1.17.2-.35-.05-.9-.32-.92-.54-.12-1.22-.94-1.08-1.76-1.08-.56 0-1.2.04-1.67-.2-1.28-.6-1.25-1.35-.26-2.06 1.64.9 3.1 1.88 4.7 2.54.98.4 2.14.34 3.22.38.2 0 .44-.47.63-.74.4-.53.76-1.07 1.14-1.6.37.57.75 1.15 1.25 1.92.93-.08 2-.24 2.5-1.7.18-.47.88-.82 1.4-1.14 1-.64 2.07-1.23 3.13-1.85-.27-.86-.54-1.73-.84-2.7-2.2-.1-2.66-.4-2.74-1.8.77.43 1.48.84 2.27 1.3 2.1-4.3 6.13-6.32 9.95-8.98-.8-4.45.47-9.03.73-13.67.26-4.9-.77-9.6-3.04-13.93-3.83-7.3-6.27-15.06-7.86-23.12-.72-3.6-.16-7.15.5-10.7.84-4.62 1.57-9.28 2.5-13.88-.1-.2-.2-.4-.32-.58-1.16-1.73-1.18-3.48-.4-5.25.57-1.32.28-2.37-.4-3.5-.32-.5-.45-1.23-.36-1.8.2-1.1.1-1.97-.9-2.7-3.02-2.25-6.07-4.48-9-6.86-1.9-1.55-3.7-3.25-5.32-5.1-1.68-1.88-2.44-4.27-2.7-6.78-.4-4.14-2.06-7.58-5.42-10.13-.4-.3-.76-.64-1.07-1.02-.8-.96-1.62-1.53-3.06-1.43-.8.06-1.9-.77-2.44-1.5-.3-.4-.02-1.6.4-2.16.7-1 1.92-1.25 3.02-.76.98.44 1.8 1.22 2.75 1.9.02-.38.04-.76.06-1.16 1.32-.52 2.4-.08 3.3.86 1.2 1.3 2.33 2.67 3.5 4 .15.17.33.3.52.4 8.03 4.34 13.05 11.24 16.34 19.5 1.1 2.77 1.6 5.78 2.45 8.66.22.72.57 1.5 1.1 2 .6.6 1.2 1.17 1.8 1.75.4-.8.8-1.62 1.22-2.43 1.3-2.6 2.97-5.02 4.57-7.45.87-1.33 1.3-2.7 1.27-4.3-.04-1.5 0-3.04 0-4.37-.55-.18-1.64-.34-1.65-.56-.07-1.4 1.1-.63 1.7-.83 0-6.13 0-12.25 0-18.37-.14-.07-.26-.14-.38-.2-1.07 1.5-2.57 1.85-4.23 1.83-.27 0-.53.44-.85.53-.33.08-.78.1-1.06-.08-.16-.1-.2-.76-.04-.9.23-.2.78-.38 1.02-.24 1.26.72 2.42.35 3.55-.24.26-.14.53-.56.5-.83 0-.24-.38-.6-.65-.67-1.06-.26-2.15-.4-3.2-.65-.3-.07-.6-.34-.76-.6-.1-.16.03-.65.17-.7.27-.1.68-.1.94 0 1.47.7 2.9 1.44 4.37 2.17.15-.1.3-.17.43-.26-.72-4.44-1.43-8.87-2.2-13.6-1.1.53-1.83.92-2.6 1.23-.33.12-.73.07-1.1.05-.05 0-.16-.42-.12-.45.3-.2.6-.4.93-.45 2.75-.4 2.75-.4 2.12-3.08-.56-2.43-.56-2.43-2.9-1.7-.44.15-.86.4-1.3.4-.32.02-.65-.27-.98-.43.3-.25.56-.7.88-.72.72-.1 1.47.03 2.2.07-.08-.15-.16-.3-.24-.44.4-.52.8-1.02 1.16-1.56.1-.16.15-.44.1-.62-.4-1.4-.87-2.76-1.2-4.16-.33-1.38-.5-2.8-.77-4.2-.1-.5-.32-1-.47-1.5-1 .42-1.85.9-2.77 1.15-.38.1-.9-.2-1.3-.4-.1-.06-.04-.68.04-.7.4-.12.83-.2 1.22-.14 1.53.26 2.35-.4 2-1.9-.87-3.83-1.84-7.63-2.8-11.44-.1-.4-.38-.82-.67-1.15-2.24-2.57-4.44-5.2-6.8-7.65-.93-.98-2.23-1.6-3.36-2.4-.6-.4-1.42-.66-1.74-1.2-1.16-2.07-2.36-4.15-3.13-6.37-.37-1.05.07-2.45.36-3.64.43-1.8 1.2-3.57 1.6-5.4 1.73-8 5.7-14.55 12.3-19.47 1.14-.84 2.2-1.75 3.25-2.7-.3-.98-.72-1.95-1.28-2.9-1.88-3.13-2.72-6.5-2.52-10.17.04-.7-.2-1.7-.67-2.06-1.8-1.4-1.67-3.15-1.14-5 .73-2.58 1.56-5.14 2.3-7.72.8-2.72.43-5.13-1.52-7.4-1.07-1.24-1.73-2.9-2.26-4.5-.43-1.26-1.06-2.08-2.32-2.3-1.67-.3-3.38-.42-5.04-.74-3.17-.6-6.35-1.2-9.47-1.98-2.18-.55-3.9-1.93-5.57-3.96 2.3.78 4.35 1.28 6.23 2.13 4.8 2.17 9.84 2.26 14.92 1.95.78-.05 2-.8 2.18-1.45 1.57-5.75 6.27-8.77 10.38-12.36 4-3.5 7.94-7.13 11.7-10.9 4.04-4.1 6.54-9 6.55-14.9 0-.38-.2-.88-.5-1.1-2.53-2.08-5.07-4.16-7.7-6.1-1.73-1.27-3.67-1.13-5.65-.4-2.1.78-3.74-.32-3.74-2.4 0-1.44.9-2.17 2.12-2.62.72-.25 1.6-.36 2.08-.86.67-.7 1.43-1.7 1.45-2.57.2-6.32.24-12.64.3-18.96-1.43-1.42-2.87-2.83-4.3-4.24-.5-.07-1.02-.08-1.52-.16-1.33-.24-2.36-.9-2.73-2.28-.16-.6-.1-1.12.1-1.57-.16-.16-.32-.32-.5-.47-1.5-1.45-3.3-2.6-5.14-4.02-.16.57-.16.96-.35 1.14-.5.45-1.1 1.13-1.64 1.1-.6-.03-1.4-.6-1.72-1.17-.86-1.48-1.43-3.14-2.25-4.65-.84-1.54-2.06-2.72-3.87-3.1-.44-.1-.88-.24-1.27-.44-1.55-.8-1.75-2.52-.28-3.43 1.22-.75 1.44-1.75 1.35-2.97-.36-5.3 1.8-9.76 4.62-14 .1-.16.23-.28.32-.44 2.44-4.5 5.42-8.64 8.13-12.95 1.3-2.07 1.68-4.78 2.26-7.26.2-.82-.26-1.8-.5-2.7-.1-.38-.4-.7-.6-1.05-.48-.92-1.28-2-.3-2.8.57-.47 1.7-.26 2.84-.38-.13-1.42-.3-3.26-.48-5.1 0-.16-.2-.4-.37-.46-.98-.4-1.1-.8-.07-1.3.15-.07.16-.53.14-.8-.4-5.1-.52-10.23-1.26-15.27-.84-5.8-2.55-11.36-6.12-16.2-1.16-1.6-2.04-3.47-2.68-5.35-1.06-3.1-1.85-6.27-1.92-9.6-.03-1.32-.4-2.67-.83-3.93-1.3-3.77-.94-7.44-.03-11.25 1.68-6.96 5.05-13.22 7.77-19.75.1-.25.2-.5.36-.72 6.17-9 8.23-19.47 10.77-29.8.5-2 .86-3.97 1.14-5.96-.87-2.32-1.6-4.7-2.2-7.14-.95-3.73-2.02-7.44-2.9-11.2-.25-1.04-.04-2.2-.04-3-.92-.2-1.66-.35-2.4-.52.23-.8.42-1.64.72-2.43.1-.32.42-.58.68-.82 4.42-4.12 4.86-9.26 3.75-14.75-.4-1.9-1.35-3.34-3.53-3.75-1.53-.28-2.07-1.8-.97-2.87 3.4-3.35 3.92-7.36 3.3-11.8-.3-2.13-.28-4.3-.45-6.44-.1-1.28.27-2.38 1.12-3.34.66-.74 1.34-1.46 1.93-2.24.95-1.24 1.4-2.65 1-4.18-.5-2.02.37-3.33 1.94-4.46 1.7-1.23 3.42-2.48 4.94-3.92 1.6-1.52 2.73-3.4 3.42-5.65-.84 0-1.55.05-2.24 0-1.5-.15-2.4-1.16-2.13-2.37.27-1.2 1.4-1.85 2.76-1.32 1.98.8 3.42.18 4.56-1.42 1.08-1.5 2.16-2.98 3.1-4.56.92-1.55 1.3-3.2 1.28-5.1-.06-4.85-.83-9.5-2.06-14.2-1.22-4.6-1.65-9.44-2.3-14.2-.33-2.5-2.5-4.37-4.93-3.8-1.68.4-3.28 1.13-4.94 1.66-1.5.48-2.98 1-4.5 1.3-1.34.25-2.63-.1-3.43-1.35-.83-1.28-.57-2.6.15-3.83 1.9-3.23 5.58-4.4 9-2.9.12.05.26.05.2.04.44-.92.76-1.83 1.3-2.58.27-.36.93-.55 1.44-.6 1.54-.16 2.62.93 3.43 3.33 1.14-.82 2.26-.26 3 .44 1.42 1.33 2.62 2.9 3.87 4.4.3.38.48.88.63 1.35 2.18 6.83 3.95 13.77 2.84 20.97-.38 2.43-.77 4.88-.84 7.33-.14 4.8-.35 9.66.2 14.42.55 4.98.9 9.9.42 14.9-.15 1.53-.1 2.95 1.15 4.2 1.02 1.03.2 2.94-1.38 3.17-1.4.22-1.76 1.03-1.86 2.2-.1 1.3-.26 2.6-.3 3.9 0 .5.26 1.03.37 1.46-.22.44-.6.92-.7 1.44-.57 4.23-1.05 8.47-.44 12.74.2 1.46.52 2.9.87 4.33.35 1.4.1 2.67-.6 3.88-1.16 1.94-1.18 4.1-1.2 6.23.12.1.24.18.36.26 1.17-1.52 2.44-2.97 3.44-4.6.28-.45-.25-1.4-.42-2.23.88-.27 1-1.1.75-2.1-.26-1.04-.57-2.07-.78-3.12-.1-.5-.02-1.05-.02-1.57.23 0 .3 0 .3 0 .25 2.37 1.88 4.5 1.24 7.05-.13.52.05 1.48.4 1.65.57.3 1.4.28 2.1.16.8-.16 1.57-.56 2.36-.83.15-.05.4-.08.5 0 1.24.94 2.37.08 3.55-.15.33-.06 1 .1 1.04.25.27 1.37 1.18 1 2.08.93.7-.04 1.5.03 2.1.32.27.12.2.96.26 1.47-.4-.02-.86.08-1.22-.06-1.43-.54-2.8-1.3-4.26-1.7-.93-.25-2-.04-2.97.1-.24.02-.54.56-.58.9-.1.72-.08 1.65-1 1.58-.44-.03-.83-.93-1.4-1.62-.84.17-1.9.37-2.25 1.8-.13.54-.65 1.03-1.1 1.4-1 .85-2.05 1.6-3.06 2.38.42.85.82 1.68 1.25 2.57 1.15-.07 2.47-.42 3.17 1.45-1-.38-1.75-.67-2.52-.96-.95 1.67-1.72 3.37-2.8 4.83-.83 1.1-2.1 1.86-3.13 2.8-.32.3-.68.66-.77 1.05-.45 1.97-1.05 3.95-1.15 5.94-.08 1.56-.1 3.13-.05 4.7 4.92 3.25 8.07 7.97 9.9 13.8.48 1.55.9 3.12 1.5 4.63 2.1 5.4 2.85 11.13 3.37 16.83.03.4.05.8.04 1.18.4 1.04.78 2.08 1.14 3.13 1.22 3.52 1.18 7.14 1.02 10.8-.16 3.84-.05 7.73-.45 11.56-.4 3.76-1.27 7.5-1.97 11.23-.38 2.07-.94 4.1-1.2 6.2-.34 2.78-1.02 5.44-2.12 8.03-.26.63-.5 1.27-.75 1.9.08.38.13.76.15 1.13 0 .1-.34.3-.7.4-.42 1.16-.8 2.32-1.16 3.5-.16.5.15 1.2.28 1.8.5 2.32-.55 4.12-2.78 4.82-1.2.38-2.1.08-2.72-1.05-.92-1.7-.8-3.42-.3-5.22.83-2.98 1.52-6 2.34-8.98.33-1.2-.1-1.98-1.04-2.63-.4-.28-.8-.58-1.15-.93-.14-.13-.26-.28-.37-.43-2.1 3.06-3.54 6.4-4 10.14-.38 3.17-.1 6.25.47 9.37.27 1.4-.1 2.94-.13 4.42 0 .5.08 1.08.33 1.5 1.76 3.02 3.55 5.97 4.52 9.4.43 1.6 1.84 2.93 2.83 4.36.28.4.67.73.93 1.15.1.15-.1.45-.15.68-.22-.07-.52-.07-.66-.22-2.48-2.74-4.07-6.02-5.64-9.3-.7-1.5-1.26-3.06-2-4.54-.26-.54-.82-.95-1.52-1.32-1.03 4.34-1.42 8.56 1.22 12.74-1.94-.4-1.92-1.98-2.55-2.97-3.06 1.4-3.2 3.9-2.57 6.92 1.55.72.6 2.86 2.07 3.64.6 3.07 3.36 4.67 4.88 7.1 1.55 2.47 3.17 4.92 4.43 7.53 3.14 6.6 4.74 13.45 3.7 20.87-.7 5.14-.97 10.37-.28 15.57.06.5.2.96.3 1.4 2.3.06 2.47.3 2.24 2.56-.05.48.1.98.1 1.47-.04 1-.08 2.02-.2 3.02-.22 1.55-.6 3.08-.72 4.63-.22 2.7-.35 5.43-.5 8.15.9.86 1.87 1.65 2.6 2.64.3.43.24 1.45-.07 1.92-.24.34-1.15.28-1.76.34-.18.02-.4-.17-.76-.35 1.14 4.3 2.17 8.38 3.28 12.43.23.85.88 1.57 1.16 2.4.46 1.34.9 2.7 1.1 4.08.16 1.22-1.15 1.9-2.26 1.32-.12-.06-.2-.18-.32-.25-.1-.05-.2-.08-.48-.18 2.06 6.2 4.23 12.4 6.43 18.6.42 1.16 1.2 2.4 2.15 3.14 4.93 3.83 8 8.77 9.44 14.8.1.5.43.98.78 1.35 2.52 2.6 4.52 5.54 6.22 8.74.7 1.32 1.8 2.45 2.8 3.57 1.9 2.1 1.98 4.9.1 6.94-1.6 1.8-3.8 1.6-5.02-.48-.3-.5-.46-1.08-.72-1.6-.83-1.63-1.7-3.25-2.5-4.9-.73-1.5-1.36-3.02-2.07-4.5-.64-1.34-1.2-2.73-2.02-3.93-2.5-3.63-5.26-7.08-7.58-10.8-.15-.26-.3-.5-.45-.77.07 1.2-.18 2.38-.66 3.63-.76 1.95-1.13 4.13-1.26 6.24-.28 4.8-.45 9.6-.36 14.4.04 2.24.8 4.47 1.22 6.7.4 2.14.96 4.27 1.15 6.44.7 7.6 1.22 15.2 1.88 22.8.38 4.36 2.47 7.9 5.45 11 1.26 1.32 2.36 2.8 3.34 4.34.28.43.07 1.45-.27 1.95-1.14 1.66-1.28 3.5-1.36 5.4-.04.64.12 1 .9 1 .5 0 1.02.34 1.54.34 1.5.02 3.07.15 3.76-1.75.1-.25.98-.4 1.38-.28.3.1.7.84.6 1.13-.15.4-.68.8-1.12.92-.67.2-1.42.17-2.13.25-1.1.12-2.37-.04-3.24.48-.73.43-.87 1.75-1.46 2.53-.8 1.06-1.83 1.95-2.67 3-.26.32-.44.98-.28 1.32 1.04 2.3.74 4.65-.05 6.84-1 2.7-2.28 5.3-3.62 7.88-.42.8-1.42 1.3-2.1 1.98-.86.9-.95 1.9-.05 2.86.15.17.37.37.36.55-.03.66.06 1.5-.3 1.9-.26.27-1.4.16-1.74-.2-.44-.45-.6-1.3-.65-2-.03-.54.5-1.1.48-1.65-.15-2.8 1.57-4.6 3.14-6.56.8-1.02 1.38-2.33 1.65-3.58.6-2.85.95-5.75 1.38-8.63.04-.22 0-.46-.07-.67-1.38-4.66-3.24-9.03-7.1-12.28-3.18-2.68-6.3-5.46-9.47-8.15-1.98-1.67-4.4-2.4-6.9-2.8-2.28-.37-2.98.12-4.1 2.2-.46.87-1.2.76-1.84.3-.4-.3-.68-.8-1.12-1.33-.24.57-.47 1.1-.72 1.7.27.14.45.3.65.32 3.05.27 4.6 2.3 5.76 4.84.44.98.4 1.82-.14 2.8-.33.57-.42 1.43-.27 2.1.24 1.03-.1 1.6-1.04 1.77-1.03.2-1.54.8-1.75 1.78-.13.6-.32 1.22-.56 1.8-.74 1.75-.37 3.2.8 4.72.88 1.14 1.35 2.6 2.02 3.9.4.76.63 1.76 1.27 2.24 2.13 1.6 2.8 4.1 4.14 6.2.17.25.4.52.68.66.75.36 1.28.97.8 1.68-.32.44-1.26.8-1.77.66-.88-.23-.98-1.05-.5-1.86.1-.15.2-.3.2-.32-.58-1.05-1.04-2.06-1.68-2.96-.53-.75-1.23-1.4-1.9-2.04-.75-.7-1.62-1.3-2.3-2.04-.72-.78-1.32-1.5-2.5-.84-.15.1-.46-.1-.7-.15.08-.28.1-.73.25-.8 1.35-.54.94-1.47.66-2.44-.22-.83-.3-1.7-.46-2.52-.06-.28-.15-.67-.35-.78-2.13-1.16-3.56-2.96-4.92-5 .18 1.54.37 3.1.53 4.64.08.7.18 1.43.12 2.13-.5 6.2-.07 12.27 1.67 18.26 1.94 6.72 5.9 11.9 11.68 15.77 2.2 1.47 4.4 2.93 6.7 4.27 2.16 1.26 4.46 1.52 6.78.27 1.48-.8 2.55-.72 2.94.17.38.87-.2 1.73-1.77 2.25-1.66.55-3.4.86-5.04 1.43-.85.3-1.57.93-2.35 1.4.5.62.88 1.37 1.5 1.8 1.05.7 2.24 1.23 3.4 1.8.34.18.87.16 1.1.43.42.5 1.02 1.22.9 1.7-.1.48-.94.94-1.55 1.13-.43.13-1.07-.12-1.52-.36-2.12-1.17-4.2-2.4-6.3-3.58-.6-.33-1.2-.63-1.86-.76-5.37-1.15-10.58-2.83-15.54-5.17-.96-.46-1.9-.96-2.8-1.5 3.7 6.13 6.72 12.6 8 19.67.75 4.16.66 8.5.75 12.75.03 1.43-.43 2.92-.86 4.33-1 3.2-2.1 6.4-3.16 9.6-.1.32-.1.68-.18 1.03-.2 1.12-.42 2.25-.64 3.37-.36 1.83-.82 3.66-1.03 5.5-.06.56.58 1.2.96 1.87-1.4.46-1.23 1.7-1.3 2.97-.15 2.95-.6 5.9-.72 8.85-.15 3.44 0 6.9-.1 10.33 0 .28-.02.56-.04.84 5.84 5.57 11.67 11.16 17.4 16.84 5.47 5.4 10.47 11.23 14.33 17.96 3.47 6.07 4.2 12.38 2.65 19.1-1.25 5.45-3.63 10.42-6.1 15.35-1.83 3.6-3.7 7.2-5.58 10.76-.46.88-1 1.7-1.55 2.53-5.7 8.56-10.46 17.6-13.68 27.38-2.05 6.25-2 12.62-.36 19 .6 2.35 1.04 4.74 2.77 6.62.23.25.36.62.47.96 1.27 3.76-.15 8.7-3.16 11.2-.86.7-1.7 1.47-2.42 2.33-5.85 7.12-13.36 11.04-22.47 12.27-3.3.44-6.55 1.52-9.7 2.64-3.56 1.28-7.2 1.84-10.9 2.28-.4.04-.8.12-1.14.3-1.75.86-3.5 1.74-5.25 2.67-1.14.6-2.22 1.34-3.37 1.94-1.3.66-2.6 1.42-4 1.85-1.42.43-2.78-.2-3.4-1.28zM568.58-12.43c.74 1.27.66 2.64-.3 3.64-.85.9-2 1.6-3.16 2.13-1.9.86-3.9 1.54-5.9 2.23-1.14.4-2.3.7-3.5.96-2.5.56-4.83 1.47-6.2 3.82-1.6 2.8-3.24 5.58-4.6 8.5-.53 1.1-.4 2.5-.48 3.78-.06.85.15 1.72.02 2.55-.28 1.72-1.83 2.3-3.23 1.3-2.75-2-2.85-2.1-5.5.15-3.13 2.68-6.13 5.52-9.07 8.4-1.38 1.36-1.9 3.23-1.92 5.16-.05 2.55-.14 5.08 1.22 7.46.43.76.07 1.96.07 2.86-.38-.56-.86-1.28-1.55-2.3-.5 1-.86 1.85-1.34 2.63-.18.3-.6.55-.94.58-.26.02-.72-.32-.77-.57-.07-.32.07-.9.3-1.03.6-.3.67-.7.82-1.3.15-.62.85-1.1 1.5-1.84-.15-2.5.78-5.56-1.17-8.4-4.9 3.76-8.3 8.36-10.74 13.7-.27.6-.22 1.5 0 2.16.3.92.57 1.84.84 2.77 0-.8.08-1.6.12-2.4.17 0 .33-.03.5-.05.14.5.42 1 .42 1.5 0 1.6-.03 3.2-.05 4.8 1.83 7.94 2.3 16.04 1.74 24.23.36-.08.7-.2 1.08-.4.38-.2.8-.75.82-1.15.16-4 .45-8 .26-11.97-.12-2.65-.96-5.26-1.45-7.9-.08-.47-.23-1.07-.03-1.44 1.25-2.3.86-5.26 2.87-7.28.22-.22-.05-.86.08-1.26.16-.5.48-.97.8-1.4.02-.06.6.13.6.23.05.56.2 1.44-.06 1.6-1.68 1.08-1.33 3.08-2.2 4.5-.1.14-.1.34-.12.52-.12 2-.52 4.06-.28 6.04.2 1.67 1.06 3.28 1.74 4.88.62 1.45 1.8 2.34 3.24 3.03.64.3 1.17.92 1.62 1.5.73.93 1.28 2.03 2.08 2.9.23.24 1.06-.07 1.84-.14-.2.88-.4 1.82-.6 2.76.18.1.35.2.52.3 1.42-1.27 2.94-2.44 4.23-3.82.9-.97.76-1.6 0-2.83 1.2-.26 1.4-1.12 1.3-2.17-.14-1.02-.3-2.05-.37-3.07-.04-.52.05-1.06.08-1.6.12 0 .24-.03.36-.04.1.2.28.4.3.6.1 1.03.08 2.06.2 3.08.15 1.32.48 2.57-.3 3.9-.47.8.26 1.67 1.28 1.7.74.03 1.57.12 2.23-.16 1.53-.63 2.82.9 4.3.3.36-.14.8-.25 1.16-.2.34.06.9.33.9.55.12 1.22.95 1.08 1.77 1.08.56.02 1.2-.03 1.67.2 1.28.62 1.25 1.35.26 2.06-1.65-.9-3.12-1.87-4.72-2.53-.97-.4-2.13-.34-3.2-.38-.2 0-.45.47-.64.74-.4.52-.76 1.06-1.14 1.6-.38-.58-.76-1.16-1.26-1.93-.93.07-2.02.23-2.52 1.68-.16.5-.86.83-1.37 1.16-1 .65-2.07 1.24-3.13 1.86.27.85.54 1.7.84 2.68 2.2.1 2.67.4 2.75 1.8-.77-.43-1.48-.83-2.27-1.28-2.1 4.3-6.13 6.3-9.95 8.97.8 4.45-.47 9.03-.73 13.67-.27 4.9.77 9.6 3.04 13.92 3.84 7.3 6.27 15.07 7.87 23.13.73 3.6.17 7.15-.48 10.7-.85 4.6-1.58 9.27-2.53 13.87.1.2.2.4.33.6 1.16 1.72 1.18 3.46.4 5.24-.57 1.3-.28 2.36.4 3.5.3.5.45 1.22.36 1.8-.2 1.1-.12 1.96.88 2.7 3.03 2.23 6.08 4.46 9 6.85 1.9 1.56 3.7 3.26 5.33 5.1 1.7 1.88 2.45 4.28 2.7 6.8.4 4.13 2.07 7.57 5.43 10.12.4.3.76.64 1.07 1.02.8.96 1.62 1.54 3.06 1.43.8-.05 1.88.77 2.43 1.5.3.42 0 1.6-.4 2.17-.7 1-1.93 1.25-3.03.76-.98-.44-1.8-1.22-2.75-1.9-.02.4-.04.76-.06 1.16-1.33.53-2.42.1-3.3-.85-1.2-1.3-2.34-2.67-3.5-4-.16-.16-.34-.3-.53-.4-8.03-4.34-13.05-11.23-16.34-19.5-1.1-2.76-1.6-5.77-2.46-8.65-.2-.72-.56-1.5-1.08-2-.6-.6-1.2-1.18-1.82-1.76-.4.8-.8 1.62-1.2 2.42-1.3 2.6-2.98 5.02-4.58 7.46-.88 1.33-1.32 2.7-1.28 4.28.04 1.53 0 3.05 0 4.4.55.16 1.64.33 1.65.55.07 1.4-1.1.64-1.7.84 0 6.13 0 12.25 0 18.38.13.06.26.13.38.2 1.08-1.52 2.58-1.85 4.24-1.83.28 0 .54-.46.86-.54.33-.1.78-.1 1.05.07.16.1.2.76.04.9-.24.2-.8.37-1.03.24-1.26-.72-2.42-.36-3.55.24-.26.14-.54.57-.52.84.02.24.4.6.67.67 1.06.27 2.15.4 3.2.66.3.07.6.34.76.6.1.16-.04.65-.17.7-.3.1-.7.12-.96 0-1.46-.7-2.9-1.44-4.36-2.16-.14.08-.28.17-.42.25.7 4.44 1.43 8.87 2.2 13.6 1.1-.53 1.82-.93 2.6-1.23.32-.13.73-.07 1.1-.05.05 0 .16.42.1.45-.27.18-.58.4-.9.44-2.75.4-2.75.4-2.13 3.08.56 2.43.56 2.43 2.9 1.7.44-.14.86-.4 1.3-.4.3 0 .65.28.98.43-.3.26-.57.7-.88.73-.73.08-1.47-.03-2.2-.07.07.14.16.3.24.43-.4.52-.8 1.03-1.16 1.57-.1.16-.14.43-.1.62.4 1.4.88 2.75 1.2 4.15.34 1.38.5 2.8.78 4.2.1.5.3 1 .46 1.5.98-.42 1.85-.88 2.77-1.14.36-.1.9.2 1.3.4.08.04.03.66-.06.7-.38.1-.82.2-1.2.12-1.54-.26-2.36.42-2.02 1.9.88 3.83 1.84 7.64 2.8 11.44.1.42.4.82.68 1.15 2.24 2.58 4.44 5.2 6.8 7.65.93.98 2.22 1.6 3.36 2.4.58.4 1.4.66 1.72 1.22 1.17 2.05 2.36 4.13 3.14 6.35.36 1.04-.07 2.44-.36 3.63-.44 1.83-1.2 3.58-1.6 5.4-1.74 8-5.73 14.56-12.32 19.48-1.13.86-2.2 1.76-3.24 2.7.28 1 .72 1.96 1.28 2.9 1.87 3.14 2.72 6.52 2.52 10.18-.04.7.2 1.7.67 2.07 1.8 1.4 1.67 3.15 1.14 5-.72 2.58-1.56 5.13-2.3 7.7-.78 2.73-.42 5.14 1.53 7.4 1.06 1.25 1.73 2.93 2.26 4.5.4 1.27 1.04 2.1 2.3 2.3 1.68.3 3.38.43 5.05.75 3.17.6 6.34 1.2 9.47 2 2.18.53 3.9 1.9 5.57 3.94-2.32-.77-4.36-1.27-6.24-2.12-4.8-2.17-9.85-2.26-14.93-1.95-.78.04-2 .8-2.18 1.45-1.58 5.75-6.27 8.76-10.38 12.36-4 3.5-7.95 7.12-11.7 10.9-4.04 4.1-6.55 8.98-6.55 14.9 0 .37.2.88.48 1.1 2.55 2.07 5.08 4.15 7.72 6.1 1.73 1.26 3.67 1.13 5.65.4 2.1-.8 3.73.32 3.74 2.4 0 1.43-.88 2.16-2.12 2.6-.7.27-1.6.38-2.08.87-.66.7-1.42 1.68-1.45 2.57-.2 6.3-.25 12.63-.3 18.95 1.43 1.42 2.86 2.84 4.3 4.24.5.08 1.02.1 1.5.18 1.35.23 2.37.9 2.74 2.27.16.6.1 1.1-.1 1.57.16.15.32.3.48.47 1.52 1.43 3.3 2.58 5.16 4 .17-.56.16-.96.36-1.13.5-.45 1.1-1.14 1.64-1.1.6.02 1.4.6 1.73 1.17.86 1.5 1.43 3.14 2.25 4.65.84 1.53 2.05 2.7 3.87 3.1.42.08.86.23 1.26.43 1.54.8 1.74 2.53.26 3.44-1.2.75-1.43 1.75-1.35 2.97.37 5.3-1.8 9.77-4.62 14-.1.16-.24.3-.32.44-2.44 4.5-5.42 8.64-8.14 12.95-1.32 2.08-1.68 4.8-2.26 7.27-.2.82.27 1.8.5 2.7.1.38.42.7.6 1.05.48.9 1.28 1.98.3 2.8-.56.47-1.7.25-2.83.37.14 1.43.3 3.26.48 5.1.02.16.2.4.38.46.97.4 1.1.8.05 1.3-.13.08-.14.53-.12.8.4 5.1.52 10.23 1.26 15.28.84 5.78 2.56 11.34 6.12 16.2 1.17 1.58 2.05 3.46 2.7 5.33 1.04 3.1 1.84 6.26 1.9 9.6.04 1.3.4 2.66.84 3.93 1.3 3.76.94 7.44.02 11.24-1.68 6.97-5.04 13.22-7.76 19.75-.1.25-.22.5-.37.72-6.18 9-8.24 19.47-10.78 29.8-.5 2-.86 3.98-1.14 5.96.86 2.33 1.6 4.7 2.2 7.14.94 3.74 2 7.44 2.9 11.2.25 1.04.04 2.2.04 3 .9.2 1.66.36 2.4.52-.23.82-.43 1.65-.72 2.44-.12.3-.42.57-.7.82-4.4 4.1-4.85 9.25-3.73 14.75.38 1.9 1.35 3.34 3.53 3.74 1.52.3 2.07 1.8.97 2.88-3.4 3.35-3.92 7.37-3.3 11.8.3 2.13.28 4.3.44 6.44.1 1.3-.25 2.4-1.1 3.34-.66.74-1.34 1.46-1.94 2.25-.94 1.24-1.4 2.65-1 4.2.5 2-.36 3.3-1.93 4.45-1.7 1.22-3.42 2.48-4.94 3.92-1.6 1.5-2.75 3.4-3.43 5.64.84 0 1.54-.04 2.24.03 1.5.13 2.4 1.15 2.14 2.35-.27 1.2-1.4 1.86-2.75 1.32-2-.78-3.43-.17-4.58 1.42-1.07 1.5-2.16 2.98-3.1 4.56-.92 1.55-1.3 3.22-1.28 5.1.07 4.85.84 9.5 2.07 14.2 1.22 4.62 1.65 9.45 2.3 14.2.34 2.5 2.5 4.37 4.94 3.8 1.68-.4 3.3-1.12 4.95-1.65 1.47-.48 2.96-1 4.5-1.3 1.33-.25 2.62.1 3.42 1.35.83 1.28.57 2.6-.16 3.82-1.9 3.23-5.58 4.4-9 2.9-.12-.05-.26-.05-.2-.04-.44.92-.76 1.83-1.3 2.6-.26.35-.92.54-1.43.6-1.54.15-2.62-.94-3.43-3.35-1.14.83-2.26.27-3-.43-1.42-1.33-2.62-2.9-3.87-4.4-.3-.38-.48-.88-.63-1.35-2.18-6.82-3.95-13.76-2.84-20.97.37-2.44.76-4.9.83-7.33.13-4.8.34-9.67-.2-14.43-.56-5-.9-9.92-.43-14.9.15-1.54.1-2.96-1.16-4.22-1-1.02-.17-2.92 1.4-3.16 1.4-.2 1.76-1.03 1.85-2.2.1-1.3.26-2.6.3-3.9 0-.5-.26-1.03-.37-1.46.2-.44.6-.9.68-1.44.6-4.22 1.07-8.47.46-12.74-.2-1.45-.52-2.9-.87-4.33-.35-1.4-.12-2.68.6-3.88 1.16-1.95 1.18-4.1 1.2-6.24-.12-.08-.24-.17-.36-.25-1.18 1.52-2.45 2.97-3.45 4.6-.28.46.24 1.4.42 2.23-.88.3-1 1.12-.76 2.1.28 1.05.6 2.08.8 3.13.1.52.02 1.07.02 1.58-.24 0-.32.02-.32 0-.23-2.36-1.86-4.48-1.22-7.04.13-.5-.06-1.47-.4-1.65-.57-.3-1.42-.27-2.1-.15-.8.15-1.57.55-2.36.82-.16.05-.4.1-.5 0-1.25-.93-2.38-.07-3.56.15-.33.07-1-.1-1.03-.24-.27-1.37-1.18-1-2.08-.94-.7.05-1.5-.03-2.1-.32-.27-.12-.2-.96-.26-1.47.4 0 .84-.08 1.2.05 1.44.55 2.8 1.3 4.27 1.7.92.25 2 .05 2.97-.1.24-.02.54-.55.6-.9.1-.7.07-1.64.98-1.58.45.04.84.93 1.4 1.62.85-.17 1.9-.36 2.26-1.8.13-.53.65-1.03 1.1-1.4 1-.85 2.05-1.6 3.05-2.38-.4-.85-.8-1.68-1.23-2.57-1.15.06-2.47.4-3.17-1.46 1 .4 1.75.67 2.52.97.95-1.66 1.7-3.37 2.8-4.83.83-1.1 2.1-1.85 3.12-2.8.32-.3.7-.66.78-1.05.45-1.97 1.05-3.94 1.15-5.94.08-1.56.1-3.13.05-4.7-4.92-3.25-8.07-7.97-9.9-13.8-.5-1.55-.9-3.12-1.5-4.62-2.1-5.42-2.85-11.15-3.37-16.85-.04-.38-.05-.77-.05-1.17-.4-1.03-.77-2.07-1.13-3.1-1.2-3.54-1.17-7.16-1.02-10.8.17-3.86.05-7.74.46-11.57.4-3.78 1.28-7.5 1.97-11.25.4-2.06.95-4.1 1.2-6.18.36-2.8 1.03-5.44 2.14-8.03.26-.65.52-1.3.76-1.93-.1-.37-.14-.75-.16-1.12 0-.1.35-.3.72-.42.4-1.15.78-2.3 1.15-3.47.17-.53-.15-1.2-.27-1.82-.5-2.32.55-4.1 2.78-4.82 1.2-.38 2.1-.08 2.73 1.05.92 1.7.8 3.42.3 5.22-.83 2.97-1.52 6-2.34 8.98-.35 1.2.08 1.97 1.02 2.62.4.28.8.58 1.16.93.14.14.26.3.37.45 2.1-3.07 3.54-6.4 4-10.15.37-3.15.1-6.24-.48-9.36-.26-1.4.12-2.94.14-4.4.02-.53-.07-1.1-.32-1.54-1.76-3-3.55-5.96-4.52-9.4-.44-1.6-1.85-2.92-2.84-4.35-.28-.4-.68-.73-.93-1.14-.1-.14.08-.45.14-.68.23.07.53.07.67.23 2.48 2.73 4.08 6 5.64 9.3.7 1.48 1.27 3.04 2 4.52.27.55.83.95 1.53 1.32 1.03-4.34 1.42-8.56-1.23-12.74 1.95.4 1.92 1.98 2.56 2.98 3.06-1.4 3.2-3.92 2.57-6.92-1.55-.73-.6-2.88-2.07-3.66-.6-3.07-3.36-4.66-4.88-7.1-1.55-2.46-3.18-4.9-4.43-7.53-3.15-6.6-4.75-13.44-3.72-20.87.7-5.14.98-10.37.3-15.57-.07-.48-.2-.95-.3-1.4-2.3-.05-2.5-.3-2.25-2.55.05-.48-.1-.98-.1-1.46.04-1 .08-2.03.2-3.03.2-1.56.6-3.08.72-4.64.22-2.7.35-5.43.5-8.14-.9-.87-1.87-1.66-2.6-2.65-.3-.43-.24-1.45.07-1.9.24-.37 1.14-.3 1.76-.37.18-.02.4.17.75.35-1.12-4.3-2.15-8.4-3.26-12.44-.24-.83-.88-1.56-1.17-2.4-.45-1.33-.9-2.7-1.08-4.07-.17-1.2 1.14-1.9 2.25-1.3.1.06.2.17.32.24.08.05.2.08.46.2-2.06-6.24-4.22-12.44-6.42-18.62-.4-1.17-1.2-2.4-2.15-3.15-4.93-3.83-8-8.76-9.44-14.8-.12-.48-.44-.98-.8-1.35-2.5-2.6-4.5-5.55-6.2-8.75-.7-1.3-1.8-2.45-2.82-3.57-1.9-2.08-1.97-4.87-.1-6.93 1.62-1.8 3.8-1.6 5.03.5.3.5.46 1.06.72 1.58.82 1.64 1.7 3.25 2.5 4.9.72 1.5 1.35 3.02 2.06 4.5.63 1.34 1.2 2.73 2 3.94 2.5 3.63 5.27 7.07 7.58 10.8.16.25.3.5.45.76-.07-1.2.17-2.38.65-3.62.76-1.96 1.13-4.15 1.26-6.26.28-4.8.46-9.6.37-14.4-.04-2.24-.8-4.46-1.22-6.7-.4-2.14-.96-4.27-1.15-6.43-.7-7.6-1.22-15.22-1.88-22.82-.38-4.35-2.47-7.88-5.45-11-1.26-1.3-2.37-2.8-3.35-4.32-.27-.44-.07-1.46.28-1.96 1.14-1.66 1.27-3.5 1.36-5.4.03-.63-.13-1-.9-1-.52 0-1.04-.33-1.56-.34-1.5 0-3.07-.14-3.75 1.76-.1.24-.98.4-1.38.27-.3-.1-.7-.84-.6-1.12.14-.4.67-.8 1.12-.92.66-.2 1.4-.17 2.12-.25 1.1-.12 2.37.04 3.24-.48.72-.44.86-1.75 1.45-2.53.8-1.07 1.84-1.96 2.68-3 .26-.32.44-1 .28-1.33-1.05-2.3-.75-4.65.04-6.83.98-2.7 2.28-5.3 3.6-7.87.43-.8 1.44-1.3 2.1-2 .88-.9.97-1.87.07-2.85-.15-.16-.37-.37-.36-.55.04-.65-.05-1.5.3-1.88.27-.27 1.42-.16 1.74.18.45.47.62 1.3.66 2 .03.55-.5 1.12-.48 1.66.15 2.78-1.57 4.6-3.14 6.56-.8 1-1.38 2.3-1.65 3.57-.6 2.84-.95 5.74-1.4 8.62-.02.2.03.45.1.66 1.36 4.67 3.23 9.04 7.08 12.3 3.2 2.68 6.3 5.46 9.5 8.15 1.97 1.67 4.4 2.4 6.9 2.8 2.27.37 2.97-.12 4.1-2.22.45-.85 1.2-.74 1.83-.3.4.3.68.8 1.12 1.34.24-.57.47-1.1.72-1.7-.27-.13-.45-.3-.65-.32-3.05-.28-4.6-2.3-5.76-4.84-.45-.98-.42-1.8.13-2.78.32-.58.4-1.45.25-2.1-.24-1.05.08-1.6 1.03-1.8 1.04-.2 1.55-.77 1.76-1.75.13-.62.33-1.22.57-1.8.74-1.76.38-3.22-.8-4.73-.87-1.13-1.34-2.58-2-3.88-.4-.78-.65-1.78-1.28-2.25-2.13-1.6-2.8-4.1-4.14-6.18-.17-.27-.4-.54-.68-.67-.76-.37-1.28-.98-.8-1.68.32-.44 1.26-.8 1.77-.67.87.24.98 1.06.5 1.86-.1.15-.2.3-.2.32.57 1.05 1.04 2.07 1.67 2.96.54.75 1.24 1.4 1.9 2.04.76.7 1.63 1.3 2.3 2.05.72.78 1.33 1.5 2.5.83.15-.1.47.1.7.16-.07.27-.08.73-.25.8-1.35.54-.94 1.46-.66 2.44.23.8.3 1.67.47 2.5.07.28.16.67.36.78 2.12 1.16 3.54 2.96 4.9 5-.17-1.54-.37-3.1-.52-4.64-.08-.7-.17-1.42-.1-2.13.5-6.18.05-12.26-1.7-18.26-1.94-6.7-5.9-11.9-11.67-15.75-2.2-1.47-4.4-2.94-6.7-4.27-2.16-1.27-4.46-1.53-6.78-.27-1.5.8-2.57.73-2.96-.16-.37-.86.22-1.72 1.78-2.24 1.66-.55 3.4-.86 5.04-1.44.84-.3 1.56-.93 2.34-1.4-.5-.6-.88-1.37-1.5-1.8-1.05-.7-2.24-1.22-3.4-1.8-.35-.18-.87-.16-1.1-.42-.42-.5-1.03-1.22-.9-1.68.1-.5.94-.96 1.54-1.14.44-.14 1.07.1 1.53.36 2.12 1.16 4.2 2.4 6.3 3.58.58.32 1.2.6 1.85.75 5.38 1.15 10.58 2.84 15.54 5.18.97.45 1.9.95 2.8 1.5-3.68-6.14-6.7-12.62-8-19.68-.74-4.16-.65-8.5-.74-12.75-.04-1.44.43-2.93.86-4.33 1-3.22 2.1-6.4 3.16-9.6.1-.32.12-.7.2-1.04.2-1.12.4-2.24.63-3.36.36-1.84.82-3.66 1.03-5.52.06-.55-.6-1.17-.96-1.86 1.42-.46 1.24-1.7 1.3-2.96.15-2.96.6-5.9.73-8.85.14-3.44 0-6.9.1-10.33 0-.28.02-.57.04-.85-5.83-5.58-11.67-11.17-17.4-16.85-5.46-5.4-10.46-11.22-14.32-17.96-3.48-6.07-4.2-12.38-2.65-19.1 1.24-5.45 3.62-10.42 6.1-15.35 1.83-3.6 3.7-7.2 5.58-10.77.46-.87 1-1.7 1.56-2.52 5.7-8.55 10.45-17.6 13.67-27.36 2.05-6.24 2-12.62.36-19-.62-2.35-1.06-4.74-2.78-6.6-.23-.27-.36-.64-.48-.97-1.26-3.77.16-8.7 3.16-11.2.86-.7 1.7-1.48 2.42-2.33C514.17 3.12 521.7-.8 530.8-2.02c3.3-.45 6.54-1.53 9.7-2.65 3.55-1.26 7.2-1.82 10.9-2.26.4-.05.8-.12 1.13-.3 1.77-.86 3.53-1.75 5.26-2.67 1.14-.6 2.22-1.34 3.37-1.94 1.3-.68 2.6-1.43 4-1.86 1.42-.44 2.78.2 3.4 1.27zM543.4 210.6c.33 0 .66-.5 1.2-1-.56-.35-.95-.8-1.2-.72-.36.1-.62.57-.93.88.3.3.63.84.93.84zM493.8 234.1c.03-.32-.48-.68-.96-1.3-.35.7-.72 1.1-.7 1.45.03.3.53.55.82.82.3-.32.82-.63.84-.97zM489.3 225.68c-.36.6-.8 1-.74 1.3.08.34.64.8.94.78.33-.03.83-.57.84-.9 0-.32-.53-.64-1.04-1.18zM512.18-382.85h170.07v1115.5H512.18z"/></g></svg>